<?xml version="1.0" encoding="UTF-8"?>
<svg width="488px" height="477px" viewBox="0 0 488 477" version="1.1" xmlns="http://www.w3.org/2000/svg" xmlns:xlink="http://www.w3.org/1999/xlink">
    <!-- Generator: Sketch 51.2 (57519) - http://www.bohemiancoding.com/sketch -->
    <title>data_center (1)</title>
    <desc>Created with Sketch.</desc>
    <defs>
        <linearGradient x1="75.0995353%" y1="90.2595868%" x2="-52.067803%" y2="-88.3477849%" id="linearGradient-1">
            <stop stop-color="#000000" stop-opacity="0" offset="0%"></stop>
            <stop stop-color="#000000" offset="99%"></stop>
        </linearGradient>
        <linearGradient x1="19.3532393%" y1="48.6364688%" x2="230.771602%" y2="57.9015034%" id="linearGradient-2">
            <stop stop-color="#000000" stop-opacity="0" offset="0%"></stop>
            <stop stop-color="#000000" offset="99%"></stop>
        </linearGradient>
        <linearGradient x1="0.231586646%" y1="49.9953369%" x2="99.9999988%" y2="49.9953369%" id="linearGradient-3">
            <stop stop-color="#000000" stop-opacity="0" offset="0%"></stop>
            <stop stop-color="#000000" offset="99%"></stop>
        </linearGradient>
        <linearGradient x1="46.5098458%" y1="-29.5052895%" x2="54.839125%" y2="217.103222%" id="linearGradient-4">
            <stop stop-color="#000000" stop-opacity="0" offset="0%"></stop>
            <stop stop-color="#000000" offset="99%"></stop>
        </linearGradient>
        <linearGradient x1="50.0030283%" y1="-87.302388%" x2="50.0030283%" y2="610.58338%" id="linearGradient-5">
            <stop stop-color="#000000" stop-opacity="0" offset="0%"></stop>
            <stop stop-color="#000000" stop-opacity="0.41" offset="41%"></stop>
            <stop stop-color="#000000" offset="99%"></stop>
        </linearGradient>
        <linearGradient x1="47.1428571%" y1="-125.981873%" x2="57.0535714%" y2="492.145015%" id="linearGradient-6">
            <stop stop-color="#000000" stop-opacity="0" offset="0%"></stop>
            <stop stop-color="#000000" stop-opacity="0.41" offset="41%"></stop>
            <stop stop-color="#000000" offset="99%"></stop>
        </linearGradient>
        <linearGradient x1="-40.2035623%" y1="14.0042048%" x2="-74.8091603%" y2="0.185297367%" id="linearGradient-7">
            <stop stop-color="#000000" stop-opacity="0" offset="0%"></stop>
            <stop stop-color="#000000" offset="99%"></stop>
        </linearGradient>
        <linearGradient x1="0.0548425029%" y1="50.060445%" x2="99.9490664%" y2="50.060445%" id="linearGradient-8">
            <stop stop-color="#ECC4D7" offset="0%"></stop>
            <stop stop-color="#EFD4D1" offset="42%"></stop>
            <stop stop-color="#F2EAC9" offset="100%"></stop>
        </linearGradient>
        <linearGradient x1="64.1228193%" y1="102.959634%" x2="-56.8824183%" y2="-269.986109%" id="linearGradient-9">
            <stop stop-color="#000000" stop-opacity="0" offset="0%"></stop>
            <stop stop-color="#000000" offset="99%"></stop>
        </linearGradient>
        <linearGradient x1="-0.294175244%" y1="49.9825158%" x2="99.7493077%" y2="49.9825158%" id="linearGradient-10">
            <stop stop-color="#ECC4D7" offset="0%"></stop>
            <stop stop-color="#EFD4D1" offset="42%"></stop>
            <stop stop-color="#F2EAC9" offset="100%"></stop>
        </linearGradient>
        <linearGradient x1="-0.0348456081%" y1="49.6853135%" x2="100.07898%" y2="49.6853135%" id="linearGradient-11">
            <stop stop-color="#ECC4D7" offset="0%"></stop>
            <stop stop-color="#EFD4D1" offset="42%"></stop>
            <stop stop-color="#F2EAC9" offset="100%"></stop>
        </linearGradient>
        <linearGradient x1="0.105484299%" y1="50.217883%" x2="100.01335%" y2="50.217883%" id="linearGradient-12">
            <stop stop-color="#ECC4D7" offset="0%"></stop>
            <stop stop-color="#EFD4D1" offset="42%"></stop>
            <stop stop-color="#F2EAC9" offset="100%"></stop>
        </linearGradient>
    </defs>
    <g id="Page-1" stroke="none" stroke-width="1" fill="none" fill-rule="evenodd">
        <g id="data_center-(1)" transform="translate(-18.000000, -1.000000)" fill-rule="nonzero">
            <path d="M235.1,271.83 C235.129878,271.012692 234.89871,270.207104 234.44,269.53 C233.942104,268.856135 233.036433,268.629717 232.28,268.99 C231.89,269.22 231.63,269.65 231.22,269.86 C230.81,270.07 230.13,269.78 230.27,269.34 C228.4,269.63 227.09,271.26 225.49,272.26 C224.22,273.04 222.74,273.44 221.49,274.2 C220.24,274.96 219.07,276.31 219.23,277.79 C219.346711,278.254027 219.400526,278.731636 219.39,279.21 C219.297326,279.539228 219.169945,279.857681 219.01,280.16 C218.677364,281.270993 218.810932,282.469498 219.38,283.48 C219.88,284.48 220.57,285.48 220.98,286.48 C221.269889,287.571533 221.637494,288.640929 222.08,289.68 C222.64,290.68 223.87,291.42 224.89,290.93 C224.04,289.63 224.57,287.93 225.18,286.46 C226.18,284.16 227.33,281.78 229.46,280.46 C230.321877,280.059406 231.107042,279.511144 231.78,278.84 C232.203059,278.222705 232.590362,277.581653 232.94,276.92 C234.05,275.24 235.14,274.07 235.1,271.83 Z" id="Shape" fill="#3F3D56"></path>
            <path d="M215.93,287.26 C215.66545,286.864331 215.325669,286.52455 214.93,286.26 C213.7,285.55 212.19,286.48 211.11,287.4 C209.628415,288.673241 208.219528,290.02871 206.89,291.46 C206.405577,291.912717 206.055991,292.490746 205.88,293.13 C205.810992,293.745212 205.911264,294.367591 206.17,294.93 C207.64094,298.874321 210.066596,302.392553 213.23,305.17 C213.702146,305.656691 214.313526,305.985089 214.98,306.11 C215.632441,306.110271 216.271182,305.922814 216.82,305.57 L224.65,301.57 C226.07,300.84 227.76,299.74 227.14,297.87 C226.73,296.66 225.44,296.25 224.47,295.56 C221.240365,293.216794 218.364292,290.421547 215.93,287.26 Z" id="Shape" fill="#6777EF"></path>
            <path d="M215.93,287.35 C215.666062,286.953828 215.326172,286.613938 214.93,286.35 C213.7,285.64 212.19,286.56 211.11,287.48 C209.625268,288.749719 208.213042,290.101849 206.88,291.53 C206.377861,291.987284 206.014077,292.576266 205.83,293.23 C205.761681,293.848446 205.861885,294.473856 206.12,295.04 C207.593876,298.979939 210.0192,302.494254 213.18,305.27 C213.6516,305.759304 214.262764,306.091078 214.93,306.22 C215.582618,306.211811 216.219945,306.021306 216.77,305.67 L224.6,301.67 C226.02,300.94 227.71,299.84 227.09,297.97 C226.68,296.77 225.39,296.36 224.42,295.66 C221.205122,293.312669 218.345675,290.513846 215.93,287.35 Z" id="Shape" fill="url(#linearGradient-1)"></path>
            <path d="M234.49,306.24 C235.44,310.19 235.15,314.31 234.85,318.36 C233.96,330.66 233.04,343.1 229.19,354.81 C228.19,357.92 226.81,361.13 224.19,363.03 C219.86,366.12 213.35,364.42 209.92,360.36 C206.49,356.3 205.65,350.6 206.1,345.3 C206.55,340 208.1,334.87 209.03,329.63 C210.52,320.81 209.03,306.95 215.1,299.63 C221.58,291.75 232.49,297.84 234.49,306.24 Z" id="Shape" fill="#6777EF"></path>
            <path d="M234.49,306.24 C235.44,310.19 235.15,314.31 234.85,318.36 C233.96,330.66 233.04,343.1 229.19,354.81 C228.19,357.92 226.81,361.13 224.19,363.03 C219.86,366.12 213.35,364.42 209.92,360.36 C206.49,356.3 205.65,350.6 206.1,345.3 C206.55,340 208.1,334.87 209.03,329.63 C210.52,320.81 209.03,306.95 215.1,299.63 C221.58,291.75 232.49,297.84 234.49,306.24 Z" id="Shape" fill="url(#linearGradient-2)"></path>
            <path d="M228.43,356.85 C228.211286,358.007859 228.051082,359.176008 227.95,360.35 C226.301948,367.848937 223.788439,375.131067 220.46,382.05 C218.91,385.29 217.16,388.48 216.22,391.95 C214.91,396.74 215.22,401.83 215.85,406.76 C216.72,413.55 218.62,418.15 220.07,424.84 C218.89,425.66 208.66,431.99 207.22,432.17 C204.32,430.23 212.22,424.33 212.13,423.32 C211.71,418.14 211.13,416.85 209.58,412.39 C208.28,408.54 206.96,404.69 205.88,400.78 C204.66705,396.927852 204.0697,392.908399 204.11,388.87 C204.323578,386.093576 204.788821,383.34228 205.5,380.65 L208.71,366.73 L195.71,376.73 C195.103158,377.134599 194.588599,377.66279 194.2,378.28 C193.812124,379.1984 193.707652,380.211784 193.9,381.19 C194.760821,389.506789 196.874734,397.645521 200.17,405.33 L192.88,412.65 C191.668281,414.052604 190.134431,415.140368 188.41,415.82 C187.21,414.66 187.78,412.61 188.73,411.24 C189.68,409.87 192.61,407.85 192.73,406.19 C192.79,405.46 190.01,401.36 189.83,400.66 C187.73,392.22 186.48,387.89 185.57,379.24 C185.285013,377.179809 185.285013,375.090191 185.57,373.03 C186.42,368.32 189.8,364.52 193.05,361.03 C197.95,355.7 201.68,351.43 205.85,346.6 C207.85,349.05 210.43,353.48 219.95,355.93 C223.73,356.86 226.16,356.33 228.43,356.85 Z" id="Shape" fill="#3F3D56"></path>
            <path d="M429.73,162.4 C429.718964,186.822982 409.922982,206.618964 385.5,206.63 L294.02,206.63 C292.01211,206.635488 290.006588,206.491759 288.02,206.2 C285.620946,206.489772 283.206489,206.63337 280.79,206.63 L151.95,206.63 C129.49529,206.914436 108.62349,195.097959 97.3132228,175.69763 C86.0029555,156.297301 86.0029555,132.312699 97.3132228,112.91237 C108.62349,93.5120409 129.49529,81.6955637 151.95,81.98 L177.33,81.98 C182.364344,42.5003459 215.239639,12.4691604 255.012516,11.0179577 C294.785392,9.56675497 329.761865,37.1222164 337.66,76.13 L345.54,76.13 C356.374094,76.1273475 366.765505,80.4286308 374.428241,88.0876166 C382.090978,95.7466023 386.397348,106.135906 386.4,116.97 C386.4,117.38 386.4,117.79 386.4,118.18 C410.476056,118.659327 429.740218,138.319176 429.73,162.4 Z" id="Shape" fill="url(#linearGradient-3)"></path>
            <path d="M419.78,152.45 C419.768964,176.872982 399.972982,196.668964 375.55,196.68 L284.08,196.68 C282.072128,196.684973 280.066643,196.541247 278.08,196.25 C275.684267,196.539465 273.273155,196.683063 270.86,196.68 L142,196.68 C119.54529,196.964436 98.67349,185.147959 87.3632228,165.74763 C76.0529555,146.347301 76.0529555,122.362699 87.3632228,102.96237 C98.67349,83.5620409 119.54529,71.7455637 142,72.03 L167.38,72.03 C172.387079,32.5286181 205.269652,2.46820677 245.060633,1.01634352 C284.851613,-0.435519722 319.837475,27.1485593 327.71,66.18 L335.59,66.18 C358.146929,66.1744754 376.438957,84.4530734 376.45,107.01 C376.45,107.43 376.45,107.84 376.45,108.23 C400.523768,108.714622 419.784877,128.371355 419.78,152.45 Z" id="Shape" fill="#6777EF"></path>
            <path d="M419.78,152.45 C419.768964,176.872982 399.972982,196.668964 375.55,196.68 L284.08,196.68 C282.072128,196.684973 280.066643,196.541247 278.08,196.25 C275.684267,196.539465 273.273155,196.683063 270.86,196.68 L145.73,196.68 C121.257298,182.603723 109.301879,153.835929 116.589527,126.560576 C123.877175,99.2852233 148.587844,80.3141695 176.82,80.32 L202.21,80.32 C207.38559,39.7119893 241.943498,9.28372362 282.88,9.29 L283.88,9.29 C306.527843,20.4246595 322.72921,41.4354613 327.74,66.17 L335.62,66.17 C358.176929,66.1644754 376.468957,84.4430734 376.48,107 C376.48,107.42 376.48,107.83 376.48,108.22 C400.545895,108.720799 419.790654,128.378897 419.78,152.45 Z" id="Shape" fill="url(#linearGradient-4)"></path>
            <path d="M66.09,365.83 L61.18,365.83 L61.18,175.63 C61.1965297,165.7581 69.1980927,157.76101 79.07,157.75 L110.07,157.75 L110.07,162.66 L79.07,162.66 C71.8902983,162.66 66.07,168.480298 66.07,175.66 L66.09,365.83 Z" id="Shape" fill="#6777EF"></path>
            <path d="M468.51,365.83 L463.61,365.83 L463.61,175.63 C463.61,168.450298 457.789702,162.63 450.61,162.63 L419.61,162.63 L419.61,157.72 L450.61,157.72 C460.480282,157.731022 468.478978,165.729718 468.49,175.6 L468.51,365.83 Z" id="Shape" fill="#6777EF"></path>
            <rect id="Rectangle-path" fill="#6777EF" x="420.46" y="275.18" width="85.13" height="137.09" rx="19.41"></rect>
            <path d="M499.76,294.37 L499.76,380.99 C499.76,384.294597 498.447254,387.463847 496.11055,389.80055 C493.773847,392.137254 490.604597,393.45 487.3,393.45 L438.45,393.45 C435.14367,393.452654 431.971851,392.141079 429.632984,389.804088 C427.294118,387.467097 425.979999,384.296331 425.98,380.99 L425.98,294.37 C425.979998,287.48139 431.561392,281.89552 438.45,281.89 L487.3,281.89 C490.60725,281.892651 493.77799,283.208994 496.114694,285.549448 C498.451397,287.889903 499.762653,291.06275 499.76,294.37 Z" id="Shape" fill="#FFFFFF"></path>
            <rect id="Rectangle-path" fill="#FFFFFF" x="450.03" y="399.19" width="28.01" height="8.29" rx="4.145"></rect>
            <rect id="Rectangle-path" fill="#6777EF" x="18.04" y="312.22" width="167.49" height="96.18" rx="13.45"></rect>
            <rect id="Rectangle-path" fill="#FFFFFF" x="23.69" y="316.93" width="156.58" height="86.22" rx="12.31"></rect>
            <path d="M185.52,414.72 C185.525335,416.397798 184.861193,418.008416 183.674805,419.194805 C182.488416,420.381193 180.877798,421.045335 179.2,421.04 L24.36,421.04 C20.8695604,421.04 18.04,418.21044 18.04,414.72 C18.04,411.22956 20.8695604,408.4 24.36,408.4 L179.2,408.4 C182.685882,408.410979 185.509021,411.234118 185.52,414.72 Z" id="Shape" fill="#6777EF"></path>
            <path d="M184.33,411.04 C184.138407,411.319909 183.920771,411.581072 183.68,411.82 C182.494148,413.012158 180.881512,413.68169 179.2,413.68 L24.36,413.68 C22.3207273,413.682277 20.4060741,412.698875 19.22,411.04 C20.3957983,409.36927 22.3170771,408.382465 24.36,408.4 L179.2,408.4 C181.236954,408.395948 183.149347,409.380103 184.33,411.04 Z" id="Shape" fill="url(#linearGradient-5)"></path>
            <path d="M368.59,345.07 L288.43,345.07 C287.08,345.07 285.03,343.97 285.03,342.62 C285.03,341.27 287.08,340.16 288.43,340.16 L368.59,340.16 C378.320593,340.15449 386.208969,332.270589 386.22,322.54 L386.22,249.86 C386.214486,242.914543 380.585457,237.285514 373.64,237.28 L317.14,237.28 C308.584155,237.268982 301.651018,230.335845 301.64,221.78 L301.64,203.32 C301.581606,202.405518 302.036337,201.534374 302.819997,201.059438 C303.603657,200.584502 304.586343,200.584502 305.370003,201.059438 C306.153663,201.534374 306.608394,202.405518 306.55,203.32 L306.55,221.78 C306.555513,227.62641 311.29359,232.364487 317.14,232.37 L373.64,232.37 C383.294891,232.381022 391.118978,240.205109 391.13,249.86 L391.13,322.54 C391.113462,334.980022 381.030029,345.058983 368.59,345.07 Z" id="Shape" fill="#6777EF"></path>
            <rect id="Rectangle-path" fill="#6777EF" opacity="0.18" x="436.77" y="311.3" width="54.17" height="6.63" rx="3.315"></rect>
            <rect id="Rectangle-path" fill="#6777EF" opacity="0.18" x="436.77" y="324.38" width="54.17" height="6.63" rx="3.315"></rect>
            <rect id="Rectangle-path" fill="#6777EF" opacity="0.18" x="436.77" y="337.46" width="54.17" height="6.63" rx="3.315"></rect>
            <rect id="Rectangle-path" fill="#6777EF" opacity="0.18" x="436.77" y="350.54" width="54.17" height="6.63" rx="3.315"></rect>
            <rect id="Rectangle-path" fill="#6777EF" opacity="0.18" x="42.91" y="337" width="54.17" height="6.63" rx="3.315"></rect>
            <rect id="Rectangle-path" fill="#6777EF" opacity="0.18" x="42.91" y="350.08" width="54.17" height="6.63" rx="3.315"></rect>
            <rect id="Rectangle-path" fill="#6777EF" opacity="0.18" x="42.91" y="363.17" width="54.17" height="6.63" rx="3.315"></rect>
            <rect id="Rectangle-path" fill="#6777EF" opacity="0.18" x="42.91" y="376.25" width="54.17" height="6.63" rx="3.315"></rect>
            <path d="M175.46,319.49 L23.69,373.58 L23.69,329.25 C23.69,322.445852 29.2058519,316.93 36.01,316.93 L167.95,316.93 C170.668519,316.923497 173.311459,317.82442 175.46,319.49 Z" id="Shape" fill="#6777EF" opacity="0.18"></path>
            <path d="M180.27,366.19 L180.27,390.83 C180.267349,394.094815 178.967863,397.224859 176.657415,399.531557 C174.346966,401.838254 171.214815,403.132653 167.95,403.13 L88.07,403.130004 L180.27,366.19 Z" id="Shape" fill="#6777EF" opacity="0.18"></path>
            <g id="Group" transform="translate(257.000000, 276.000000)">
                <rect id="Rectangle-path" fill="#6777EF" x="0.3" y="0.29" width="107.24" height="127.14" rx="10.91"></rect>
                <path d="M102.51,14.86 L102.51,110.13 C102.512657,112.745848 101.474692,115.255322 99.6250069,117.105007 C97.7753219,118.954692 95.2658482,119.992657 92.65,119.99 L15.41,119.99 C12.7932332,119.992654 10.2827338,118.955007 8.43146177,117.105611 C6.5801897,115.256214 5.53999865,112.746768 5.54,110.13 L5.54,14.86 C5.54551889,9.41285517 9.96285238,4.9999972 15.41,5 L92.65,5 C95.2650346,5 97.7729642,6.03881845 99.6220729,7.88792714 C101.471182,9.73703583 102.51,12.2449654 102.51,14.86 Z" id="Shape" fill="#FFFFFF"></path>
                <polygon id="Shape" fill="#6777EF" opacity="0.18" points="18.72 50.04 32.73 43.77 49.68 58.14 67 35.3 84.32 59.62 84.32 76.43 19.4 76.43"></polygon>
                <rect id="Rectangle-path" fill="url(#linearGradient-6)" x="49.36" y="121.81" width="11.2" height="3.31" rx="1.655"></rect>
                <polygon id="Shape" fill="#6777EF" points="89.66 77.06 18.42 77.06 18.42 29.77 19.4 29.77 19.4 76.08 89.66 76.08"></polygon>
                <rect id="Rectangle-path" fill="#6777EF" x="29.46" y="41.47" width="5.67" height="34.96"></rect>
                <rect id="Rectangle-path" fill="#6777EF" x="64.83" y="32.89" width="5.67" height="43.55"></rect>
                <rect id="Rectangle-path" fill="#6777EF" x="46.87" y="55.2" width="5.67" height="21.23"></rect>
                <rect id="Rectangle-path" fill="#6777EF" x="80.77" y="55.2" width="5.67" height="21.23"></rect>
                <path d="M102.51,14.86 L102.51,23.53 L5.51,76.42 L5.51,14.86 C5.51551889,9.41285517 9.93285238,4.9999972 15.38,5 L92.62,5 C95.2402286,4.99202767 97.7558721,6.02732557 99.6114743,7.87729906 C101.467077,9.72727255 102.510012,12.2397593 102.51,14.86 Z" id="Shape" fill="#6777EF" opacity="0.18"></path>
            </g>
            <path d="M499.76,329.77 L499.76,380.99 C499.76,384.294597 498.447254,387.463847 496.11055,389.80055 C493.773847,392.137254 490.604597,393.45 487.3,393.45 L438.45,393.45 C435.14367,393.452654 431.971851,392.141079 429.632984,389.804088 C427.294118,387.467097 425.979999,384.296331 425.98,380.99 L425.98,370.13 L499.73,324.88 L499.76,329.77 Z" id="Shape" fill="#6777EF" opacity="0.18"></path>
            <polygon id="Shape" fill="#6777EF" points="215.96 476.3 212.03 477.11 212.03 196.48 215.96 196.48"></polygon>
            <polygon id="Shape" fill="url(#linearGradient-7)" points="215.96 476.3 212.03 477.11 212.03 196.48 215.96 196.48"></polygon>
            <path d="M212.88,308.38 C212.401294,307.795767 211.703363,307.434145 210.95,307.38 C209.81,307.46 209.24,308.8 209.08,309.94 C208.884999,311.202515 208.884999,312.487485 209.08,313.75 C209.67,317.36 211.77,320.52 213.83,323.56 C216.447217,327.598496 219.323236,331.463251 222.44,335.13 C223.786764,336.784216 225.457681,338.145453 227.35,339.13 C229.28462,340.11854 231.58555,340.073497 233.48,339.01 C235.72,337.57 236.4,334.66 236.9,332.01 L238.4,323.96 C238.620123,323.263648 238.620123,322.516352 238.4,321.82 C238.107976,321.293172 237.679698,320.854532 237.16,320.55 C236.539321,320.04645 235.804461,319.703058 235.02,319.55 C232.87,319.32 231.31,321.55 230.76,323.66 C230.21,325.77 230.03,328.1 228.52,329.66 L219.88,319.65 C218.932081,318.759862 218.31201,317.57609 218.12,316.29 C218.214829,315.353643 218.388784,314.426999 218.64,313.52 C218.77,312.59 218.43,311.44 217.52,311.21 C217.338124,311.689512 217.039019,312.115822 216.65,312.45 C215.3,311.32 214.21,309.64 212.88,308.38 Z" id="Shape" fill="url(#linearGradient-8)"></path>
            <path d="M229.88,309.89 L228.93,322.59 C228.660064,323.570097 229.205125,324.589888 230.17,324.91 L238.6,329.69 C240.77,326.18 240.95,321.83 240.9,317.69 C240.93884,314.668745 240.657266,311.651885 240.06,308.69 C239.767328,307.281874 239.24718,305.930841 238.52,304.69 C237.744682,303.438015 236.681948,302.388994 235.42,301.63 C234.55,301.11 229.42,297.63 228.54,298.37 C227.54,299.27 230.73,303.75 230.46,305.03 C230.160302,306.635528 229.96655,308.259034 229.88,309.89 Z" id="Shape" fill="#6777EF"></path>
            <path d="M229.88,309.89 L228.93,322.59 C228.660064,323.570097 229.205125,324.589888 230.17,324.91 L238.6,329.69 C240.77,326.18 240.95,321.83 240.9,317.69 C240.93884,314.668745 240.657266,311.651885 240.06,308.69 C239.767328,307.281874 239.24718,305.930841 238.52,304.69 C237.744682,303.438015 236.681948,302.388994 235.42,301.63 C234.55,301.11 229.42,297.63 228.54,298.37 C227.54,299.27 230.73,303.75 230.46,305.03 C230.160302,306.635528 229.96655,308.259034 229.88,309.89 Z" id="Shape" fill="url(#linearGradient-9)"></path>
            <path d="M216.88,265.76 C216.8438,267.841766 216.071473,269.843437 214.7,271.41 C213.871186,272.100591 213.095652,272.852725 212.38,273.66 C211.18,275.29 211.31,277.5 211.48,279.52 C211.7,282.13 211.93,284.74 212.15,287.36 C210.737194,288.151528 209.398464,289.068557 208.15,290.1 C207.278186,288.446745 206.51977,286.736134 205.88,284.98 C205.273198,283.744233 204.861644,282.421862 204.66,281.06 C204.603421,280.204516 204.64705,279.345351 204.79,278.5 C205.587796,273.284511 207.805419,268.389136 211.2,264.35 C211.093224,264.21844 211.027188,264.058564 211.01,263.89 C210.851168,262.666157 210.908711,261.42392 211.18,260.22 C211.194736,259.978227 211.335168,259.761886 211.55,259.65 C211.81,259.56 212.07,259.8 212.21,260.04 C212.627013,260.7736 212.879513,261.589108 212.95,262.43 C213.966899,261.417583 215.060119,260.484835 216.22,259.64 C216.673362,261.64804 216.894811,263.701471 216.88,265.76 Z" id="Shape" fill="url(#linearGradient-10)"></path>
            <path d="M224.05,299.7 C224.689493,300.479054 225.773559,300.729538 226.69,300.31 C227.678612,299.902469 228.591413,299.331123 229.39,298.62 C229.584709,298.491385 229.751385,298.324709 229.88,298.13 C229.97559,297.919374 230.026656,297.691278 230.03,297.46 C230.13,296.16 230.2,294.85 230.23,293.54 C230.26,292.23 230.18,290.42 229.07,289.47 C228.93528,289.333699 228.765825,289.236867 228.58,289.19 C228.361512,289.16512 228.140241,289.185545 227.93,289.25 C227.067573,289.417808 226.247879,289.75793 225.52,290.25 C224.16,291.25 223.84,293.25 223.78,294.82 C223.73,296.13 223.35,298.52 224.05,299.7 Z" id="Shape" fill="url(#linearGradient-11)"></path>
            <path d="M234.63,281.13 C234.63,281.13 234.91,288.87 233.71,291.35 C232.51,293.83 227.44,293.84 225.51,291.81 C223.58,289.78 221.51,284.08 222.56,279.19 C223.61,274.3 232.88,270.76 234.63,281.13 Z" id="Shape" fill="url(#linearGradient-12)"></path>
            <path d="M228.22,275.77 C226.916476,276.549516 225.977227,277.816242 225.61,279.29 C225.246494,280.751203 225.081676,282.254749 225.12,283.76 L225.07,286.04 C224.572692,285.348709 223.899385,284.803158 223.12,284.46 C222.769585,285.563384 222.870253,286.760623 223.4,287.79 C223.605314,288.098224 223.763709,288.435235 223.87,288.79 C223.989313,289.168711 223.837079,289.580154 223.5,289.79 C222.95,290.05 222.42,289.4 222.15,288.85 C221.08,286.66 219.97,284.28 220.41,281.85 C220.598995,280.969814 220.90505,280.118913 221.32,279.32 C222.199782,277.166944 223.656571,275.298379 225.53,273.92 C227.064045,272.900982 228.981095,272.642917 230.73,273.22 C233.7,274.35 229.17,275.26 228.22,275.77 Z" id="Shape" fill="#3F3D56"></path>
        </g>
    </g>
</svg>