<?xml version="1.0" encoding="UTF-8"?>
<svg width="386px" height="280px" viewBox="0 0 386 280" version="1.1" xmlns="http://www.w3.org/2000/svg" xmlns:xlink="http://www.w3.org/1999/xlink">
    <!-- Generator: Sketch 51.2 (57519) - http://www.bohemiancoding.com/sketch -->
    <title>network_1</title>
    <desc>Created with Sketch.</desc>
    <defs>
        <linearGradient x1="50.5036708%" y1="78.3141828%" x2="51.3402766%" y2="124.824215%" id="linearGradient-1">
            <stop stop-color="#000000" stop-opacity="0" offset="0%"></stop>
            <stop stop-color="#000000" offset="99%"></stop>
        </linearGradient>
        <linearGradient x1="74.6710513%" y1="41.5151927%" x2="-33.3144669%" y2="126.942741%" id="linearGradient-2">
            <stop stop-color="#000000" stop-opacity="0" offset="0%"></stop>
            <stop stop-color="#000000" offset="99%"></stop>
        </linearGradient>
        <linearGradient x1="34.4838408%" y1="-106.449296%" x2="82.3027809%" y2="374.277016%" id="linearGradient-3">
            <stop stop-color="#000000" stop-opacity="0" offset="0%"></stop>
            <stop stop-color="#000000" offset="99%"></stop>
        </linearGradient>
        <linearGradient x1="49.5707071%" y1="-414.054927%" x2="50.7954545%" y2="900.161551%" id="linearGradient-4">
            <stop stop-color="#000000" stop-opacity="0" offset="0%"></stop>
            <stop stop-color="#000000" offset="99%"></stop>
        </linearGradient>
        <linearGradient x1="26.3976945%" y1="-65.5562813%" x2="98.9337176%" y2="289.462225%" id="linearGradient-5">
            <stop stop-color="#000000" stop-opacity="0" offset="0%"></stop>
            <stop stop-color="#000000" offset="99%"></stop>
        </linearGradient>
        <linearGradient x1="56.7873196%" y1="120.579867%" x2="31.6100172%" y2="-5.82227696%" id="linearGradient-6">
            <stop stop-color="#000000" stop-opacity="0" offset="0%"></stop>
            <stop stop-color="#000000" offset="99%"></stop>
        </linearGradient>
        <linearGradient x1="146.41926%" y1="44.7092346%" x2="-15.1660003%" y2="53.5681906%" id="linearGradient-7">
            <stop stop-color="#000000" stop-opacity="0" offset="0%"></stop>
            <stop stop-color="#000000" offset="99%"></stop>
        </linearGradient>
        <linearGradient x1="44.6028159%" y1="-17.0703277%" x2="60.7422214%" y2="183.551353%" id="linearGradient-8">
            <stop stop-color="#FFFFFF" stop-opacity="0" offset="2%"></stop>
            <stop stop-color="#FFFFFF" stop-opacity="0.39" offset="32%"></stop>
            <stop stop-color="#FFFFFF" stop-opacity="0.68" offset="68%"></stop>
            <stop stop-color="#FFFFFF" offset="100%"></stop>
        </linearGradient>
        <linearGradient x1="45.8148804%" y1="33.5664336%" x2="147.785651%" y2="435.198135%" id="linearGradient-9">
            <stop stop-color="#000000" stop-opacity="0" offset="0%"></stop>
            <stop stop-color="#000000" offset="99%"></stop>
        </linearGradient>
        <linearGradient x1="133.288591%" y1="91.3527438%" x2="-166.711409%" y2="-57.135815%" id="linearGradient-10">
            <stop stop-color="#000000" stop-opacity="0" offset="0%"></stop>
            <stop stop-color="#000000" offset="99%"></stop>
        </linearGradient>
    </defs>
    <g id="Page-1" stroke="none" stroke-width="1" fill="none" fill-rule="evenodd">
        <g id="network_1" transform="translate(-20.000000, -13.000000)" fill-rule="nonzero">
            <polygon id="Shape" fill="#6777EF" points="313.37 74.8 211.67 138.8 208.91 134.38 310.61 70.39"></polygon>
            <rect id="Rectangle-path" fill="#6777EF" transform="translate(121.329384, 133.818918) rotate(-66.030000) translate(-121.329384, -133.818918) " x="118.724384" y="87.8639182" width="5.21" height="91.91"></rect>
            <rect id="Rectangle-path" fill="#6777EF" transform="translate(54.221323, 118.886065) rotate(-5.370000) translate(-54.221323, -118.886065) " x="24.9363231" y="60.5760653" width="58.57" height="116.62" rx="10.31"></rect>
            <rect id="Rectangle-path" fill="url(#linearGradient-1)" transform="translate(54.221323, 118.886065) rotate(-5.370000) translate(-54.221323, -118.886065) " x="24.9363231" y="60.5760653" width="58.57" height="116.62" rx="10.31"></rect>
            <rect id="Rectangle-path" fill="#6777EF" transform="translate(54.094615, 117.524200) rotate(-5.370000) translate(-54.094615, -117.524200) " x="24.8096153" y="60.4542005" width="58.57" height="114.14" rx="10.2"></rect>
            <rect id="Rectangle-path" fill="#FFFFFF" transform="translate(53.940305, 114.316837) rotate(-5.370000) translate(-53.940305, -114.316837) " x="27.6003053" y="63.081837" width="52.68" height="102.47" rx="9.17"></rect>
            <path d="M51.6,89.38 C42.3298978,90.2311522 34.4869877,96.5863254 31.7326993,105.478634 C28.9784109,114.370942 31.8559441,124.046647 39.0219348,129.988687 C46.1879255,135.930726 56.2290988,136.967213 64.4577753,132.614267 C72.6864518,128.261321 77.4797742,119.37743 76.6,110.11 C75.4021413,97.4919084 64.2217304,88.2211117 51.6,89.38 Z M55.54,131.23 C48.0136649,131.940934 40.8002307,128.047845 37.2636402,121.366253 C33.7270496,114.684661 34.5638582,106.53055 39.3838253,100.706543 C44.2037923,94.8825349 52.0575924,92.5357083 59.2826521,94.7604916 C66.5077117,96.9852749 71.6810062,103.343482 72.39,110.87 C73.3464856,121.141321 65.8090018,130.248928 55.54,131.23 Z" id="Shape" fill="#6777EF" opacity="0.18"></path>
            <polygon id="Shape" fill="#6777EF" points="54.64 101.73 56.6 122.65 61.74 117.26 57.97 117.61 56.47 101.68"></polygon>
            <polygon id="Shape" fill="#6777EF" points="54.82 122.82 52.85 101.9 47.72 107.29 51.48 106.94 52.98 122.87"></polygon>
            <g id="TWXE3W" transform="translate(140.000000, 92.000000)">
                <path d="M66.5,0.87 C30.0979971,0.848025279 0.564337097,30.3281305 0.520242522,66.7301134 C0.476147947,103.132096 29.9383015,132.683664 66.3402508,132.749879 C102.7422,132.816093 132.311666,103.371902 132.4,66.97 C132.593898,49.415212 125.719666,32.5200197 113.324622,20.0873583 C100.929579,7.65469685 84.055295,0.729298628 66.5,0.87 Z M76.28,31.24 C76.2548755,31.0539412 76.2899158,30.8647238 76.38,30.7 C76.57,30.42 76.78,30.06 77.06,29.99 C77.34,29.92 77.61,30.21 77.99,30.4 C77.3,31.11 77.59,31.5 78.2,31.81 C78.3467967,31.8815699 78.4738307,31.9880038 78.57,32.12 C78.7283586,32.6003875 78.9431958,33.0602733 79.21,33.49 C79.6240292,33.8237664 80.085849,34.0934422 80.58,34.29 C80.1761174,34.6515123 79.7484954,34.985592 79.3,35.29 C78.8680142,35.5583649 78.3999709,35.7637652 77.91,35.9 C77.511005,35.9401005 77.108995,35.9401005 76.71,35.9 C76.7180912,35.8268899 76.7180912,35.7531101 76.71,35.68 L77.55,35.16 C77.25,34.79 76.82,34.5 76.78,34.16 C76.74,33.82 77.15,33.47 77.39,33.07 C77.01,32.46 76.45,32.18 76.06,32.44 C74.89,33.22 74.81,33.44 75.34,34.28 C74.58,34.58 73.85,34.86 73.07,35.13 C72.91,34.34 73.83,33.62 73.07,32.91 C73.3869389,32.3689636 73.9731901,32.0432685 74.6,32.06 C74.91,32.06 75.21,32.06 75.5,32.06 C75.98,31.98 76.34,31.84 76.28,31.24 Z M57.38,14.42 C58.92,14.65 60.47,14.75 62.01,14.87 C62.5819631,14.9935768 63.1764395,14.8030395 63.57,14.37 C63.75,14.16 64.16,14.12 64.47,14.07 C65.67,13.88 66.89,13.66 68.1,13.53 C68.7378342,13.4748306 69.3801797,13.5050982 70.01,13.62 C71.49,13.85 73.01,14.14 74.44,14.4 C74.6771033,14.4384645 74.8987579,14.5423651 75.08,14.7 C74.47,14.7 73.85,14.77 73.24,14.84 C72.8513602,14.8692612 72.4698885,14.9604093 72.11,15.11 C71.56,15.39 71.05,15.69 71.02,16.5 C71.0088423,17.3143748 70.443399,18.0160197 69.65,18.2 C68.8433573,18.4840711 68.0551683,18.8180495 67.29,19.2 C66.89,19.39 66.89,19.62 67.29,19.85 C67.84,20.16 68.4,20.45 69.01,20.85 C68.07,21.21 68.07,21.21 66.11,20.31 L66.94,21.7 C65.69,22.03 64.39,22.4 63.09,22.7 C61.8786998,22.9110222 60.7460825,23.4427999 59.81,24.24 C58.8662851,24.9189503 57.7419449,25.3018525 56.58,25.34 C55.97,25.46 55.49,25.56 55.49,26.34 C55.49,26.63 55.21,26.96 54.97,27.21 C54.6423256,27.5031792 54.2873782,27.7643669 53.91,27.99 C53.2800337,28.441516 52.4499495,28.5012201 51.761851,28.1445064 C51.0737524,27.7877928 50.6441128,27.0750416 50.65,26.3 C50.5724976,25.8915116 50.5489631,25.4746156 50.58,25.06 C50.7087762,24.5864679 50.8934059,24.1299292 51.13,23.7 C51.2650947,23.5142961 51.4229994,23.3463124 51.6,23.2 C53.3,21.36 52.92,19.42 50.73,18.2 C49.8103172,17.6619015 48.7886053,17.3213309 47.73,17.2 C47.3536694,17.0954406 46.9983802,16.9262553 46.68,16.7 C48.14,16.46 49.55,16.27 50.94,16.01 C51.5343653,15.8522184 52.1133581,15.6413713 52.67,15.38 C54.1307129,14.6585093 55.753432,14.327764 57.38,14.42 Z M71.82,24.42 C71.8153071,24.7595561 71.6526251,25.0775255 71.38,25.28 C70.8189506,25.6255214 70.2262759,25.916836 69.61,26.15 C69.0572597,26.437975 68.3774488,26.2859676 68,25.79 C67.81,25.56 67.41,25.49 67.11,25.35 C67.11,25.27 67.11,25.2 67.04,25.13 C67.34,25.01 67.62,24.85 67.91,24.76 C68.85,24.5 69.77,24.26 70.69,24.03 C71.13,23.93 71.66,23.93 71.82,24.42 Z M38.98,16.48 C39.41,16.35 39.87,16.26 40.32,16.14 C40.77,16.02 41.38,15.91 41.58,15.25 C41.7012027,14.9690275 41.9443776,14.7590129 42.24,14.68 C42.47,14.68 42.68,14.59 42.9,14.56 C43.58,14.42 44.29,14.32 44.99,14.21 C45.5496835,14.1827327 46.1055124,14.1023719 46.65,13.97 C47.6646713,13.5752231 48.7536225,13.4079548 49.84,13.48 C50.19,13.48 50.52,13.41 50.84,13.4 C51.16,13.39 51.48,13.4 51.84,13.4 C51.8296341,13.4796642 51.8296341,13.5603358 51.84,13.64 C50.683176,14.5676435 49.3045141,15.1777014 47.84,15.41 C45.8126128,15.7459594 43.8778773,16.5021412 42.16,17.63 C41.63,17.98 41.07,18.26 40.65,17.44 C40.58,17.28 40.26,17.19 40.04,17.16 C39.5061159,17.1133733 38.9773943,17.0196758 38.46,16.88 C38.6119557,16.7209679 38.7873112,16.5860791 38.98,16.48 Z M35.49,18.38 C35.44,18.38 35.41,18.32 35.32,18.27 C35.82,17.42 36.38,17.16 37.25,17.56 C38.091889,17.9916783 39.0718269,18.0673353 39.97,17.77 C40.0215669,17.8114947 40.0685053,17.8584331 40.11,17.91 C39.97,18.1 39.88,18.38 39.71,18.45 C39.29,18.62 38.82,18.65 38.39,18.81 C38.1880214,18.8870943 38.0329982,19.0531906 37.97,19.26 C37.97,19.37 38.18,19.63 38.34,19.68 L38.91,19.83 C40.44,20.29 41.97,20.68 43.51,21.14 C43.6599461,21.2319841 43.7677013,21.3792495 43.81,21.55 C43.7978303,21.7799561 43.7609513,22.0079351 43.7,22.23 C43.42,23.46 43.75,23.91 45.02,23.93 C45.0438366,24.3701822 44.7418499,24.7614889 44.31,24.85 C43.48,25.06 42.66,25.32 41.86,25.58 C41.48,25.7 41.08,25.82 41.2,26.38 C41.1937376,26.5122152 41.1320147,26.6356609 41.03,26.72 C40.3000549,27.2010276 39.345996,27.1689584 38.65,26.64 C38.3627467,26.3093934 38.274747,25.8501792 38.4194296,25.4368004 C38.5641122,25.0234215 38.9192745,24.719314 39.35,24.64 C39.83,24.52 40.35,24.49 40.84,24.35 C41.0678397,24.2981741 41.2657141,24.1578632 41.39,23.96 C41.44,23.84 41.24,23.57 41.08,23.41 C40.1258771,22.5204253 38.9281995,21.935513 37.64,21.73 C37.2494238,21.6624673 36.8555353,21.6157348 36.46,21.59 C35.53,21.53 34.59,21.43 33.65,21.33 C33.25,21.27 32.75,21.33 32.72,20.72 C32.6738638,20.4646262 32.7469145,20.2021665 32.9183527,20.0073504 C33.0897909,19.8125343 33.3408328,19.7067068 33.6,19.72 C34.2238167,19.7023081 34.8454904,19.6388038 35.46,19.53 C35.74,19.53 36.13,19.29 36.17,19.1 C36.26,18.7 35.98,18.38 35.49,18.38 Z M43.65,36.6 C43.89,36.88 44.33,37.31 44.26,37.54 C44.1128319,38.009154 43.6464376,38.3017104 43.16,38.23 C42.3209692,38.1185756 41.4762617,38.0551391 40.63,38.04 C41.3565,36.9934132 42.3859483,36.1942821 43.58,35.75 C43.37,35.94 43.22,36.08 42.99,36.27 C43.2285637,36.3381119 43.4523722,36.4500162 43.65,36.6 Z M46.01,95.36 C45.3273232,95.7964446 44.7023954,96.3172177 44.15,96.91 C43.8269892,97.4272034 43.6157955,98.0062828 43.53,98.61 C43.3017556,99.70866 43.0010995,100.791022 42.63,101.85 C42.36,102.46 41.63,102.85 41.17,103.4 C40.4473139,104.376141 39.1017622,104.644386 38.06,104.02 C37.8,104.77 38.3,105.24 38.6,105.76 C39.05,106.55 39.05,106.55 38.29,107.09 C37.53,107.63 36.97,108.17 36.29,108.74 C35.8076389,109.183008 35.6111563,109.857213 35.78,110.49 C35.7707957,111.046663 35.6969677,111.600373 35.56,112.14 C35.4724323,112.421428 35.431888,112.715374 35.44,113.01 C35.5,113.58 35.68,114.14 35.75,114.71 C35.87,115.71 35.94,116.64 36.03,117.59 C36.03,117.96 36.16,118.18 36.6,118.22 C36.77,118.22 37,118.44 37.08,118.62 C37.34,119.15 37.57,119.71 37.8,120.25 C37.4984233,120.480192 37.1172718,120.580131 36.7415459,120.527529 C36.3658199,120.474928 36.0267674,120.27416 35.8,119.97 C35.4533237,119.312506 34.8819472,118.801462 34.19,118.53 C33.0611864,118.035495 32.1511322,117.14677 31.63,116.03 C31.03,114.83 30.35,113.79 30.54,112.3 C30.7674749,111.34891 30.2476475,110.377993 29.33,110.04 C29.15,109.99 29.03,109.63 29,109.4 C28.89,108.46 28.84,107.51 28.75,106.57 C28.56,104.57 28.32,102.57 28.2,100.57 C28.11,99.08 28.2,97.57 28.2,96.08 C28.2,95.4 28.2,94.73 28.2,94.08 C28.0598615,92.3007848 26.840036,90.7909032 25.13,90.28 C24.184985,90.0962135 23.5221811,89.2409827 23.58,88.28 C23.6192236,87.4380363 23.1559432,86.6528153 22.4,86.28 C21.4040476,85.7266627 20.6513181,84.8205334 20.29,83.74 C20.1547596,83.4186234 19.9537892,83.1290898 19.7,82.89 C19.1538263,82.3802721 18.9212648,81.6177751 19.09,80.89 C19.1165025,80.3944389 19.0829249,79.8974917 18.99,79.41 C18.9163633,79.0820422 18.8861047,78.7458357 18.9,78.41 C19.0335722,77.4512373 19.3748518,76.5331954 19.9,75.72 C20.4996164,74.8571898 20.9900188,73.92341 21.36,72.94 C21.7918229,71.8587918 21.4332777,70.6224291 20.49,69.94 C20.1788396,69.7822781 19.8153414,69.7641032 19.49,69.89 C18.8511404,70.3054086 18.0163051,70.2567774 17.43,69.77 C16.2003682,68.9917386 15.1914207,67.9104775 14.5,66.63 C14.3759339,66.4466879 14.1975943,66.3068136 13.99,66.23 C13.6931763,66.1108728 13.3792123,66.0399777 13.06,66.02 C12.1895723,65.9632302 11.3770254,65.5641474 10.8,64.91 C10.1061742,64.1786879 9.11305076,63.8094971 8.11,63.91 C7.97225865,63.9455647 7.82774135,63.9455647 7.69,63.91 C5.69752986,63.4043275 3.87960835,62.3674901 2.43,60.91 C2.0056853,60.3361582 1.84236292,59.6102809 1.98,58.91 C2.5006331,54.8984672 3.40819509,50.9467213 4.69,47.11 C6.62907237,41.1952005 9.42914809,35.5984186 13,30.5 C14.32,28.59 15.85,26.8 17.29,24.96 C17.5,24.68 17.72,24.55 18.04,24.77 C18.469912,25.0372026 18.9916822,25.1132941 19.48,24.98 C20.66,24.84 21.85,24.89 23,24.65 C24.3887776,24.3496452 25.7476205,23.9245884 27.06,23.38 C28.03995,22.8136823 28.7067962,21.8299921 28.87,20.71 C28.95,20.41 29.06,20.1 29.16,19.79 C29.51,18.66 29.51,18.66 30.67,18.92 L33.06,19.46 C32.39,19.7 31.69,19.93 31.06,20.21 C30.66,20.35 30.61,20.62 30.88,20.95 C31.37,21.53 31.8,22.12 32.29,22.67 C32.43,22.81 32.78,22.93 32.9,22.86 C33.9,22.27 34.9,22.53 35.95,22.45 C35.6848234,22.9100226 35.369573,23.3392998 35.01,23.73 C34.6373052,24.0048324 34.2060474,24.1896572 33.75,24.27 C32.55,24.51 31.33,24.67 30.14,24.86 C30.0224624,25.6998781 29.2873856,26.3138835 28.44,26.28 C26.8845478,26.5356629 25.4267559,27.2058326 24.22,28.22 C23.3335879,28.7081707 22.9514781,29.7815128 23.33,30.72 C23.46,31.11 23.58,31.59 24.2,31.28 C24.29,31.28 24.5,31.28 24.62,31.4 C25.21,31.7 25.76,32.02 26.34,32.32 C26.92,32.62 27.34,32.93 27.93,32.7 C28.07,32.7 28.26,32.79 28.26,32.77 C28.11,33.77 27.95,34.59 27.78,35.55 C28.4543809,35.5771965 29.0930475,35.2464584 29.46,34.68 C30.59,33.07 31.77,31.5 32.91,29.92 C33.0986022,29.6972658 33.2691427,29.4598467 33.42,29.21 C34.0740371,27.9251255 35.5362372,27.2710929 36.93,27.64 C37.71,27.77 38.25,27.94 38.18,28.88 C38.18,29.02 38.54,29.26 38.75,29.29 C39.69,29.4 40.16,29.29 41.75,28.58 C41.8103013,28.7245696 41.8539165,28.8755453 41.88,29.03 C41.9048621,29.2392641 41.9048621,29.4507359 41.88,29.66 C41.4624582,31.2789402 42.3216392,32.9543432 43.88,33.56 L44.19,33.72 C43.0485131,34.8030978 41.5608543,35.44775 39.99,35.54 C38.8996099,35.5378123 37.8275591,35.8204752 36.88,36.36 C36.0884789,36.7325771 35.2693792,37.0435007 34.43,37.29 C34.1427866,37.471752 33.880565,37.69027 33.65,37.94 L33.76,38.14 L36.86,37.87 C36.74,38.63 36.86,39.08 37.66,39.15 C37.96,39.15 38.22,39.58 38.6,39.9 C37.26,40.16 36.6,41.63 34.89,41.27 C35.41,40.8 35.81,40.42 36.22,40.04 C35.6,39.34 35.44,39.27 34.61,39.79 C33.78,40.31 33.05,40.94 32.27,41.51 C32.06,41.67 31.87,41.91 31.64,41.94 C30.27,42.2 29.59,43.33 28.71,44.22 C28.6517789,44.2882472 28.5882472,44.3517789 28.52,44.41 C28.1702646,44.8850528 27.6286476,45.1814782 27.04,45.22 C26.7676507,45.2211065 26.504864,45.3205393 26.3,45.5 C26.0614717,45.7130892 25.9056788,46.0034306 25.86,46.32 C25.9682869,47.5021756 25.3246282,48.62558 24.25,49.13 C23.2917783,49.6420669 22.3785307,50.2341725 21.52,50.9 C20.7876964,51.6622214 20.5828658,52.7887899 21,53.76 C21.3295002,54.435283 21.3295002,55.224717 21,55.9 C20.93,56.07 20.53,56.21 20.27,56.21 C20.01,56.21 19.86,55.97 19.8,55.78 C19.6,54.93 19.44,54.04 19.23,53.17 C19.113292,52.8765388 18.96224,52.5979318 18.78,52.34 C18.7213041,52.3580638 18.664397,52.3814961 18.61,52.41 C18.61,52.74 18.61,53.07 18.61,53.41 C18.5592682,53.4578074 18.5020358,53.4982067 18.44,53.53 C18.22,53.29 18.01,53.03 17.76,52.8 C17.4369746,52.4910711 17.0776866,52.2224446 16.69,52 C16.2660276,51.8112069 15.7680161,51.9757672 15.54,52.38 C15.13,52.94 14.64,53.44 14.21,53.95 C13.8571963,53.515535 13.4799178,53.1015304 13.08,52.71 C12.9016605,52.5710648 12.6718146,52.5163396 12.45,52.56 C11.6202371,52.6856728 10.8675417,53.1173133 10.34,53.77 C9.77624022,54.443799 9.15379896,55.0662402 8.48,55.63 C7.82235103,56.0711554 7.62468357,56.9496774 8.03,57.63 C8.12899504,57.9158124 8.15309494,58.2222254 8.1,58.52 C7.78482636,60.1862297 8.80372699,61.8147289 10.44,62.26 C11.3015032,62.5587879 12.2522394,62.1852844 12.68,61.38 C12.85,61.01 12.97,60.62 13.15,60.23 C13.2185918,60.0021798 13.3816524,59.8147492 13.5977877,59.7152887 C13.813923,59.6158281 14.0623486,59.6139023 14.28,59.71 C14.5503989,59.9921947 14.6758071,60.3831732 14.62,60.77 C14.4703151,61.4202406 14.273119,62.0586213 14.03,62.68 C13.81,63.39 13.96,63.68 14.71,63.88 C15.25,63.98 15.8,64.05 16.36,64.12 C16.659568,64.115099 16.9455503,64.2447748 17.1392535,64.4733445 C17.3329566,64.7019142 17.4139695,65.0052928 17.36,65.3 C17.3030343,66.1103242 17.3264821,66.9242988 17.43,67.73 C17.5573692,68.2066437 17.8133705,68.6390784 18.17,68.98 C18.4209924,69.1520786 18.7442377,69.1786988 19.02,69.05 C19.51125,68.7315033 20.1267089,68.6718225 20.67,68.89 C20.8842989,68.9716808 21.1050733,69.035237 21.33,69.08 C22.33,69.33 22.58,69.15 23.26,68.43 C23.695219,68.0131569 24.1993329,67.6748255 24.75,67.43 C24.9230978,67.3827863 25.1083071,67.4281437 25.24,67.55 C25.3239574,67.6954185 25.3239574,67.8745815 25.24,68.02 C24.69,68.51 24.98,68.75 25.47,68.96 L26.63,69.44 C25.88,68.23 26.87,67.81 27.32,67.08 C27.4967735,67.1937164 27.6670401,67.3172432 27.83,67.45 C28.4812914,68.1572997 29.4215249,68.5260187 30.38,68.45 L30.52,68.45 C31.7951316,68.4717413 33.0156432,68.9713659 33.94,69.85 C35.2307744,70.9705319 36.7810482,71.750825 38.45,72.12 C39.1403091,72.2188319 39.7534976,72.6130244 40.13,73.2 C40.42,73.7 40.82,74.2 41.13,74.67 C41.4214526,74.9238952 41.5404832,75.3230232 41.4357073,75.6950843 C41.3309315,76.0671453 41.021114,76.3455057 40.64,76.41 L39.86,76.79 C40.07,77.19 40.31,77.31 40.69,77.09 C40.9691318,76.925499 41.2730684,76.8073014 41.59,76.74 C41.8386135,76.7705286 42.0686376,76.8873101 42.24,77.07 C42.24,77.07 42.13,77.35 42.08,77.5 C42.03,77.65 41.98,77.88 42.01,77.9 C42.154577,77.9953802 42.3277103,78.0377802 42.5,78.02 C42.6401905,78.0060524 42.7693793,77.9378694 42.86,77.83 C43.1334629,77.5166113 43.529074,77.3367708 43.945,77.3367708 C44.360926,77.3367708 44.7565371,77.5166113 45.03,77.83 C45.12,77.92 45.29,77.97 45.29,78.04 C45.39,79.18 46.18,78.72 46.66,78.52 C47.1478042,78.3430891 47.6870364,78.3756602 48.15,78.61 C49.35,79.13 50.6,79.55 51.85,79.98 C52.2303553,80.0850402 52.4979315,80.4255916 52.51,80.82 C52.7752365,82.7737084 52.1598571,84.7443877 50.83,86.2 C50.7280028,86.3295264 50.5934067,86.4296106 50.44,86.49 C49.89,86.73 49.85,87.18 49.84,87.69 C49.8417899,88.9657388 49.7783738,90.2407353 49.65,91.51 C49.4870465,92.2929334 49.217891,93.0499333 48.85,93.76 C48.57,94.33 48.29,94.94 47.37,94.76 C47.0769313,94.7538233 46.7907489,94.8492174 46.56,95.03 C46.36,95.12 46.18,95.26 46.01,95.36 Z M115.13,90.21 C114.62,91.47 114.31,92.84 113.88,94.15 C113.735808,94.539942 113.547945,94.9123118 113.32,95.26 C112.68,96.47 112.68,96.47 111.32,96.26 C110.811096,96.0935501 110.390184,95.7299942 110.151483,95.2507126 C109.912782,94.771431 109.876226,94.2164502 110.05,93.71 C110.389558,93.2762737 110.674996,92.8027837 110.9,92.3 C111.025035,91.7537301 111.025035,91.1862699 110.9,90.64 C110.855571,89.8344833 111.324672,89.0887341 112.07,88.78 C112.264264,88.7566916 112.446228,88.6727081 112.59,88.54 C113.25,87.88 113.91,87.2 114.53,86.54 C114.67755,86.3273738 114.801609,86.0993744 114.9,85.86 C115.32,87.27 115.72,88.7 115.13,90.21 Z M127.64,56.26 C127.260211,55.7651935 126.650231,55.5037736 126.03,55.57 C123.86,55.86 121.83,55.19 119.8,54.57 C118.385289,54.179663 117.037005,53.5796766 115.8,52.79 C114.782844,52.2427991 113.680745,51.8709253 112.54,51.69 C112.607281,51.8628342 112.647748,52.0449371 112.66,52.23 C112.4,53.81 113.58,54.56 114.5,55.46 C114.9,55.84 115.26,56.24 115.7,56.69 L118.42,55.96 C119.097784,55.7103569 119.856513,55.9901116 120.21,56.62 C120.679939,57.1870597 121.187769,57.7216179 121.73,58.22 C122.22,58.76 122.1,58.9 121.54,59.31 C120.16,60.31 118.54,61.07 117.54,62.49 C117.402916,62.6699249 117.233321,62.8225604 117.04,62.94 C116.17,63.51 115.29,64.05 114.42,64.62 C113.809802,64.9667575 113.078758,65.0302872 112.417891,64.7939887 C111.757023,64.5576903 111.231996,64.0450422 110.98,63.39 C110.601655,62.1028753 109.950179,60.912482 109.07,59.9 C108.650352,59.280101 108.31413,58.6076581 108.07,57.9 C107.722033,57.1105274 107.09549,56.4768655 106.31,56.12 C105.617172,55.8491449 105.084117,55.2793273 104.86,54.57 C104.51,53.57 104.02,52.63 103.61,51.65 C102.61,52.05 102.61,52.05 102.9,53.03 C103.382348,54.687343 104.106832,56.2643587 105.05,57.71 C106.52,60.04 108.24,62.26 109.16,64.91 C109.4,65.61 109.58,66.34 109.85,67.01 C110.27,68.01 110.72,68.14 111.68,67.59 C111.76957,67.5174434 111.876344,67.4692227 111.99,67.45 L115.7,67.45 C115.558094,68.4607464 115.357758,69.4624241 115.1,70.45 C114.892242,71.2725709 114.491126,72.0336637 113.93,72.67 C113.078317,73.4083839 112.168729,74.0771991 111.21,74.67 C110.965471,74.8208626 110.76263,75.0305792 110.62,75.28 C109.56,77.28 108.55,79.2 107.49,81.14 C107.23,81.63 107.15,82.03 107.49,82.44 C108.95,84.01 108.49,85.93 108.55,87.77 C108.55,87.98 108.22,88.24 107.97,88.38 C106.788112,88.9095258 105.731642,89.6831347 104.87,90.65 C104.526971,91.068465 104.287181,91.5617481 104.17,92.09 C103.987667,93.6701227 103.480366,95.1954285 102.68,96.57 C101.5,98.57 100.46,100.68 99.38,102.75 C99.2016455,103.216466 98.768283,103.536608 98.27,103.57 L95.13,103.7 C94.68,103.7 94.23,103.84 93.76,103.87 C93.5355977,103.901721 93.3079835,103.840302 93.13,103.7 C92.74,103.41 92.42,103.06 92.13,102.8 C92.1415473,101.748413 91.8722855,100.712791 91.35,99.8 C91.1487529,99.4453196 90.9143736,99.1104919 90.65,98.8 C89.9727365,97.8123254 89.600655,96.6473973 89.58,95.45 C89.5238195,94.7690924 89.315351,94.1095118 88.97,93.52 C88.185954,92.3165503 87.692934,90.94705 87.53,89.52 C87.5340376,88.719818 87.683115,87.926997 87.97,87.18 C88.0713593,86.8524223 88.208873,86.5371471 88.38,86.24 C88.6930136,85.5985715 88.7502178,84.8620678 88.54,84.18 C88.0202267,81.7979763 86.9973841,79.5545415 85.54,77.6 C85.2004382,77.0516443 85.2004382,76.3583557 85.54,75.81 C85.75,75.36 86.02,74.93 86.28,74.49 C86.54,74.05 86.53,73.8 86.06,73.63 C85.5934285,73.4991937 85.2457966,73.108596 85.17,72.63 C85.17,72.49 84.77,72.29 84.58,72.3 C83.6520031,72.4055125 82.7278041,72.0728008 82.08,71.4 C81.75,71.07 81.03,71.07 80.47,71.04 C80.0571587,71.0608702 79.6495529,71.1417176 79.26,71.28 L73.61,72.63 C72.6919154,72.8429542 71.7306165,72.540394 71.1,71.84 C70.9334001,71.6491937 70.745511,71.4780804 70.54,71.33 C69.7204255,70.8285035 69.2061771,69.9501523 69.17,68.99 C69.1061118,68.5568238 68.8331079,68.1828458 68.44,67.99 C66.73,67.44 66.5,65.89 66.03,64.54 C65.9732683,64.1180374 66.0926053,63.6913171 66.36,63.36 C66.7974911,62.9576585 66.9230284,62.3178232 66.67,61.78 C66.0444415,60.3548156 66.1837287,58.7097205 67.04,57.41 C67.4733043,56.4588153 68.1407813,55.6330705 68.98,55.01 C69.31,54.81 69.4,54.23 69.71,54.01 C70.6540029,53.1352905 71.3184902,52.0011395 71.62,50.75 C71.8881925,50.239155 72.2674925,49.7949299 72.73,49.45 C73.41,48.79 74.15,48.2 74.83,47.54 C75.21,47.19 75.47,47.16 75.75,47.64 C75.8691869,47.8324635 76.0740913,47.9554062 76.3,47.97 C77.3,47.85 78.39,47.7 79.43,47.56 C79.7365967,47.4669912 80.0513489,47.4033711 80.37,47.37 C81.8740471,47.4062802 83.3651317,47.0840688 84.72,46.43 C85.0502068,46.3261641 85.4074796,46.3511732 85.72,46.5 C85.83,46.55 85.83,46.97 85.81,47.21 C85.8185626,47.9333873 86.1714123,48.6093731 86.76,49.03 L88.29,50.51 C88.4,50.59 88.5,50.73 88.62,50.75 C89.62,50.92 90.7,51.11 91.76,51.2 C92.28,51.25 92.63,51.01 92.76,50.37 C92.9,49.9 93.46,49.53 93.82,49.12 C93.8411467,49.1966507 93.8713601,49.2705056 93.91,49.34 C94.1269653,49.5729567 94.3721998,49.7778786 94.64,49.95 C95.209055,50.2561985 95.8091066,50.5009122 96.43,50.68 C96.8843758,50.7446885 97.3456242,50.7446885 97.8,50.68 C98.0527229,50.6551292 98.3072771,50.6551292 98.56,50.68 C99.65,50.84 100.75,50.98 101.84,51.2 C102.205117,51.2933532 102.59171,51.1735094 102.84,50.89 C103.833299,50.388344 104.319359,49.2429316 103.99,48.18 C103.88345,47.7187367 103.806625,47.2511082 103.76,46.78 C103.067213,46.5142201 102.2913,46.5767344 101.65,46.95 C100.870753,47.4682697 99.8363022,47.3768724 99.16,46.73 C98.0603097,46.0475606 97.2572285,44.9767857 96.91,43.73 C97.97,44.25 98.4,43.6 98.91,42.65 C97.59,42.96 96.4,43.21 95.23,43.54 C94.9967907,43.5958517 94.8051043,43.7612485 94.7157009,43.9837637 C94.6262974,44.206279 94.6502626,44.4583215 94.78,44.66 C94.8694579,44.7922413 94.9117334,44.9507744 94.9,45.11 C94.8559436,45.3741429 94.7821408,45.6324526 94.68,45.88 C94.35,45.74 93.86,45.69 93.68,45.43 C93.44,45.01 93.35,44.54 92.82,44.37 C92.7360485,44.3297426 92.6765308,44.2516256 92.66,44.16 C92.76,43.05 91.78,42.51 91.32,41.7 C91.22,41.5 90.82,41.38 90.54,41.37 C89.8121323,41.366894 89.1290896,41.0179483 88.7,40.43 C88.5433808,40.1741536 88.3398064,39.9502217 88.1,39.77 C87.73,39.49 87.28,39.3 86.93,39.72 C86.7444319,39.8850909 86.6382733,40.1216242 86.6382733,40.37 C86.6382733,40.6183758 86.7444319,40.8549091 86.93,41.02 C87.5653639,41.7837067 88.3746795,42.3838348 89.29,42.77 C89.92,42.96 90.21,43.54 90.51,44.09 C89.19,44.8 88.32,44.56 87.61,43.36 C87.3826935,43.0355117 87.1320289,42.7280298 86.86,42.44 C86.4202714,41.8686302 85.9389635,41.3305013 85.42,40.83 C84.73,40.2 83.36,40.15 83.2,41.37 C83.1758715,41.4989119 83.142451,41.6259098 83.1,41.75 L82.63,41.61 C81.8148983,41.2612085 80.8698654,41.6189079 80.49,42.42 C80.32,42.68 80.06,42.91 79.87,43.15 C79.6743451,43.3394538 79.5150496,43.5631454 79.4,43.81 C79.1745889,44.8064526 78.3964526,45.5845889 77.4,45.81 C76.0791124,46.0385693 74.7404876,46.1490059 73.4,46.14 C73.19,46.14 72.84,45.77 72.82,45.57 C72.7101964,44.6566216 72.7101964,43.7333784 72.82,42.82 C73.0167443,41.8870005 73.8683874,41.2397517 74.82,41.3 C75.74,41.3 76.66,41.3 77.6,41.3 C77.94,41.3 78.17,41.19 78.13,40.78 C78.1150371,40.6170094 78.1150371,40.4529906 78.13,40.29 C78.32,39.2 78.27,39.07 77.28,38.48 C76.99,38.31 76.66,38.19 76.36,38.02 C76.22,37.93 76.03,37.76 76.05,37.65 C76.0890074,37.4758527 76.2130384,37.3330292 76.38,37.27 C76.7285185,37.1671889 77.0873917,37.1034637 77.45,37.08 C78.9487102,37.1425136 80.3330786,36.2817458 80.94,34.91 C81.2422039,34.1410093 81.9481243,33.6048184 82.77,33.52 C84.08,33.31 84.33,32.98 84.5,31.61 C84.5861281,31.2640573 84.7102142,30.9286894 84.87,30.61 L85.14,30.61 C85.3601783,31.0728544 85.5473128,31.5507155 85.7,32.04 C85.7713687,32.5598666 86.1801334,32.9686313 86.7,33.04 C87.2023247,33.0850625 87.7076753,33.0850625 88.21,33.04 C89.08,32.93 89.93,32.76 90.8,32.64 C91.11,32.64 91.3,32.64 91.41,32.17 C91.52,31.7 91.91,31.55 92.21,31.27 C92.51,30.99 92.9,30.83 92.92,30.27 C93.105626,29.653443 93.6663018,29.2258773 94.31,29.21 C94.5850453,29.2756098 94.8246829,29.4437138 94.98,29.68 C95.1527123,29.9961998 95.2869987,30.3319158 95.38,30.68 C96.3072256,29.8554766 96.693575,28.5805236 96.38,27.38 C96.0341836,27.4857733 95.6793468,27.5594187 95.32,27.6 C94.819105,27.6700656 94.310895,27.6700656 93.81,27.6 C92.37,27.28 92.16,26.6 92.93,25.41 C93.19,24.99 93.5,24.13 93.36,24.04 C92.82,23.64 92.36,24.14 91.94,24.49 C90.9856458,25.235657 90.2867235,26.2595781 89.94,27.42 C89.6750337,28.4373022 89.2569218,29.4084009 88.7,30.3 C88.47,30.69 87.76,30.84 87.24,30.91 C87.05,30.91 86.75,30.49 86.54,30.22 C86.3457321,29.9238152 86.1687696,29.6166349 86.01,29.3 C85.9733144,29.3683954 85.9495827,29.4429809 85.94,29.52 L82.88,29.68 C82.8312398,29.5392569 82.7911644,29.3956536 82.76,29.25 C82.31,27.04 82.12,27.34 84.24,26.5 C84.8667177,26.1321131 85.4277372,25.6623438 85.9,25.11 C86.39,24.7 86.9,24.28 87.34,23.87 C87.4361602,23.7971388 87.5234253,23.7132301 87.6,23.62 C89.04,21.7 91.19,21.38 93.35,21.04 C95.51,20.7 97.16,21.56 99.02,22.04 L102.11,22.94 C100.7,24.07 99.42,22.94 98.22,23.15 C98.22,23.22 98.14,23.29 98.15,23.31 C98.8395382,24.0579821 99.5778178,24.7595148 100.36,25.41 C100.650919,25.5565068 100.993043,25.5611258 101.28781,25.4225264 C101.582578,25.2839269 101.797257,25.0175001 101.87,24.7 C101.99,24.26 102.18,24.05 102.63,24.05 C103.223827,24.041967 103.755343,23.679749 103.98,23.13 C104.21,22.67 104.52,22.46 104.98,22.65 C104.91,23.19 105.15,23.43 105.67,23.26 C105.872758,23.1952598 106.064833,23.100907 106.24,22.98 C106.856737,22.593126 107.586666,22.4273932 108.31,22.51 C109.33434,22.4536094 110.344977,22.248113 111.31,21.9 C112.21,21.66 112.7,21.75 113.17,22.25 C117.425136,26.6711068 121.040236,31.6662722 123.91,37.09 C127.325233,43.5317068 129.618035,50.5081839 130.69,57.72 C130.700062,57.7963365 130.700062,57.8736635 130.69,57.95 C129.19,58.33 128.46,57.15 127.61,56.26 L127.64,56.26 Z" id="Shape" fill="#6777EF"></path>
                <path d="M130.8,57.99 C129.18,58.33 128.45,57.15 127.6,56.26 C127.222732,55.7619603 126.610835,55.4997188 125.99,55.57 C123.82,55.87 121.8,55.19 119.76,54.57 C118.344668,54.1766848 116.996336,53.5733059 115.76,52.78 C114.750331,52.2277104 113.64941,51.8618657 112.51,51.7 C112.572895,51.8706915 112.613236,52.0488639 112.63,52.23 C112.37,53.81 113.54,54.56 114.47,55.46 C114.86,55.83 115.23,56.24 115.67,56.69 L118.4,55.96 C119.074894,55.716016 119.827313,55.9950029 120.18,56.62 C120.647361,57.1893426 121.155357,57.7240757 121.7,58.22 C122.2,58.76 122.08,58.9 121.51,59.31 C120.13,60.31 118.51,61.06 117.51,62.48 C117.367796,62.6615938 117.195253,62.8172213 117,62.94 L114.37,64.62 C113.762619,64.967106 113.034019,65.0319226 112.374903,64.7974849 C111.715787,64.5630471 111.191768,64.0526927 110.94,63.4 C110.563623,62.1111412 109.915783,60.9177524 109.04,59.9 C108.624823,59.2774951 108.288898,58.6056443 108.04,57.9 C107.701764,57.1073742 107.076763,56.4716582 106.29,56.12 C105.597172,55.8491449 105.064117,55.2793273 104.84,54.57 C104.5,53.57 104.01,52.57 103.58,51.65 C102.58,52.05 102.58,52.05 102.87,53.02 C103.356194,54.6807675 104.083981,56.261007 105.03,57.71 C106.51,60.04 108.22,62.26 109.14,64.91 C109.38,65.61 109.56,66.33 109.83,67.01 C110.25,68.01 110.7,68.15 111.66,67.58 C111.748708,67.5142344 111.851354,67.4697543 111.96,67.45 L115.68,67.45 C115.537482,68.4606423 115.337154,69.4622849 115.08,70.45 C114.869227,71.2693697 114.472267,72.0290688 113.92,72.67 C113.063149,73.4063368 112.150405,74.0750141 111.19,74.67 C110.948864,74.8324591 110.744468,75.0436689 110.59,75.29 C109.54,77.29 108.54,79.22 107.47,81.16 C107.149912,81.534224 107.149912,82.085776 107.47,82.46 C108.92,84.02 108.47,85.95 108.52,87.78 C108.52,87.99 108.19,88.25 107.96,88.39 C106.778681,88.9254678 105.720091,89.698136 104.85,90.66 C104.507962,91.0777926 104.27132,91.5716548 104.16,92.1 C103.964574,93.6800286 103.450898,95.2040481 102.65,96.58 C101.49,98.58 100.44,100.69 99.37,102.76 C99.1837219,103.220384 98.7547978,103.537247 98.26,103.58 C97.2,103.65 96.14,103.69 95.08,103.77 C94.62,103.77 94.17,103.91 93.71,103.94 C93.4946954,103.929633 93.2896777,103.844798 93.13,103.7 C92.75,103.4 92.41,103.05 92.13,102.79 C92.134213,101.738037 91.8617729,100.703454 91.34,99.79 C91.1319706,99.4420295 90.901482,99.1079882 90.65,98.79 C89.9615421,97.810366 89.5819308,96.6471533 89.56,95.45 C89.5085836,94.7695599 89.3034327,94.1096579 88.96,93.52 C88.1773012,92.3150139 87.6812627,90.9466317 87.51,89.52 C87.5206808,88.7195505 87.6730333,87.9273175 87.96,87.18 C88.0526146,86.8286889 88.1939885,86.4920844 88.38,86.18 C88.6851622,85.5396174 88.7386965,84.8079821 88.53,84.13 C88.0060366,81.7463126 86.9836467,79.5004628 85.53,77.54 C85.1939958,76.9978385 85.1939958,76.3121615 85.53,75.77 C85.754039,75.3137706 86.0079233,74.8728137 86.29,74.45 C86.54,74.06 86.53,73.75 86.05,73.58 C85.5809424,73.4589201 85.2350123,73.0612993 85.18,72.58 C85.18,72.43 84.78,72.23 84.58,72.24 C83.6553512,72.3422975 82.7355617,72.0098435 82.09,71.34 C81.76,71.01 81.03,71.01 80.47,70.98 C80.0572797,71.0018428 79.6498124,71.0826628 79.26,71.22 L73.62,72.57 C72.6988354,72.7846382 71.7337747,72.4820993 71.1,71.78 C70.9281666,71.5943939 70.7408215,71.423776 70.54,71.27 C69.7173255,70.7681373 69.2052717,69.8833384 69.18,68.92 C69.0975265,68.5040913 68.8230755,68.1517556 68.44,67.97 C66.73,67.42 66.5,65.87 66.04,64.51 C65.9746109,64.092193 66.0910751,63.6663707 66.36,63.34 C66.7991727,62.9344022 66.9246413,62.2908697 66.67,61.75 C66.0491668,60.3262523 66.1922223,58.6848779 67.05,57.39 C67.4773779,56.4407891 68.1420679,55.6176756 68.98,55 C69.31,54.78 69.39,54.21 69.71,53.95 C70.649893,53.0703498 71.3164729,51.9385527 71.63,50.69 C71.8900527,50.1768257 72.262657,49.7290168 72.72,49.38 C73.41,48.73 74.15,48.13 74.84,47.49 C75.21,47.14 75.47,47.09 75.76,47.59 C75.8805154,47.7747621 76.0800628,47.8930124 76.3,47.91 C77.3,47.8 78.39,47.64 79.43,47.49 C79.7373389,47.4020898 80.0519261,47.3418497 80.37,47.31 C81.8820884,47.3273024 83.3765881,46.9845273 84.73,46.31 C85.0618692,46.2131743 85.4177453,46.2416444 85.73,46.39 C85.84,46.44 85.84,46.86 85.82,47.11 C85.8416739,47.8420664 86.2137012,48.519156 86.82,48.93 C87.31,49.43 87.82,49.93 88.34,50.39 C88.44,50.49 88.55,50.62 88.67,50.64 C89.67,50.81 90.75,51 91.8,51.09 C92.33,51.14 92.68,50.9 92.86,50.26 C92.99,49.78 93.54,49.42 93.86,49.01 L93.96,49.23 C94.1804216,49.4632279 94.4289963,49.6681341 94.7,49.84 C95.2648595,50.150243 95.861677,50.3983582 96.48,50.58 C96.9369023,50.6228273 97.3974352,50.6060196 97.85,50.53 C98.0997753,50.5150105 98.3502247,50.5150105 98.6,50.53 C99.7,50.69 100.8,50.83 101.89,51.06 C102.256242,51.1334429 102.634434,51.0124216 102.89,50.74 C103.868458,50.2299687 104.346848,49.0969384 104.03,48.04 C103.92365,47.5791235 103.850132,47.1112823 103.81,46.64 C103.116255,46.3649689 102.334608,46.4239612 101.69,46.8 C100.908483,47.3156244 99.8738434,47.2200552 99.2,46.57 C98.1062383,45.9040171 97.3030425,44.8509382 96.95,43.62 C97.95,44.15 98.45,43.51 98.95,42.56 C97.63,42.87 96.44,43.11 95.27,43.44 C95.0357479,43.4942753 94.8432485,43.6604284 94.7553246,43.8842347 C94.6674007,44.1080409 94.6953309,44.3607914 94.83,44.56 C94.9124274,44.6990121 94.9540166,44.8584372 94.95,45.02 C94.8931618,45.2789155 94.8162631,45.5330157 94.72,45.78 C94.39,45.64 93.91,45.58 93.72,45.33 C93.49,44.92 93.39,44.44 92.86,44.27 C92.7760485,44.2297426 92.7165308,44.1516256 92.7,44.06 C92.8,42.95 91.82,42.41 91.36,41.59 C91.1514478,41.3847787 90.8725133,41.2667679 90.58,41.26 C89.8520443,41.2687519 89.1668976,40.9168187 88.75,40.32 C88.5778486,40.072854 88.3687417,39.8536291 88.13,39.67 C87.77,39.38 87.32,39.2 86.97,39.62 C86.7787053,39.7795966 86.6681217,40.015872 86.6681217,40.265 C86.6681217,40.514128 86.7787053,40.7504034 86.97,40.91 C87.6007939,41.6791491 88.4065937,42.2860707 89.32,42.68 C89.95,42.87 90.25,43.44 90.54,44 C90.0813238,44.3692981 89.4754889,44.5009711 88.9049046,44.3553737 C88.3343204,44.2097764 87.8656484,43.8039189 87.64,43.26 C87.4186844,42.9337776 87.1712019,42.6260965 86.9,42.34 C86.4486498,41.7722042 85.9644905,41.2312814 85.45,40.72 C84.76,40.1 83.39,40.05 83.24,41.27 C83.2065694,41.3986483 83.1665161,41.525484 83.12,41.65 L82.67,41.52 C81.8548579,41.1633691 80.9037517,41.517269 80.52,42.32 C80.3237046,42.5748319 80.1133794,42.818542 79.89,43.05 C79.6936962,43.2405708 79.5373201,43.4683359 79.43,43.72 C79.2068185,44.7176803 78.4276803,45.4968185 77.43,45.72 C76.1086152,45.9457333 74.7705272,46.0594708 73.43,46.06 C73.24,46.06 72.88,45.69 72.86,45.48 C72.7553858,44.5696623 72.7553858,43.6503377 72.86,42.74 C73.0488542,41.8020308 73.9057117,41.1508191 74.86,41.22 C75.79,41.22 76.71,41.22 77.64,41.22 C78,41.22 78.22,41.12 78.18,40.7 C78.1553968,40.5409458 78.1553968,40.3790542 78.18,40.22 C78.35,39.13 78.3,39.01 77.32,38.42 C77.02,38.24 76.69,38.12 76.4,37.95 C76.11,37.78 76.08,37.69 76.09,37.57 C76.135095,37.3989994 76.2570071,37.2586157 76.42,37.19 C76.7723254,37.0906458 77.1344962,37.0302839 77.5,37.01 C79.04,36.89 80.35,36.39 80.98,34.85 C81.2728933,34.0782049 81.9783287,33.5394383 82.8,33.46 C84.13,33.24 84.36,32.91 84.55,31.54 C84.6312809,31.1953166 84.748593,30.8601392 84.9,30.54 L85.19,30.54 C85.4053051,31.0037464 85.5890562,31.4814993 85.74,31.97 C85.89,32.53 86.17,32.91 86.74,32.97 C87.2420886,33.02006 87.7479114,33.02006 88.25,32.97 C89.12,32.87 89.98,32.7 90.84,32.58 C91.16,32.58 91.35,32.52 91.45,32.11 C91.55,31.7 91.95,31.49 92.24,31.2 C92.53,30.91 92.94,30.77 92.95,30.2 C92.96,29.63 93.86,29.07 94.35,29.14 C94.6289917,29.2146172 94.8709328,29.388957 95.03,29.63 C95.1955057,29.9483736 95.3262589,30.2836382 95.42,30.63 C96.3392772,29.8004125 96.7241526,28.5303238 96.42,27.33 C96.0719907,27.4294228 95.7179194,27.5062496 95.36,27.56 C94.8591141,27.6301957 94.3508859,27.6301957 93.85,27.56 C92.42,27.24 92.2,26.56 92.97,25.38 C93.23,24.96 93.53,24.09 93.4,23.99 C92.87,23.59 92.4,24.1 91.98,24.45 C91.0275846,25.1974729 90.329121,26.220722 89.98,27.38 C89.7107069,28.3989572 89.2928956,29.372727 88.74,30.27 C88.51,30.64 87.8,30.79 87.28,30.87 C87.08,30.87 86.78,30.45 86.58,30.18 C86.3824188,29.8805474 86.2021244,29.5700405 86.04,29.25 L85.97,29.48 L82.97,29.64 C82.92,29.46 82.87,29.34 82.84,29.21 C82.4,27 82.21,27.3 84.32,26.46 C84.9464456,26.0874352 85.5128659,25.6221613 86,25.08 L87.44,23.82 C87.5302474,23.7512064 87.6139373,23.6742117 87.69,23.59 C89.13,21.66 91.28,21.34 93.44,21 C95.6,20.66 97.26,21.51 99.12,22 C100.12,22.27 101.05,22.57 102.2,22.91 C100.8,24.02 99.51,22.91 98.31,23.11 C98.31,23.19 98.23,23.25 98.24,23.26 C98.9269445,24.0105323 99.6654032,24.7122351 100.45,25.36 C100.741816,25.5104478 101.086876,25.5171821 101.38434,25.3782351 C101.681804,25.239288 101.898093,24.9703446 101.97,24.65 C102.08,24.22 102.26,24.01 102.72,24.01 C103.316269,24.0002944 103.848463,23.6336717 104.07,23.08 C104.31,22.62 104.61,22.42 105.07,22.61 C104.99,23.15 105.24,23.38 105.77,23.21 C105.964375,23.1444945 106.149293,23.0537165 106.32,22.94 C106.944133,22.5531093 107.680323,22.3875546 108.41,22.47 C109.414573,22.4116547 110.405137,22.2061296 111.35,21.86 C111.97951,21.5685448 112.724308,21.7046907 113.21,22.2 C117.465946,26.6204302 121.081131,31.615715 123.95,37.04 C127.359323,43.4842214 129.651786,50.4596653 130.73,57.67 C130.763344,57.7742281 130.786781,57.8813694 130.8,57.99 Z" id="Shape" fill="#FFFFFF"></path>
                <path d="M28.27,32.7 L27.79,35.46 C28.4652915,35.4913218 29.1058911,35.1595827 29.47,34.59 C30.6,32.99 31.77,31.43 32.93,29.85 C33.11,29.61 33.29,29.37 33.45,29.11 C34.0926661,27.8194554 35.5624509,27.1685507 36.95,27.56 C37.72,27.68 38.27,27.85 38.21,28.79 C38.21,28.92 38.56,29.18 38.77,29.2 C39.71,29.31 40.18,29.2 41.77,28.5 C41.8315209,28.6406685 41.8751936,28.788484 41.9,28.94 C41.9251185,29.1459034 41.9251185,29.3540966 41.9,29.56 C41.4824582,31.1789402 42.3416392,32.8543432 43.9,33.46 L44.2,33.62 C43.0664384,34.7164468 41.5748525,35.366352 40,35.45 C38.9121525,35.4429525 37.8420871,35.726002 36.9,36.27 C36.1111973,36.6408862 35.2955519,36.9517675 34.46,37.2 C34.1677635,37.3789346 33.9018754,37.5977033 33.67,37.85 L33.77,38.06 L36.88,37.78 C36.76,38.54 36.88,38.99 37.68,39.06 C37.98,39.06 38.25,39.49 38.63,39.8 C37.28,40.06 36.63,41.53 34.91,41.18 L36.24,39.94 C35.61,39.25 35.46,39.19 34.62,39.71 C33.78,40.23 33.06,40.85 32.28,41.43 C32.08,41.58 31.89,41.82 31.67,41.86 C30.28,42.11 29.61,43.25 28.73,44.14 C28.3404377,44.695188 27.7333395,45.0587199 27.06,45.14 C26.787143,45.138322 26.5234012,45.2381162 26.32,45.42 C26.0814717,45.6330892 25.9256788,45.9234306 25.88,46.24 C25.982215,47.4210645 25.3348566,48.5399556 24.26,49.04 C23.3087486,49.5569554 22.402273,50.1523527 21.55,50.82 C20.8049938,51.5756751 20.5986718,52.7104459 21.03,53.68 C21.3550566,54.3563023 21.3550566,55.1436977 21.03,55.82 C20.97,55.99 20.56,56.13 20.31,56.14 C20.06,56.15 19.89,55.88 19.84,55.7 C19.62,54.84 19.48,53.95 19.26,53.09 C19.1418118,52.7940868 18.990872,52.5123326 18.81,52.25 L18.64,52.32 L18.64,53.32 L18.48,53.44 C18.2629241,53.1847677 18.0326076,52.9410995 17.79,52.71 C17.4687044,52.3946998 17.105244,52.1254698 16.71,51.91 C16.2953889,51.7055256 15.7933789,51.8699005 15.58,52.28 C15.16,52.84 14.67,53.35 14.24,53.84 C13.8850052,53.4106058 13.5078247,53.0000465 13.11,52.61 C12.9316605,52.4710648 12.7018146,52.4163396 12.48,52.46 C11.6489244,52.5818938 10.894943,53.0142717 10.37,53.67 C9.80866786,54.3429724 9.1859887,54.9623039 8.51,55.52 C7.86952746,55.9727686 7.67517881,56.8365403 8.06,57.52 C8.15811586,57.7989409 8.18560118,58.0978437 8.14,58.39 C7.81306233,60.0576094 8.83009093,61.694458 10.47,62.14 C11.3314078,62.4343275 12.2792733,62.0619517 12.71,61.26 C12.89,60.89 13.01,60.49 13.18,60.11 C13.2489957,59.8847879 13.4104307,59.6994971 13.6240711,59.6003069 C13.8377114,59.5011167 14.0834347,59.4973698 14.3,59.59 C14.5770122,59.8726502 14.7064244,60.2682818 14.65,60.66 C14.501807,61.3117978 14.3011531,61.9505457 14.05,62.57 C13.83,63.27 14,63.57 14.74,63.75 C15.28185,63.8600246 15.8293445,63.9401458 16.38,63.99 C16.6838091,63.9838478 16.9739335,64.1161702 17.1684672,64.3496106 C17.363001,64.5830511 17.4408366,64.8922808 17.38,65.19 C17.3132317,65.9967589 17.3367103,66.8084494 17.45,67.61 C17.5773692,68.0866437 17.8333705,68.5190784 18.19,68.86 C18.4424664,69.0261701 18.7609626,69.0561463 19.04,68.94 C19.5276215,68.6112599 20.1483017,68.5510727 20.69,68.78 C20.9093535,68.8539385 21.1331255,68.9140563 21.36,68.96 C22.36,69.2 22.61,69.03 23.27,68.3 C23.7216719,67.894552 24.230432,67.5576248 24.78,67.3 C24.9516938,67.25906 25.132433,67.3080101 25.26,67.43 C25.3483143,67.5742208 25.3483143,67.7557792 25.26,67.9 C24.72,68.39 25.02,68.63 25.5,68.83 L26.66,69.32 C25.92,68.11 26.91,67.69 27.35,66.97 C27.5303549,67.0746144 27.7010297,67.1950908 27.86,67.33 C28.5135234,68.040189 29.4581308,68.4091763 30.42,68.33 C31.7398557,68.3143136 33.0123699,68.8211626 33.96,69.74 C35.25695,70.8627772 36.8142532,71.6431477 38.49,72.01 C39.2277219,72.1243826 39.8724869,72.5701915 40.24,73.22 C40.55,73.74 40.94,74.22 41.24,74.71 C41.5252319,74.9648798 41.640075,75.3601424 41.5358321,75.7281837 C41.4315892,76.0962249 41.1265263,76.3725546 40.75,76.44 L39.97,76.82 C40.18,77.22 40.41,77.34 40.81,77.12 C41.0820172,76.9504382 41.3842146,76.834992 41.7,76.78 C41.9424366,76.8073472 42.1682475,76.9167244 42.34,77.09 C42.34,77.09 42.24,77.38 42.2,77.54 C42.16,77.7 42.08,77.91 42.12,77.94 C42.2633003,78.0297154 42.4313395,78.0717252 42.6,78.06 C42.7377185,78.0382475 42.8643306,77.9714244 42.96,77.87 C43.2317014,77.5500526 43.6302525,77.3656349 44.05,77.3656349 C44.4697475,77.3656349 44.8682986,77.5500526 45.14,77.87 C45.23,77.94 45.4,78 45.4,78.07 C45.51,79.21 46.29,78.75 46.77,78.56 C47.2562847,78.3729409 47.7997664,78.4057686 48.26,78.65 C49.46,79.16 50.71,79.58 51.95,80.01 C52.3362251,80.108394 52.6099452,80.4515654 52.62,80.85 C52.8924087,82.8030253 52.2718097,84.7749876 50.93,86.22 C50.8338307,86.3519962 50.7067967,86.4584301 50.56,86.53 C50.01,86.76 49.96,87.21 49.94,87.72 C49.9503652,88.9923488 49.8902733,90.2642956 49.76,91.53 C49.6029027,92.3191489 49.3299493,93.0807228 48.95,93.79 C48.68,94.37 48.41,94.97 47.48,94.79 C47.07,94.73 46.54,95.13 46.13,95.41 C45.4013176,95.8174917 44.7289667,96.3183932 44.13,96.9 C43.814474,97.4208245 43.6038541,97.9983305 43.51,98.6 C43.278396,99.7011215 42.9778032,100.786595 42.61,101.85 C42.34,102.46 41.61,102.85 41.15,103.39 C40.4302824,104.369597 39.0842121,104.642273 38.04,104.02 C37.78,104.77 38.28,105.24 38.57,105.75 C39.04,106.56 39.03,106.55 38.27,107.1 C37.51,107.65 36.94,108.18 36.27,108.73 C35.7955396,109.186184 35.6043505,109.862994 35.77,110.5 C35.7665943,111.057748 35.6892537,111.612582 35.54,112.15 C35.4664748,112.430981 35.426199,112.719624 35.42,113.01 C35.49,113.59 35.67,114.14 35.74,114.72 C35.86,115.67 35.93,116.63 36.02,117.59 C36.02,117.95 36.16,118.19 36.6,118.21 C36.8105666,118.267166 36.9858006,118.413194 37.08,118.61 C37.34,119.15 37.55,119.71 37.78,120.24 C37.4806682,120.473934 37.0996025,120.577181 36.723117,120.526355 C36.3466315,120.47553 36.0065849,120.274933 35.78,119.97 C35.4362225,119.310248 34.8638699,118.79833 34.17,118.53 C33.0467496,118.03939 32.1428418,117.153276 31.63,116.04 C31.02,114.83 30.34,113.78 30.53,112.3 C30.7515683,111.346784 30.2284829,110.37779 29.31,110.04 C29.15,109.99 29.01,109.63 28.99,109.4 C28.88,108.46 28.83,107.52 28.74,106.58 C28.56,104.58 28.31,102.58 28.19,100.58 C28.11,99.09 28.19,97.58 28.19,96.08 C28.19,95.41 28.19,94.74 28.19,94.08 C28.0458927,92.3056269 26.8328212,90.7991982 25.13,90.28 C24.1748753,90.1128117 23.5035854,89.2466313 23.58,88.28 C23.6140208,87.4393359 23.1522897,86.6567409 22.4,86.28 C21.4032848,85.7222867 20.6455081,84.8186469 20.27,83.74 C20.1421322,83.4171402 19.9440088,83.1267871 19.69,82.89 C19.1456223,82.3792874 18.9166458,81.6160322 19.09,80.89 C19.1024216,80.4008751 19.0655691,79.9117421 18.98,79.43 C18.9114736,79.1013447 18.8845956,78.7653697 18.9,78.43 C19.0261913,77.4724929 19.3681177,76.5561299 19.9,75.75 C20.4920635,74.8826278 20.9819757,73.9497813 21.36,72.97 C21.7880703,71.8886111 21.430204,70.6545893 20.49,69.97 C20.1817963,69.8014841 19.8134761,69.7830681 19.49,69.92 C18.839341,70.3171039 18.0106743,70.2692962 17.41,69.8 C16.1875873,69.0118687 15.1833667,67.9285485 14.49,66.65 C14.3707914,66.4600054 14.1911699,66.3156037 13.98,66.24 C13.6778688,66.1286358 13.361298,66.0612803 13.04,66.04 C12.1752023,65.9834581 11.3688054,65.5838597 10.8,64.93 C10.1065616,64.1917849 9.10700715,63.8215796 8.1,63.93 C7.96449757,63.955228 7.82550243,63.955228 7.69,63.93 C5.69003549,63.4097021 3.87084887,62.3513921 2.43,60.87 C1.99749343,60.2998935 1.83002659,59.5717769 1.97,58.87 C3.31474453,48.6573074 7.08668484,38.9154143 12.97,30.46 C14.31,28.55 15.83,26.77 17.26,24.93 C17.48,24.65 17.71,24.52 18.02,24.75 C18.4525956,25.0103798 18.9728193,25.0826331 19.46,24.95 C20.63,24.8 21.84,24.86 22.98,24.62 C24.3711172,24.3240157 25.7306658,23.8953896 27.04,23.34 C28.0233018,22.786963 28.6925571,21.8071142 28.85,20.69 C28.94,20.38 29.04,20.07 29.14,19.76 C29.48,18.63 29.48,18.64 30.65,18.9 L33.04,19.44 C32.37,19.67 31.68,19.9 31.04,20.17 C30.64,20.32 30.59,20.58 30.87,20.92 C31.34,21.49 31.78,22.09 32.27,22.63 C32.4,22.78 32.75,22.91 32.88,22.83 C33.88,22.25 34.88,22.49 35.88,22.42 C35.6215324,22.8787622 35.3093326,23.3050996 34.95,23.69 C34.578287,23.9748967 34.1420932,24.1637995 33.68,24.24 C32.49,24.48 31.28,24.64 30.08,24.83 C29.9627668,25.671466 29.2291118,26.2885994 28.38,26.26 C26.8270313,26.5077327 25.3712739,27.1750989 24.17,28.19 C23.2784458,28.6788048 22.8955215,29.7587374 23.28,30.7 C23.4,31.08 23.52,31.55 24.13,31.25 C24.23,31.25 24.43,31.31 24.57,31.38 C25.14,31.67 25.7,32 26.28,32.29 C26.86,32.58 27.28,32.9 27.87,32.68 C27.999115,32.6236959 28.1471453,32.6310974 28.27,32.7 Z" id="Shape" fill="#FFFFFF"></path>
                <path d="M46.63,16.64 C48.1,16.4 49.5,16.21 50.88,15.94 C51.4792198,15.7812564 52.0644935,15.5739022 52.63,15.32 C54.1055535,14.604224 55.7448791,14.2936149 57.38,14.42 C58.91,14.64 60.46,14.75 62,14.88 C62.5784467,14.9961699 63.1752648,14.7984977 63.57,14.36 C63.74,14.16 64.16,14.13 64.47,14.07 C65.68,13.87 66.88,13.65 68.1,13.53 C68.7378388,13.4750693 69.3801526,13.5053354 70.01,13.62 C71.49,13.85 73.01,14.14 74.44,14.41 C74.6781838,14.438178 74.9017774,14.5394938 75.08,14.7 C74.47,14.7 73.85,14.77 73.24,14.84 C72.8542299,14.8669625 72.4756802,14.95822 72.12,15.11 C71.55,15.39 71.05,15.69 71.02,16.51 C71.0031802,17.3235827 70.4337964,18.0208715 69.64,18.2 C68.8365106,18.4921474 68.0487776,18.8259326 67.28,19.2 C66.88,19.38 66.88,19.61 67.28,19.83 C67.84,20.15 68.4,20.45 69,20.78 C68.07,21.16 68.07,21.16 66.11,20.26 L66.94,21.63 C65.69,21.96 64.39,22.34 63.08,22.63 C61.8706054,22.853032 60.7401614,23.3872357 59.8,24.18 C58.8570213,24.8443403 57.7425308,25.222781 56.59,25.27 C55.98,25.38 55.48,25.5 55.49,26.27 C55.49,26.55 55.2,26.89 54.97,27.12 C54.6668592,27.4194496 54.3314808,27.6843985 53.97,27.91 C53.3398998,28.3673845 52.5057608,28.4304315 51.8140704,28.0729525 C51.1223801,27.7154734 50.6913411,26.9985575 50.7,26.22 C50.6174774,25.8121424 50.5939038,25.3945539 50.63,24.98 C50.7465855,24.5354265 50.9143747,24.1058861 51.13,23.7 C51.2585212,23.5091624 51.4133883,23.3374619 51.59,23.19 C53.3,21.35 52.92,19.41 50.72,18.19 C49.8040009,17.6438191 48.7805078,17.3026547 47.72,17.19 C47.3228079,17.0833187 46.9517927,16.8961092 46.63,16.64 Z" id="Shape" fill="#FFFFFF"></path>
                <path d="M35.32,18.28 C35.82,17.42 36.37,17.16 37.24,17.56 C38.0838191,17.9991012 39.0711964,18.0714366 39.97,17.76 L40.11,17.91 C39.98,18.09 39.88,18.38 39.71,18.45 C39.29,18.62 38.82,18.65 38.39,18.8 C38.190708,18.8862838 38.0378479,19.0537021 37.97,19.26 C37.97,19.37 38.17,19.63 38.33,19.67 C40.05,20.18 41.78,20.67 43.5,21.14 C43.6630155,21.2241852 43.7775902,21.3794154 43.81,21.56 C43.8042079,21.7881264 43.763745,22.0140442 43.69,22.23 C43.42,23.46 43.76,23.91 45.02,23.93 C45.046877,24.3724638 44.7367831,24.7643881 44.3,24.84 C43.48,25.07 42.67,25.31 41.86,25.58 C41.49,25.7 41.09,25.83 41.21,26.38 C41.21,26.48 41.11,26.63 41.02,26.72 C40.2955154,27.2121791 39.3350713,27.1757066 38.65,26.63 C38.3494352,26.3053448 38.2518911,25.8416426 38.3961821,25.4234078 C38.540473,25.005173 38.9031892,24.7002606 39.34,24.63 C39.83,24.49 40.34,24.46 40.83,24.33 C41.0602874,24.2718196 41.2623466,24.1335686 41.4,23.94 C41.4,23.83 41.23,23.54 41.08,23.39 C39.8137707,22.2461591 38.1761158,21.5996229 36.47,21.57 C35.53,21.51 34.59,21.41 33.65,21.31 C33.25,21.31 32.74,21.31 32.71,20.7 C32.6633518,20.4428091 32.7376297,20.1784576 32.911407,19.9832022 C33.0851842,19.7879468 33.339134,19.6835032 33.6,19.7 C34.2231294,19.6723724 34.8441546,19.6089343 35.46,19.51 C35.73,19.51 36.13,19.27 36.17,19.08 C36.26,18.64 35.98,18.35 35.49,18.34 C35.45,18.37 35.41,18.33 35.32,18.28 Z" id="Shape" fill="#FFFFFF"></path>
                <path d="M114.9,85.79 C115.33,87.27 115.72,88.67 115.1,90.2 C114.59,91.48 114.28,92.84 113.86,94.15 C113.707671,94.5363469 113.520219,94.907904 113.3,95.26 C112.65,96.48 112.65,96.48 111.3,96.26 C110.792382,96.0895734 110.374303,95.7227119 110.139357,95.2415442 C109.904412,94.7603765 109.872225,94.2050915 110.05,93.7 C110.383639,93.2641023 110.665527,92.7909328 110.89,92.29 C111.015035,91.7437301 111.015035,91.1762699 110.89,90.63 C110.845062,89.8292261 111.315771,89.0889666 112.06,88.79 C112.255257,88.7567438 112.436241,88.6662521 112.58,88.53 C113.24,87.87 113.89,87.2 114.52,86.53 C114.683194,86.3038678 114.811305,86.0543886 114.9,85.79 Z" id="Shape" fill="#FFFFFF"></path>
                <path d="M51.85,13.62 C50.6941476,14.5492406 49.3150427,15.1594945 47.85,15.39 C45.8238589,15.7304802 43.890027,16.4863089 42.17,17.61 C41.61,17.96 41.06,18.26 40.64,17.39 C40.57,17.23 40.26,17.15 40.04,17.12 C39.5066838,17.0639384 38.9784629,16.9669864 38.46,16.83 C38.6138602,16.6867276 38.7893482,16.5686106 38.98,16.48 C39.41,16.34 39.87,16.27 40.32,16.14 C40.77,16.01 41.38,15.92 41.58,15.25 C41.7012027,14.9690275 41.9443776,14.7590129 42.24,14.68 C43.14,14.48 44.07,14.35 44.99,14.21 C45.5533736,14.1869319 46.1129304,14.1065166 46.66,13.97 C47.6750105,13.5770353 48.7642934,13.4131306 49.85,13.49 C50.18,13.49 50.53,13.41 50.85,13.4 C51.17,13.39 51.5,13.4 51.85,13.4 L51.85,13.62 Z" id="Shape" fill="#FFFFFF"></path>
                <path d="M77.36,33.05 C76.97,32.46 76.41,32.17 76.01,32.44 C74.86,33.22 74.77,33.44 75.31,34.27 L73.03,35.13 C72.87,34.33 73.79,33.62 73.03,32.9 C73.3421335,32.3540732 73.9315765,32.0266049 74.56,32.05 C74.86,32.05 75.16,32.05 75.46,32.05 C75.94,32.05 76.31,31.88 76.24,31.27 C76.2140959,31.0827253 76.2529027,30.8922188 76.35,30.73 C76.53,30.46 76.74,30.09 77.01,30.03 C77.28,29.97 77.57,30.26 77.95,30.44 C77.27,31.15 77.55,31.54 78.17,31.85 C78.3149803,31.920836 78.4364902,32.0319307 78.52,32.17 C78.681725,32.6476045 78.8999384,33.104174 79.17,33.53 C79.5840292,33.8637664 80.045849,34.1334422 80.54,34.33 C80.1341536,34.6891582 79.7066864,35.023117 79.26,35.33 C78.8285521,35.5969957 78.3602178,35.7991544 77.87,35.93 C77.4749151,35.9800968 77.0750849,35.9800968 76.68,35.93 L76.68,35.7 L77.51,35.17 C77.22,34.82 76.77,34.51 76.74,34.17 C76.71,33.83 77.13,33.46 77.36,33.05 Z" id="Shape" fill="#FFFFFF"></path>
                <path d="M67.04,25.12 C67.33,25 67.62,24.85 67.92,24.76 C68.84,24.51 69.77,24.27 70.69,24.04 C71.14,23.93 71.69,23.93 71.81,24.42 C71.8140518,24.7593078 71.6538773,25.0796567 71.38,25.28 C70.8165505,25.6275215 70.2203608,25.9189176 69.6,26.15 C69.0449184,26.4358314 68.3646049,26.2794861 67.99,25.78 C67.8,25.55 67.41,25.49 67.1,25.35 L67.04,25.12 Z" id="Shape" fill="#FFFFFF"></path>
                <path d="M40.63,38.04 C41.3536477,36.9907131 42.3840398,36.1908494 43.58,35.75 L42.99,36.27 C43.25,36.4 43.51,36.44 43.64,36.59 C43.77,36.74 44.32,37.3 44.25,37.53 C44.1311002,38.0164052 43.6517814,38.3242247 43.16,38.23 C42.35,38.1 41.53,38.1 40.63,38.04 Z" id="Shape" fill="#FFFFFF"></path>
            </g>
            <rect id="Rectangle-path" fill="#6777EF" transform="translate(269.447463, 236.472206) rotate(-38.150000) translate(-269.447463, -236.472206) " x="266.842463" y="188.017206" width="5.21" height="96.91"></rect>
            <path d="M240.55,214.56 L240.45,215.32 C217.700892,228.988748 188.974294,227.686944 167.554745,212.016604 C146.135197,196.346264 136.197769,169.361831 142.337999,143.542183 C148.478229,117.722536 169.499271,98.1004081 195.68,93.75 C191.008973,97.5891905 186.728228,101.879984 182.9,106.56 C182.16,107.48 181.39,108.43 180.66,109.42 C180.07,110.2 179.48,111 178.91,111.83 C178.49,112.44 178.06,113.08 177.64,113.73 C176.086193,116.109602 174.68343,118.584477 173.44,121.14 C171.058038,125.939214 169.374342,131.054282 168.44,136.33 C167.082561,144.371096 167.770344,152.624495 170.44,160.33 C171.773793,164.243859 173.506225,168.010306 175.61,171.57 C178.804784,177.043323 182.486341,182.217585 186.61,187.03 C211.49,216.01 240.55,214.56 240.55,214.56 Z" id="Shape" fill="url(#linearGradient-2)"></path>
            <path d="M358.62,287.7 L288.43,287.14 C286.088463,287.14012 284.060455,285.515221 283.55,283.23 L270.8,228.04 C270.427766,226.52374 270.785171,224.920638 271.766228,223.706089 C272.747285,222.49154 274.239367,221.804978 275.8,221.85 L346,222.41 C348.356691,222.42886 350.392234,224.063087 350.92,226.36 L363.65,281.47 C364.008439,282.993845 363.642843,284.597817 362.659451,285.815817 C361.676058,287.033816 360.185161,287.729238 358.62,287.7 Z" id="Shape" fill="#6777EF"></path>
            <path d="M354.45,281.78 L291.13,281.27 C289.058819,281.278237 287.244626,279.883654 286.72,277.88 L275.13,230.02 C274.834829,228.686461 275.174206,227.291413 276.048965,226.242485 C276.923723,225.193558 278.235132,224.609141 279.6,224.66 L342.96,225.17 C345.031075,225.155647 346.845713,226.553743 347.36,228.56 L358.88,276.41 C359.168482,277.736883 358.832494,279.122779 357.96839,280.170236 C357.104287,281.217693 355.807527,281.810998 354.45,281.78 Z" id="Shape" fill="url(#linearGradient-3)"></path>
            <path d="M289.356683,285.376601 L380.936683,285.376601 C382.643243,285.376601 384.026683,286.760041 384.026683,288.466601 C384.026683,290.173161 382.643243,291.556601 380.936683,291.556601 L289.356683,291.556601 C287.666691,291.556601 286.296683,290.186592 286.296683,288.496601 L286.296683,288.416601 C286.296683,286.72661 287.666691,285.356601 289.356683,285.356601 L289.356683,285.376601 Z" id="Shape" fill="#6777EF" transform="translate(335.161683, 288.456601) rotate(0.460000) translate(-335.161683, -288.456601) "></path>
            <rect id="Rectangle-path" fill="#6777EF" transform="translate(365.689850, 289.466300) rotate(0.572939) translate(-365.689850, -289.466300) " x="326.08787" y="286.371145" width="79.2039599" height="6.19030949" rx="2.79"></rect>
            <rect id="Rectangle-path" fill="url(#linearGradient-4)" transform="translate(365.689850, 289.466300) rotate(0.572939) translate(-365.689850, -289.466300) " x="326.08787" y="286.371145" width="79.2039599" height="6.19030949" rx="2.79"></rect>
            <polygon id="Shape" fill="#FFFFFF" points="317.13 240.28 321.72 260.7 326.08 254.77 322.43 255.59 318.93 240.02"></polygon>
            <path d="M319.99,261.17 L315.4,240.76 L310.97,246.7 L314.63,245.88 C314.64547,245.871068 314.66453,245.871068 314.68,245.88 L318.18,261.46 L319.99,261.17 Z" id="Shape" fill="#FFFFFF"></path>
            <path d="M229.32,100.7 L264.02,54.77" id="Shape" fill="url(#linearGradient-5)"></path>
            <path d="M372.83,108.21 C371.11,114.8 363.3,113.59 363.3,113.59 C363.3,113.59 317.97,114.44 317.12,113.59 C316.43,112.89 316.88,110.22 317.05,109.27 C317.05,109.06 317.12,108.94 317.12,108.94 L330.07,108.94 C330.07,108.94 336.18,105.76 326.16,91.36 C317.75,79.24 349.51,78.7 359.88,78.83 C361.88,78.83 363.06,78.9 363.06,78.9 C363.06,78.9 374.53,101.61 372.83,108.21 Z" id="Shape" fill="#6777EF"></path>
            <path d="M367.45,103.57 C365.75,110.17 357.92,108.94 357.92,108.94 C357.92,108.94 329.2,109.49 317.05,109.27 C317.05,109.06 317.12,108.94 317.12,108.94 L330.07,108.94 C330.07,108.94 336.18,105.76 326.16,91.36 C317.75,79.24 349.51,78.7 359.88,78.83 C363.13,85.8 368.68,98.84 367.45,103.57 Z" id="Shape" fill="#6777EF"></path>
            <path d="M369.3,104.54 C367.6,111.14 357.92,108.94 357.92,108.94 C357.92,108.94 329.2,109.49 317.05,109.27 C317.05,109.06 317.12,108.94 317.12,108.94 L330.07,108.94 C330.07,108.94 336.18,105.76 326.16,91.36 C317.75,79.24 349.51,78.7 359.88,78.83 C363.13,85.8 370.54,99.81 369.3,104.54 Z" id="Shape" fill="url(#linearGradient-6)"></path>
            <rect id="Rectangle-path" fill="#6777EF" x="282.76" y="13.66" width="115.06" height="77.21" rx="9.11"></rect>
            <rect id="Rectangle-path" fill="url(#linearGradient-7)" x="282.76" y="13.66" width="115.06" height="77.21" rx="9.11"></rect>
            <rect id="Rectangle-path" fill="#6777EF" x="280.32" y="13.66" width="115.06" height="77.21" rx="9.11"></rect>
            <rect id="Rectangle-path" fill="url(#linearGradient-8)" x="280.32" y="13.66" width="115.06" height="77.21" rx="9.11"></rect>
            <path d="M395.3,74.09 L395.37,81.76 C395.37,86.7913141 391.291314,90.87 386.26,90.87 L289.42,90.87 C284.388686,90.87 280.31,86.7913141 280.31,81.76 L280.24,74.09 L395.3,74.09 Z" id="Shape" fill="#6777EF"></path>
            <rect id="Rectangle-path" fill="url(#linearGradient-9)" x="317.12" y="109.29" width="45.16" height="4.29"></rect>
            <path d="M369.3,104.54 L369.73,112.24 C367.536034,113.690516 364.84344,114.178436 362.28,113.59 L362.28,109.29 C362.28,109.29 368.69,111.14 369.3,104.54 Z" id="Shape" fill="url(#linearGradient-10)"></path>
            <path d="M330.66,32.23 C323.342743,32.2909599 316.782878,36.7541881 314.039817,43.5381093 C311.296757,50.3220304 312.910821,58.0903654 318.129238,63.220092 C323.347655,68.3498185 331.142514,69.8304965 337.878422,66.9715623 C344.614331,64.1126281 348.964467,57.4772271 348.9,50.16 C348.806519,40.1752743 340.644861,32.1523291 330.66,32.23 Z M330.96,65.33 C325.005786,65.3863977 319.604049,61.8500407 317.27418,56.3702997 C314.944311,50.8905587 316.145268,44.5468777 320.316918,40.2979743 C324.488569,36.0490709 330.809148,34.7319286 336.330713,36.9608678 C341.852278,39.1898071 345.487146,44.5257531 345.54,50.48 C345.601085,58.6014272 339.081181,65.2420706 330.96,65.33 Z" id="Shape" fill="#FFFFFF" opacity="0.18"></path>
            <polygon id="Shape" fill="#FFFFFF" points="332.22 42.12 332.37 58.66 336.76 54.78 333.78 54.8 333.66 42.2"></polygon>
            <polygon id="Shape" fill="#FFFFFF" points="330.96 58.68 330.81 42.13 326.42 46.02 329.4 45.99 329.51 58.59"></polygon>
        </g>
    </g>
</svg>