<svg id="Layer_1" data-name="Layer 1" xmlns="http://www.w3.org/2000/svg" xmlns:xlink="http://www.w3.org/1999/xlink" viewBox="0 0 418.13 215.42"><defs><linearGradient id="linear-gradient" x1="206" y1="148.02" x2="143.08" y2="213.21" gradientUnits="userSpaceOnUse"><stop offset="0" stop-opacity="0"/><stop offset="0.99"/></linearGradient><linearGradient id="linear-gradient-2" x1="363.77" y1="184.2" x2="355.61" y2="160.36" xlink:href="#linear-gradient"/><linearGradient id="linear-gradient-3" x1="426.97" y1="83.54" x2="312.02" y2="87.77" xlink:href="#linear-gradient"/><linearGradient id="linear-gradient-4" x1="353.03" y1="54.05" x2="364.51" y2="149.82" gradientUnits="userSpaceOnUse"><stop offset="0.02" stop-color="#fff" stop-opacity="0"/><stop offset="0.32" stop-color="#fff" stop-opacity="0.39"/><stop offset="0.68" stop-color="#fff" stop-opacity="0.68"/><stop offset="1" stop-color="#fff"/></linearGradient><linearGradient id="linear-gradient-5" x1="356.85" y1="122.22" x2="385.32" y2="132.87" xlink:href="#linear-gradient"/><linearGradient id="linear-gradient-6" x1="379.48" y1="182.61" x2="365.66" y2="174.08" xlink:href="#linear-gradient"/><linearGradient id="linear-gradient-7" x1="-926.14" y1="153.13" x2="-932.32" y2="135.06" gradientTransform="matrix(-1, 0, 0, 1, -869.17, 0)" xlink:href="#linear-gradient"/><linearGradient id="linear-gradient-8" x1="-877.2" y1="121.54" x2="-964.33" y2="124.74" gradientTransform="matrix(-1, 0, 0, 1, -870.52, -58.98)" xlink:href="#linear-gradient"/><linearGradient id="linear-gradient-9" x1="-933.24" y1="99.18" x2="-924.54" y2="171.77" gradientTransform="matrix(-1, 0, 0, 1, -870.52, -58.98)" xlink:href="#linear-gradient-4"/><linearGradient id="linear-gradient-10" x1="-930.35" y1="150.85" x2="-908.77" y2="158.92" gradientTransform="matrix(1, 0, 0, -1, 989.76, 302.36)" xlink:href="#linear-gradient"/><linearGradient id="linear-gradient-11" x1="-914.23" y1="151.92" x2="-924.71" y2="145.46" gradientTransform="matrix(-1, 0, 0, 1, -869.17, 0)" xlink:href="#linear-gradient"/><linearGradient id="linear-gradient-12" x1="78.78" y1="-1.65" x2="95.65" y2="107.67" gradientTransform="matrix(0.99, 0.15, -0.15, 0.99, 177.56, 64.95)" xlink:href="#linear-gradient"/><linearGradient id="linear-gradient-13" x1="103.86" y1="36.48" x2="104.25" y2="68.9" gradientTransform="translate(169.33 79.8)" xlink:href="#linear-gradient"/><linearGradient id="linear-gradient-14" x1="452.76" y1="384.48" x2="468.36" y2="485.49" gradientTransform="matrix(0.94, -0.35, 0.35, 0.94, -467.87, -70.22)" xlink:href="#linear-gradient"/><linearGradient id="linear-gradient-15" x1="475.94" y1="419.71" x2="476.3" y2="449.67" gradientTransform="translate(-346.33 -266.75)" xlink:href="#linear-gradient"/><linearGradient id="linear-gradient-16" x1="236.39" y1="314.17" x2="236.7" y2="348.5" gradientTransform="translate(-94.58 -80.36)" xlink:href="#linear-gradient"/></defs><title>network 2</title><path d="M115.5,94C95.63,104.31,73.63,109.86,53.19,119S13,142.19,4.54,163C2.2,168.71.8,175,1.57,181.17c1.75,14,13.89,24.22,26.13,31.17,26.72,15.19,57.61,21.63,84.87,35.84,11.75,6.13,22.79,13.68,35,18.81,29.78,12.51,65.77,9,92.54-9.11,10.78-7.28,20.12-16.71,31.67-22.67,18-9.29,39.27-9.12,59.54-8.52s41.41,1.25,59.82-7.26,32.87-29.34,27-48.76c-3.66-12.14-14.25-21-25.51-26.85s-23.6-9.37-34.88-15.17c-32.47-16.72-54.1-51.06-88.24-64C242.1,54.19,212,59.72,185.1,69.08c-11.38,4-22.61,3.28-34,6.9C138.42,80,127.23,87.85,115.5,94Z" transform="translate(-1.36 -58.98)" fill="#6777ef" opacity="0.24" style="isolation:isolate"/><path d="M199.53,198.28c-56.86,0-101.39-13.15-101.39-29.94s44.53-29.93,101.39-29.93,101.38,13.15,101.38,29.93S256.38,198.28,199.53,198.28Zm0-57.16c-53.49,0-98.68,12.47-98.68,27.22s45.19,27.23,98.68,27.23,98.67-12.47,98.67-27.23S253,141.12,199.53,141.12Z" transform="translate(-1.36 -58.98)" fill="#6777ef"/><path d="M202.63,226.67c-46.41,0-90.07-5.6-122.93-15.77C46.34,200.57,28,186.63,28,171.63s18.37-28.94,51.73-39.27c32.86-10.16,76.52-15.77,122.93-15.77s90.08,5.61,122.93,15.77c33.37,10.33,51.74,24.28,51.74,39.27s-18.37,28.94-51.74,39.27C292.71,221.07,249.05,226.67,202.63,226.67Zm0-107.26c-46.14,0-89.5,5.56-122.09,15.65-31.62,9.78-49.76,23.11-49.76,36.57s18.14,26.79,49.76,36.58c32.59,10.09,76,15.64,122.09,15.64s89.51-5.55,122.1-15.64c31.62-9.79,49.75-23.12,49.75-36.58s-18.13-26.79-49.75-36.57C292.14,125,248.78,119.41,202.63,119.41Z" transform="translate(-1.36 -58.98)" fill="#6777ef"/><g id="TWXE3W"><path d="M200.92,115.82a38.42,38.42,0,1,0,.27,76.83,38.42,38.42,0,0,0-.27-76.83Zm5.7,17.69a.53.53,0,0,1,.06-.31c.11-.16.23-.37.39-.41s.33.13.55.24c-.41.41-.23.64.12.82a.53.53,0,0,1,.21.18,3.47,3.47,0,0,0,.38.8,3,3,0,0,0,.79.46,6.13,6.13,0,0,1-.74.58,3.2,3.2,0,0,1-.81.35,3.28,3.28,0,0,1-.7,0,.69.69,0,0,0,0-.13l.48-.3c-.17-.21-.42-.39-.44-.59s.21-.4.35-.63c-.22-.36-.54-.52-.77-.37-.68.46-.73.58-.42,1.07-.44.17-.87.34-1.32.5-.1-.47.44-.88,0-1.3a1,1,0,0,1,.89-.49l.52,0C206.44,134,206.66,133.87,206.62,133.51Zm-11-9.79c.9.13,1.8.19,2.7.26a1,1,0,0,0,.91-.29c.1-.13.34-.15.52-.18.7-.11,1.41-.24,2.11-.31a4.21,4.21,0,0,1,1.12,0c.86.13,1.72.3,2.57.46a.73.73,0,0,1,.38.17c-.35,0-.72,0-1.07.08a2.06,2.06,0,0,0-.66.16c-.32.16-.62.33-.64.81a1,1,0,0,1-.8,1,10.41,10.41,0,0,0-1.37.61c-.23.11-.23.24,0,.37s.65.35,1,.56c-.55.21-.55.21-1.69-.32.16.28.32.54.49.81-.73.19-1.49.41-2.25.58a3.94,3.94,0,0,0-1.91.9,3.54,3.54,0,0,1-1.88.64c-.35.07-.64.13-.64.6,0,.17-.16.37-.3.51a3.18,3.18,0,0,1-.62.45,1.2,1.2,0,0,1-1.9-1,3,3,0,0,1,0-.73,3.63,3.63,0,0,1,.34-.83,1.82,1.82,0,0,1,.27-.29,1.69,1.69,0,0,0-.51-2.9,4.43,4.43,0,0,0-1.78-.6,2.08,2.08,0,0,1-.6-.29c.85-.14,1.67-.25,2.47-.4a7.79,7.79,0,0,0,1-.37A5.39,5.39,0,0,1,195.61,123.72Zm8.41,5.82a.65.65,0,0,1-.25.51,6.63,6.63,0,0,1-1,.5.75.75,0,0,1-.94-.21c-.11-.13-.34-.17-.51-.25a1,1,0,0,1,0-.14,5.32,5.32,0,0,1,.5-.21c.55-.15,1.08-.29,1.62-.42C203.62,129.26,203.93,129.26,204,129.54Zm-19.13-4.62c.25-.08.51-.13.78-.2s.61-.13.73-.52a.62.62,0,0,1,.39-.33l.38-.07c.4-.08.81-.15,1.22-.21a5.16,5.16,0,0,0,1-.14,4.37,4.37,0,0,1,1.86-.28,5.87,5.87,0,0,0,.59,0h.57a.61.61,0,0,0,0,.14,5,5,0,0,1-2.34,1,8.46,8.46,0,0,0-3.3,1.3c-.32.2-.64.36-.88-.12a0,0,0,0,1,0,0c0-.09-.22-.14-.36-.16a5.94,5.94,0,0,1-.92-.16A1.35,1.35,0,0,1,184.89,124.92Zm-2,1.1s-.06,0-.11-.06c.3-.5.62-.65,1.13-.41a2.07,2.07,0,0,0,1.58.12.6.6,0,0,1,.08.08c-.08.11-.13.27-.23.31s-.51.12-.77.21a.41.41,0,0,0-.24.27c0,.06.12.21.21.24l.34.09,2.68.76a.38.38,0,0,1,.17.24,1.94,1.94,0,0,1-.06.4c-.16.71,0,1,.77,1a.51.51,0,0,1-.42.53c-.48.12-1,.28-1.42.43-.23.07-.46.14-.39.46a.3.3,0,0,1-.1.2,1.17,1.17,0,0,1-1.38,0,.7.7,0,0,1,.4-1.16c.28-.07.58-.09.87-.17a.51.51,0,0,0,.32-.22c0-.07-.09-.24-.18-.33a3.89,3.89,0,0,0-2-1c-.22,0-.46-.06-.69-.08-.54,0-1.09-.09-1.64-.15-.23,0-.52,0-.54-.35a.49.49,0,0,1,.51-.58,7.89,7.89,0,0,0,1.09-.11c.16,0,.39-.14.41-.25C183.3,126.19,183.14,126,182.86,126Zm4.75,10.62c.14.16.39.41.35.54a.55.55,0,0,1-.64.41,13.52,13.52,0,0,0-1.47-.11,3.6,3.6,0,0,1,1.72-1.34l-.35.31A1.18,1.18,0,0,1,187.61,136.64ZM189,170.87a5.93,5.93,0,0,0-1.08.9,2.65,2.65,0,0,0-.36,1,17.66,17.66,0,0,1-.53,1.89c-.15.35-.58.58-.85.9a1.38,1.38,0,0,1-1.81.36c-.15.43.14.71.32,1,.26.47.26.47-.19.78a14.84,14.84,0,0,0-1.14,1,1,1,0,0,0-.29,1,4,4,0,0,1-.13,1,1.84,1.84,0,0,0-.07.51c0,.33.14.65.18,1,.07.55.11,1.12.16,1.68,0,.21.08.34.33.36a.44.44,0,0,1,.29.23c.15.32.28.64.41,1a.81.81,0,0,1-1.16-.16,1.83,1.83,0,0,0-.94-.84,2.92,2.92,0,0,1-1.49-1.45,3.61,3.61,0,0,1-.64-2.18,1.12,1.12,0,0,0-.7-1.31c-.11,0-.18-.24-.2-.38-.06-.54-.09-1.1-.14-1.64-.11-1.17-.25-2.33-.32-3.49,0-.87,0-1.75,0-2.62,0-.4,0-.79,0-1.17a2.53,2.53,0,0,0-1.79-2.22,1.1,1.1,0,0,1-.9-1.14,1.23,1.23,0,0,0-.69-1.15,2.64,2.64,0,0,1-1.23-1.48,1.42,1.42,0,0,0-.35-.5,1.23,1.23,0,0,1-.35-1.17,3.6,3.6,0,0,0-.06-.86,2.32,2.32,0,0,1-.05-.58,3.77,3.77,0,0,1,.6-1.57,8.06,8.06,0,0,0,.85-1.62,1.48,1.48,0,0,0-.51-1.76.74.74,0,0,0-.58,0,1,1,0,0,1-1.2-.07,4.93,4.93,0,0,1-1.71-1.83.6.6,0,0,0-.29-.23,1.75,1.75,0,0,0-.55-.12,1.93,1.93,0,0,1-1.31-.65,1.89,1.89,0,0,0-1.57-.58.48.48,0,0,1-.24,0,6.59,6.59,0,0,1-3.07-1.78,1.47,1.47,0,0,1-.26-1.18,36.12,36.12,0,0,1,1.58-6.88,37,37,0,0,1,4.84-9.67c.77-1.11,1.66-2.16,2.5-3.23.12-.16.25-.24.43-.11a1.08,1.08,0,0,0,.84.12c.69-.08,1.39-.05,2.06-.19a13.18,13.18,0,0,0,2.36-.74,2.11,2.11,0,0,0,1.05-1.55q.07-.27.18-.54c.2-.66.2-.66.87-.51.48.12,1,.23,1.4.32-.39.14-.8.27-1.19.43s-.27.25-.1.44.53.67.81,1c.09.08.29.15.36.11a3.71,3.71,0,0,1,1.78-.24,4.18,4.18,0,0,1-.55.74,1.64,1.64,0,0,1-.74.32c-.69.14-1.4.23-2.1.34a1,1,0,0,1-1,.83,5.15,5.15,0,0,0-2.46,1.13,1.15,1.15,0,0,0-.51,1.46c.07.22.14.51.5.32.05,0,.17,0,.25.07.34.18.66.37,1,.54s.56.35.93.22c.08,0,.19,0,.19,0-.09.56-.18,1.06-.28,1.62a1.13,1.13,0,0,0,1-.5c.65-1,1.34-1.86,2-2.78a3.43,3.43,0,0,0,.29-.41h0a1.78,1.78,0,0,1,2-.91c.46.07.77.17.73.72,0,.08.22.22.34.24a3,3,0,0,0,1.75-.41,1.25,1.25,0,0,1,.07.26,1.45,1.45,0,0,1,0,.36,1.93,1.93,0,0,0,1.13,2.28l.18.09a3.86,3.86,0,0,1-2.45,1.06,3.58,3.58,0,0,0-1.81.48,10.43,10.43,0,0,1-1.42.54,2,2,0,0,0-.46.38l.06.12,1.81-.16c-.07.44,0,.7.47.74.17,0,.32.26.54.44-.77.15-1.17,1-2.16.8l.78-.72c-.36-.41-.46-.45-.94-.14s-.91.67-1.37,1c-.12.09-.23.23-.36.25-.8.15-1.19.81-1.71,1.33l-.11.11a1.18,1.18,0,0,1-.86.47.65.65,0,0,0-.43.16.79.79,0,0,0-.26.48,1.65,1.65,0,0,1-.94,1.64,10.7,10.7,0,0,0-1.58,1,1.53,1.53,0,0,0-.31,1.67,1.42,1.42,0,0,1,0,1.24c0,.1-.27.18-.42.18s-.25-.14-.28-.25c-.12-.5-.21-1-.33-1.52a2.49,2.49,0,0,0-.26-.48l-.1,0c0,.19,0,.38,0,.57a.25.25,0,0,1-.1.08c-.14-.15-.26-.3-.4-.43a3.18,3.18,0,0,0-.63-.46.5.5,0,0,0-.66.22c-.25.32-.53.62-.78.91a8.19,8.19,0,0,0-.66-.72.42.42,0,0,0-.36-.09,2,2,0,0,0-1.24.71,7.87,7.87,0,0,1-1.08,1.08.88.88,0,0,0-.26,1.14,1,1,0,0,1,0,.52,1.89,1.89,0,0,0,1.36,2.18,1.09,1.09,0,0,0,1.31-.51c.1-.22.17-.45.27-.67a.48.48,0,0,1,.66-.3.72.72,0,0,1,.2.61,8,8,0,0,1-.34,1.11c-.13.42,0,.6.39.7s.64.1,1,.14a.56.56,0,0,1,.58.69,7.47,7.47,0,0,0,0,1.42,1.58,1.58,0,0,0,.43.72.47.47,0,0,0,.5,0,1.06,1.06,0,0,1,1-.09c.12.05.26.08.38.12.58.14.73,0,1.13-.39a3.2,3.2,0,0,1,.87-.6.27.27,0,0,1,.28.08.26.26,0,0,1,0,.27c-.32.28-.15.42.13.54l.68.29c-.44-.71.14-.95.4-1.38.1.08.21.13.3.21a1.79,1.79,0,0,0,1.48.59h.08a2.93,2.93,0,0,1,2,.82,6,6,0,0,0,2.63,1.32,1.42,1.42,0,0,1,1,.71c.18.3.41.57.59.86.29.46.2.78-.28,1l-.46.23c.12.23.27.3.49.17a2.1,2.1,0,0,1,.52-.21c.13,0,.27.11.38.2s-.06.16-.09.25-.06.22,0,.23a.45.45,0,0,0,.28.07.33.33,0,0,0,.21-.11.85.85,0,0,1,1.27,0c.05.05.15.08.15.12.06.67.51.4.8.29a1.06,1.06,0,0,1,.87.05c.69.3,1.42.54,2.15.8a.51.51,0,0,1,.38.48,3.84,3.84,0,0,1-1,3.14.52.52,0,0,1-.22.17c-.32.14-.34.4-.35.69a20.68,20.68,0,0,1-.11,2.23,5,5,0,0,1-.47,1.31c-.16.34-.32.69-.86.6a.76.76,0,0,0-.47.16C189.18,170.73,189.08,170.81,189,170.87Zm40.26-3c-.3.74-.48,1.54-.73,2.3a2.78,2.78,0,0,1-.33.64c-.37.71-.37.71-1.14.57a1.18,1.18,0,0,1-.74-1.49,3.54,3.54,0,0,0,.5-.82,2.27,2.27,0,0,0,0-1,1.1,1.1,0,0,1,.68-1.08.53.53,0,0,0,.3-.14c.38-.38.77-.78,1.13-1.18a2.12,2.12,0,0,0,.21-.4A3.73,3.73,0,0,1,229.24,167.87Zm7.29-19.78a1.06,1.06,0,0,0-.94-.4,8.63,8.63,0,0,1-3.63-.57,8.39,8.39,0,0,1-2.35-1,6.26,6.26,0,0,0-1.9-.64,1.23,1.23,0,0,1,.07.32c-.15.92.54,1.35,1.07,1.88.23.22.45.45.7.72l1.59-.43a.85.85,0,0,1,1,.39,9.67,9.67,0,0,0,.89.93c.28.31.21.39-.11.63a9.28,9.28,0,0,0-2.33,1.85.94.94,0,0,1-.29.27c-.51.33-1,.64-1.53,1a1.4,1.4,0,0,1-2-.72,5.45,5.45,0,0,0-1.11-2,4.89,4.89,0,0,1-.59-1.19,2.11,2.11,0,0,0-1-1,1.39,1.39,0,0,1-.85-.9c-.2-.57-.49-1.13-.73-1.7-.57.24-.57.24-.41.8a10.2,10.2,0,0,0,1.25,2.73,21,21,0,0,1,2.4,4.2c.14.4.24.83.4,1.22.24.59.51.66,1.06.34a.46.46,0,0,1,.19-.08l2.16,0a14.94,14.94,0,0,1-.35,1.72,3.31,3.31,0,0,1-.68,1.3,12.41,12.41,0,0,1-1.59,1.15,1,1,0,0,0-.34.36c-.62,1.14-1.21,2.28-1.82,3.41-.16.29-.21.52,0,.76.85.91.6,2,.61,3.11,0,.12-.19.27-.33.35a5.29,5.29,0,0,0-1.81,1.32,2,2,0,0,0-.4.84,7.13,7.13,0,0,1-.87,2.61c-.69,1.17-1.3,2.4-1.93,3.6a.75.75,0,0,1-.64.48l-1.85.11c-.27,0-.53.08-.8.1a.56.56,0,0,1-.35-.09c-.22-.17-.41-.38-.58-.53a3.38,3.38,0,0,0-.46-1.76,4.29,4.29,0,0,0-.4-.55,3.51,3.51,0,0,1-.63-2,2.72,2.72,0,0,0-.35-1.12,5.3,5.3,0,0,1-.84-2.33,4,4,0,0,1,.25-1.37,2.61,2.61,0,0,1,.24-.54,1.63,1.63,0,0,0,.1-1.21,10,10,0,0,0-1.72-3.83,1,1,0,0,1,0-1,8.35,8.35,0,0,1,.43-.77c.15-.22.14-.4-.13-.5a.74.74,0,0,1-.52-.57c0-.08-.23-.2-.34-.19a1.76,1.76,0,0,1-1.46-.53c-.19-.19-.61-.19-.94-.21a2.49,2.49,0,0,0-.7.14l-3.29.79a1.52,1.52,0,0,1-1.47-.47,2.15,2.15,0,0,0-.32-.29,1.64,1.64,0,0,1-.8-1.36.76.76,0,0,0-.42-.56c-1-.32-1.14-1.22-1.41-2a.9.9,0,0,1,.19-.69.79.79,0,0,0,.19-.92,2.66,2.66,0,0,1,.21-2.55,3.54,3.54,0,0,1,1.13-1.39c.19-.13.24-.46.42-.61a3.85,3.85,0,0,0,1.12-1.9,2.28,2.28,0,0,1,.64-.76c.4-.38.83-.73,1.23-1.11.22-.2.37-.22.53.06a.44.44,0,0,0,.33.19l1.82-.24a3.45,3.45,0,0,1,.54-.11,5.57,5.57,0,0,0,2.54-.55.81.81,0,0,1,.57,0c.06,0,.06.27.05.42a1.35,1.35,0,0,0,.55,1.06l.89.86c.06.05.13.13.2.14.6.1,1.21.21,1.83.26.3,0,.5-.11.6-.48s.41-.49.62-.73a.69.69,0,0,0,0,.13,2.3,2.3,0,0,0,.42.35,4.94,4.94,0,0,0,1,.43,2.63,2.63,0,0,0,.79,0,2.26,2.26,0,0,1,.45,0c.64.09,1.27.17,1.91.3a.59.59,0,0,0,.57-.18,1.33,1.33,0,0,0,.66-1.58,6.13,6.13,0,0,1-.13-.82,1.44,1.44,0,0,0-1.23.1,1.17,1.17,0,0,1-1.45-.13,3,3,0,0,1-1.31-1.72c.62.31.87-.07,1.16-.62-.77.18-1.46.32-2.14.51a.43.43,0,0,0-.26.66.43.43,0,0,1,.07.26,1.81,1.81,0,0,1-.14.45c-.19-.08-.47-.11-.55-.27s-.19-.51-.51-.61a.16.16,0,0,1-.09-.12c.06-.65-.51-1-.78-1.44a.63.63,0,0,0-.45-.19,1.29,1.29,0,0,1-1.07-.55,1.45,1.45,0,0,0-.36-.38c-.21-.16-.47-.27-.67,0a.5.5,0,0,0,0,.76,3.58,3.58,0,0,0,1.37,1,1.32,1.32,0,0,1,.71.77,1.09,1.09,0,0,1-1.69-.43,3.64,3.64,0,0,0-.44-.53,8.32,8.32,0,0,0-.83-.94c-.41-.37-1.21-.4-1.3.31a1.23,1.23,0,0,1-.06.22l-.27-.08a1,1,0,0,0-1.25.48c-.1.15-.25.28-.36.42a1.21,1.21,0,0,0-.27.38,1.56,1.56,0,0,1-1.2,1.17,13.47,13.47,0,0,1-2.3.19.49.49,0,0,1-.34-.33,6.61,6.61,0,0,1,0-1.6,1.13,1.13,0,0,1,1.19-.89h1.62c.2,0,.33-.06.31-.31a1.31,1.31,0,0,1,0-.28c.11-.64.08-.71-.5-1.05-.17-.1-.36-.17-.53-.27s-.19-.15-.18-.22a.3.3,0,0,1,.19-.22,2.6,2.6,0,0,1,.62-.11,2.14,2.14,0,0,0,2-1.26,1.25,1.25,0,0,1,1.06-.81c.77-.12.91-.32,1-1.11a3,3,0,0,1,.21-.59h.16a5.31,5.31,0,0,1,.33.83.7.7,0,0,0,.58.59,5.15,5.15,0,0,0,.88,0c.51-.07,1-.17,1.51-.24.18,0,.29,0,.35-.27s.3-.36.47-.53.4-.25.41-.57a.87.87,0,0,1,.81-.62.66.66,0,0,1,.4.27,2.9,2.9,0,0,1,.23.59,1.94,1.94,0,0,0,.58-1.92,3.82,3.82,0,0,1-.62.13,3.23,3.23,0,0,1-.88,0c-.84-.18-1-.57-.52-1.27.16-.25.34-.75.26-.8-.32-.24-.61.06-.83.26a3.44,3.44,0,0,0-1.14,1.71,6.09,6.09,0,0,1-.72,1.68c-.13.22-.55.31-.85.35-.11,0-.29-.24-.41-.4a4.74,4.74,0,0,1-.31-.54.65.65,0,0,0,0,.13l-1.78.09a1.61,1.61,0,0,1-.07-.25c-.26-1.28-.38-1.11.86-1.6a3.67,3.67,0,0,0,1-.81l.84-.72a.71.71,0,0,0,.15-.15c.84-1.12,2.09-1.3,3.35-1.5a7.89,7.89,0,0,1,3.3.59l1.8.53c-.82.66-1.56,0-2.26.12,0,0-.05.08,0,.09a13.5,13.5,0,0,0,1.28,1.23.62.62,0,0,0,.88-.42c.07-.25.18-.37.45-.37a.86.86,0,0,0,.78-.54c.14-.27.32-.39.61-.28,0,.31.1.45.41.35a1.26,1.26,0,0,0,.33-.16,1.9,1.9,0,0,1,1.2-.27,5.74,5.74,0,0,0,1.72-.36c.53-.14.81-.09,1.08.21a38.05,38.05,0,0,1,6.26,8.64,37.54,37.54,0,0,1,4,12,.56.56,0,0,1,0,.13C237.45,149.3,237,148.61,236.53,148.09Z" transform="translate(-1.36 -58.98)" fill="#6777ef"/><path d="M238.39,149.1c-.95.2-1.37-.49-1.87-1a1,1,0,0,0-.94-.4,11.92,11.92,0,0,1-6-1.61,5.53,5.53,0,0,0-1.9-.63,1.06,1.06,0,0,1,.07.3c-.15.93.53,1.36,1.07,1.89.23.22.44.45.7.72l1.59-.43a.85.85,0,0,1,1,.38,9.71,9.71,0,0,0,.88.94c.29.31.22.4-.11.63a9.41,9.41,0,0,0-2.32,1.85,1,1,0,0,1-.29.26c-.51.34-1,.66-1.53,1a1.39,1.39,0,0,1-2-.71,5.45,5.45,0,0,0-1.11-2,4.83,4.83,0,0,1-.59-1.18,2,2,0,0,0-1-1.05,1.42,1.42,0,0,1-.85-.89c-.2-.59-.48-1.14-.73-1.71-.57.24-.57.24-.42.8a10.73,10.73,0,0,0,1.26,2.73,21,21,0,0,1,2.4,4.2c.14.4.24.83.4,1.22.25.59.51.66,1.06.34a.36.36,0,0,1,.18-.08l2.17,0c-.12.59-.18,1.18-.35,1.73a3.26,3.26,0,0,1-.68,1.29,13.46,13.46,0,0,1-1.59,1.15,1.2,1.2,0,0,0-.35.36c-.61,1.13-1.19,2.28-1.81,3.41-.16.29-.21.52,0,.76.84.91.6,2,.61,3.11,0,.11-.19.27-.33.35a5.49,5.49,0,0,0-1.81,1.32,2,2,0,0,0-.4.84,6.74,6.74,0,0,1-.88,2.61c-.68,1.18-1.29,2.4-1.91,3.6a.77.77,0,0,1-.65.48c-.62,0-1.23.06-1.85.11-.27,0-.53.08-.8.1a.5.5,0,0,1-.34-.09c-.23-.17-.42-.38-.59-.53a3.6,3.6,0,0,0-.45-1.76c-.13-.19-.26-.38-.41-.56a3.45,3.45,0,0,1-.63-1.94,2.67,2.67,0,0,0-.35-1.13,5.39,5.39,0,0,1-.85-2.33,3.92,3.92,0,0,1,.27-1.36,2,2,0,0,1,.24-.56,1.65,1.65,0,0,0,.08-1.2,10,10,0,0,0-1.71-3.83,1,1,0,0,1,0-1,7.3,7.3,0,0,1,.44-.77c.15-.23.14-.4-.14-.5a.68.68,0,0,1-.5-.57.44.44,0,0,0-.35-.19,1.76,1.76,0,0,1-1.45-.53,1.64,1.64,0,0,0-.94-.21,2.49,2.49,0,0,0-.71.14l-3.29.79a1.56,1.56,0,0,1-1.47-.46,2.27,2.27,0,0,0-.32-.3,1.66,1.66,0,0,1-.8-1.37.77.77,0,0,0-.42-.55c-1-.32-1.13-1.22-1.4-2a.83.83,0,0,1,.18-.68.78.78,0,0,0,.18-.92,2.72,2.72,0,0,1,.22-2.55,3.55,3.55,0,0,1,1.13-1.39c.19-.13.24-.46.42-.61a3.85,3.85,0,0,0,1.12-1.9,2.28,2.28,0,0,1,.64-.76c.4-.38.83-.73,1.23-1.11.22-.2.37-.23.54.06a.39.39,0,0,0,.32.19c.6-.07,1.21-.16,1.82-.25a3.53,3.53,0,0,1,.55-.1,5.69,5.69,0,0,0,2.53-.55.78.78,0,0,1,.56,0c.07,0,.07.28.06.42a1.32,1.32,0,0,0,.55,1.06c.29.29.6.57.9.85.05.06.11.14.18.15.61.1,1.22.21,1.83.26.31,0,.51-.11.62-.48s.39-.49.6-.73l.06.13a2.36,2.36,0,0,0,.43.35,5,5,0,0,0,1,.43,3,3,0,0,0,.79,0,2.26,2.26,0,0,1,.45,0c.63.09,1.28.17,1.91.3a.6.6,0,0,0,.57-.18,1.33,1.33,0,0,0,.66-1.58,6.56,6.56,0,0,1-.12-.81,1.46,1.46,0,0,0-1.24.09,1.18,1.18,0,0,1-1.45-.13,3,3,0,0,1-1.31-1.72c.61.31.87-.07,1.16-.62-.77.18-1.46.32-2.14.52a.42.42,0,0,0-.26.65.52.52,0,0,1,.07.27,3.66,3.66,0,0,1-.13.44c-.2-.08-.48-.12-.56-.26s-.2-.52-.5-.62a.17.17,0,0,1-.1-.12c.06-.65-.51-1-.78-1.44-.06-.12-.29-.18-.45-.19a1.33,1.33,0,0,1-1.07-.55,1.63,1.63,0,0,0-.36-.38c-.21-.17-.47-.28-.68,0a.49.49,0,0,0,0,.75,3.57,3.57,0,0,0,1.37,1,1.35,1.35,0,0,1,.71.77,1.09,1.09,0,0,1-1.69-.43,4.33,4.33,0,0,0-.43-.53,11,11,0,0,0-.84-.95c-.41-.36-1.21-.39-1.3.32a.73.73,0,0,1-.06.22l-.27-.08a1,1,0,0,0-1.25.47c-.1.16-.25.28-.36.43a1.28,1.28,0,0,0-.28.39,1.52,1.52,0,0,1-1.18,1.15,12.75,12.75,0,0,1-2.32.2.49.49,0,0,1-.33-.34,7,7,0,0,1,0-1.59,1.1,1.1,0,0,1,1.17-.89c.54,0,1.08,0,1.62,0,.21,0,.34-.07.32-.31a1.31,1.31,0,0,1,0-.28c.11-.63.08-.71-.5-1.05-.17-.1-.36-.17-.53-.27s-.19-.15-.18-.22a.3.3,0,0,1,.19-.22,3.32,3.32,0,0,1,.63-.11,2.12,2.12,0,0,0,2-1.26,1.25,1.25,0,0,1,1.06-.81c.77-.12.9-.32,1-1.11a3.19,3.19,0,0,1,.21-.59h.17a5.93,5.93,0,0,1,.32.83c.08.33.25.55.58.58a3.7,3.7,0,0,0,.88,0c.51-.06,1-.16,1.51-.22.19,0,.3,0,.36-.28s.29-.36.46-.53.4-.25.41-.58.53-.65.82-.61a.67.67,0,0,1,.39.28,2.6,2.6,0,0,1,.23.58,2,2,0,0,0,.58-1.92,3.53,3.53,0,0,1-.63.13,2.82,2.82,0,0,1-.87,0c-.84-.18-1-.56-.52-1.27.16-.24.33-.75.26-.81-.32-.23-.61.07-.83.27a3.48,3.48,0,0,0-1.14,1.71,6,6,0,0,1-.72,1.68c-.14.22-.55.31-.85.35-.12,0-.29-.24-.41-.4a5.79,5.79,0,0,1-.31-.54l0,.13-1.78.09c0-.1-.06-.17-.08-.25-.25-1.29-.37-1.11.86-1.6a4.1,4.1,0,0,0,1-.8l.84-.74a.93.93,0,0,0,.15-.13c.84-1.13,2.09-1.31,3.35-1.51a7.82,7.82,0,0,1,3.31.6c.56.15,1.12.33,1.79.52-.81.65-1.56,0-2.27.12l0,.09a13.43,13.43,0,0,0,1.29,1.22c.31.23.78,0,.89-.41s.17-.37.43-.37a.89.89,0,0,0,.8-.54c.13-.27.31-.39.6-.28,0,.32.1.45.41.35a1.2,1.2,0,0,0,.32-.16,2,2,0,0,1,1.22-.27,6.06,6.06,0,0,0,1.71-.35.94.94,0,0,1,1.09.19,38.65,38.65,0,0,1,6.26,8.65,37.77,37.77,0,0,1,3.95,12Z" transform="translate(-1.36 -58.98)" fill="#fff"/><path d="M178.65,134.38l-.28,1.61a1.1,1.1,0,0,0,1-.51c.65-.93,1.34-1.84,2-2.76a4.15,4.15,0,0,0,.3-.43,1.78,1.78,0,0,1,2-.91c.46.07.78.17.74.72,0,.08.2.22.33.24a3,3,0,0,0,1.74-.41,1.29,1.29,0,0,1,.08.26,1.45,1.45,0,0,1,0,.36,1.92,1.92,0,0,0,1.13,2.27l.18.09a3.88,3.88,0,0,1-2.45,1.07,3.52,3.52,0,0,0-1.8.48,11.1,11.1,0,0,1-1.43.54,2.32,2.32,0,0,0-.46.38l.06.12,1.81-.16c-.07.44,0,.7.47.75.17,0,.33.24.55.42-.79.16-1.18,1-2.16.81l.77-.72c-.37-.4-.46-.44-.94-.14s-.91.67-1.37,1c-.12.09-.23.23-.36.26-.8.14-1.19.8-1.7,1.32a1.45,1.45,0,0,1-1,.58.65.65,0,0,0-.43.16.77.77,0,0,0-.26.48,1.62,1.62,0,0,1-.94,1.63,12.66,12.66,0,0,0-1.58,1,1.5,1.5,0,0,0-.3,1.66,1.48,1.48,0,0,1,0,1.25c0,.1-.27.18-.42.19s-.24-.15-.27-.26c-.13-.5-.21-1-.34-1.52a2.91,2.91,0,0,0-.26-.49l-.1.05v.58l-.1.07a5.33,5.33,0,0,0-.4-.42,3.13,3.13,0,0,0-.63-.47.5.5,0,0,0-.66.21,11.93,11.93,0,0,1-.78.91,9.61,9.61,0,0,0-.66-.71.45.45,0,0,0-.37-.09,2,2,0,0,0-1.22.7,7.87,7.87,0,0,1-1.08,1.08.89.89,0,0,0-.27,1.16.94.94,0,0,1,0,.5,1.9,1.9,0,0,0,1.36,2.19,1.09,1.09,0,0,0,1.31-.51c.1-.22.18-.45.27-.67a.48.48,0,0,1,.66-.3c.14.07.23.41.2.61a7.63,7.63,0,0,1-.35,1.12c-.13.41,0,.59.4.69s.64.1,1,.14a.57.57,0,0,1,.58.7,6.56,6.56,0,0,0,0,1.4,1.64,1.64,0,0,0,.43.74.55.55,0,0,0,.5,0,1,1,0,0,1,1-.09l.39.1c.57.14.73,0,1.11-.38a3.42,3.42,0,0,1,.88-.6.3.3,0,0,1,.28.07.26.26,0,0,1,0,.28c-.31.28-.14.42.14.54l.68.28c-.43-.7.14-.94.4-1.36a1.34,1.34,0,0,1,.29.2,1.85,1.85,0,0,0,1.5.59,2.9,2.9,0,0,1,2.06.82,5.89,5.89,0,0,0,2.64,1.32,1.45,1.45,0,0,1,1,.71c.18.3.41.57.6.86a.62.62,0,0,1-.29,1l-.46.21c.13.24.26.31.49.18a1.51,1.51,0,0,1,.52-.2.7.7,0,0,1,.38.18s-.06.17-.09.26-.07.22,0,.24a.51.51,0,0,0,.28.07.41.41,0,0,0,.21-.12.84.84,0,0,1,1.27,0c.05,0,.15.07.15.12.06.66.51.39.8.28a1,1,0,0,1,.86.05c.71.3,1.43.55,2.16.79a.53.53,0,0,1,.39.49,3.85,3.85,0,0,1-1,3.13.48.48,0,0,1-.22.18c-.32.14-.35.4-.35.7,0,.74,0,1.49-.11,2.22a5.27,5.27,0,0,1-.47,1.31c-.16.34-.32.69-.86.6-.24,0-.55.2-.79.37a5.18,5.18,0,0,0-1.08.89,2.66,2.66,0,0,0-.36,1,14.64,14.64,0,0,1-.53,1.89c-.15.36-.58.59-.85.9a1.36,1.36,0,0,1-1.81.37c-.15.44.14.71.31,1,.27.47.27.46-.18.78a14.84,14.84,0,0,0-1.14,1,1.07,1.07,0,0,0-.3,1,3.58,3.58,0,0,1-.13,1,2.15,2.15,0,0,0-.07.5c0,.33.15.66.19,1,.07.56.11,1.12.16,1.67,0,.21.08.35.34.37.1,0,.23.13.28.23.15.31.27.64.41,1a.83.83,0,0,1-1.17-.16,1.84,1.84,0,0,0-.94-.84,2.85,2.85,0,0,1-1.47-1.45,3.48,3.48,0,0,1-.64-2.18,1.14,1.14,0,0,0-.71-1.31c-.1,0-.18-.24-.2-.37-.06-.55-.09-1.1-.14-1.65-.11-1.17-.25-2.33-.32-3.49,0-.87,0-1.75,0-2.62,0-.4,0-.79,0-1.18a2.52,2.52,0,0,0-1.79-2.21,1.1,1.1,0,0,1-.9-1.14,1.25,1.25,0,0,0-.69-1.15,2.68,2.68,0,0,1-1.23-1.48,1.54,1.54,0,0,0-.34-.49,1.24,1.24,0,0,1-.36-1.18,3.6,3.6,0,0,0-.06-.86,2.35,2.35,0,0,1-.05-.59,3.84,3.84,0,0,1,.6-1.56,8.06,8.06,0,0,0,.85-1.62,1.5,1.5,0,0,0-.51-1.76.67.67,0,0,0-.57,0,1.07,1.07,0,0,1-1.21-.07,5,5,0,0,1-1.71-1.84.68.68,0,0,0-.29-.24,2.71,2.71,0,0,0-.55-.12,1.87,1.87,0,0,1-1.31-.64,1.89,1.89,0,0,0-1.57-.58.65.65,0,0,1-.24,0,6.57,6.57,0,0,1-3.06-1.79,1.43,1.43,0,0,1-.27-1.18,37.58,37.58,0,0,1,1.57-6.87,37.06,37.06,0,0,1,4.85-9.68c.77-1.12,1.66-2.15,2.49-3.23.13-.16.26-.23.44-.1a1.09,1.09,0,0,0,.85.11c.68-.08,1.38-.05,2-.19a13,13,0,0,0,2.37-.74,2.13,2.13,0,0,0,1.06-1.55c.05-.18.11-.36.16-.54.2-.66.2-.66.89-.5l1.39.31c-.39.14-.8.27-1.19.43-.23.09-.27.24-.1.44s.53.68.82,1a.39.39,0,0,0,.35.12,3.56,3.56,0,0,1,1.77-.24,3.73,3.73,0,0,1-.54.74,1.64,1.64,0,0,1-.74.32c-.69.14-1.4.23-2.1.34a1,1,0,0,1-1,.84,5,5,0,0,0-2.45,1.12,1.14,1.14,0,0,0-.52,1.46c.07.22.14.5.5.33.06,0,.17,0,.25.07.33.17.66.36,1,.53s.56.35.93.23A.26.26,0,0,1,178.65,134.38Z" transform="translate(-1.36 -58.98)" fill="#fff"/><path d="M189.34,125c.86-.14,1.68-.25,2.48-.41a6.52,6.52,0,0,0,1-.36,5.37,5.37,0,0,1,2.77-.52c.89.13,1.79.19,2.69.26a1,1,0,0,0,.92-.3c.09-.12.34-.14.52-.17.7-.11,1.4-.24,2.11-.31a4.21,4.21,0,0,1,1.12,0c.86.14,1.72.3,2.58.46a.66.66,0,0,1,.37.17c-.36,0-.72,0-1.07.08a2.13,2.13,0,0,0-.66.16c-.32.16-.62.34-.63.81a1.05,1.05,0,0,1-.81,1,13.94,13.94,0,0,0-1.37.61c-.24.11-.24.24,0,.37l1,.55c-.55.22-.55.22-1.69-.3l.49.8c-.74.19-1.49.41-2.25.58a4.17,4.17,0,0,0-1.91.9,3.56,3.56,0,0,1-1.88.64c-.35.06-.64.13-.63.61a.91.91,0,0,1-.31.5,3.43,3.43,0,0,1-.61.45,1.2,1.2,0,0,1-1.91-1,2.5,2.5,0,0,1,0-.72,2.94,2.94,0,0,1,.33-.83,1.08,1.08,0,0,1,.27-.3,1.69,1.69,0,0,0-.51-2.9,4.33,4.33,0,0,0-1.77-.6A1.75,1.75,0,0,1,189.34,125Z" transform="translate(-1.36 -58.98)" fill="#fff"/><path d="M182.76,126c.29-.5.61-.65,1.11-.42a2,2,0,0,0,1.59.12l.08.09c-.07.11-.13.27-.23.32s-.52.11-.76.2a.43.43,0,0,0-.25.26c0,.07.12.22.21.25l3,.85a.34.34,0,0,1,.18.25,1.4,1.4,0,0,1-.07.39c-.16.72,0,1,.78,1a.52.52,0,0,1-.42.53c-.48.13-1,.27-1.43.43-.21.07-.44.14-.38.46,0,.06-.05.15-.1.2a1.19,1.19,0,0,1-1.38,0,.7.7,0,0,1,.4-1.16c.28-.07.58-.09.87-.17a.51.51,0,0,0,.32-.22c0-.07-.09-.24-.18-.32a4.1,4.1,0,0,0-2.68-1.07c-.55,0-1.1-.09-1.65-.15-.23,0-.53,0-.55-.35a.5.5,0,0,1,.53-.58,9.88,9.88,0,0,0,1.08-.11c.15,0,.39-.14.41-.25.05-.26-.11-.43-.4-.43C182.83,126,182.81,126,182.76,126Z" transform="translate(-1.36 -58.98)" fill="#fff"/><path d="M229.12,165.3a3.73,3.73,0,0,1,.12,2.57c-.3.74-.48,1.54-.73,2.3a3.92,3.92,0,0,1-.32.65c-.38.7-.38.7-1.15.56a1.17,1.17,0,0,1-.74-1.49,4.39,4.39,0,0,0,.5-.82,2.27,2.27,0,0,0,0-1,1.07,1.07,0,0,1,.68-1.07.66.66,0,0,0,.3-.15c.39-.39.77-.78,1.13-1.18A1.85,1.85,0,0,0,229.12,165.3Z" transform="translate(-1.36 -58.98)" fill="#fff"/><path d="M192.39,123.25a5.08,5.08,0,0,1-2.34,1,8.46,8.46,0,0,0-3.3,1.3c-.33.2-.65.37-.89-.13-.05-.09-.23-.14-.35-.16a6,6,0,0,1-.93-.17,1.12,1.12,0,0,1,.3-.2c.26-.08.53-.13.79-.2s.62-.13.73-.52a.59.59,0,0,1,.39-.33c.52-.12,1.06-.19,1.6-.28a4.45,4.45,0,0,0,1-.14,4.4,4.4,0,0,1,1.86-.28,5.63,5.63,0,0,0,.59,0h.57Z" transform="translate(-1.36 -58.98)" fill="#fff"/><path d="M207.25,134.57c-.23-.35-.56-.51-.79-.36-.67.46-.72.58-.41,1.07l-1.32.5c-.1-.46.44-.88,0-1.3a1,1,0,0,1,.89-.49l.52,0c.28,0,.5-.11.46-.46a.54.54,0,0,1,.06-.31c.11-.16.23-.38.39-.41s.33.13.55.24c-.4.41-.23.64.12.82a.53.53,0,0,1,.21.18,3.47,3.47,0,0,0,.38.8,3,3,0,0,0,.8.46,7,7,0,0,1-.75.58,3.06,3.06,0,0,1-.81.35,2.71,2.71,0,0,1-.7,0l0-.13.49-.31c-.17-.21-.43-.39-.45-.59S207.11,134.81,207.25,134.57Z" transform="translate(-1.36 -58.98)" fill="#fff"/><path d="M201.24,130a4.55,4.55,0,0,1,.51-.21c.53-.15,1.07-.29,1.61-.42.27-.06.56-.06.65.22s-.11.41-.25.5a5.2,5.2,0,0,1-1,.51.75.75,0,0,1-.94-.21c-.11-.14-.34-.17-.52-.26Z" transform="translate(-1.36 -58.98)" fill="#fff"/><path d="M185.85,137.47a3.64,3.64,0,0,1,1.72-1.33l-.35.31c.16.07.31.1.38.19s.4.41.36.54a.55.55,0,0,1-.64.41C186.85,137.51,186.37,137.51,185.85,137.47Z" transform="translate(-1.36 -58.98)" fill="#fff"/></g><path d="M220.76,186.72l-.06.44a38.42,38.42,0,1,1-26.09-70.83,54,54,0,0,0-7.44,7.47c-.43.53-.88,1.09-1.3,1.66s-.69.92-1,1.41-.5.73-.74,1.1a40,40,0,0,0-2.45,4.32h0a33.08,33.08,0,0,0-2.9,8.85,28.25,28.25,0,0,0,1.14,14,35.16,35.16,0,0,0,3,6.55,61.48,61.48,0,0,0,6.39,9C203.83,187.57,220.76,186.72,220.76,186.72Z" transform="translate(-1.36 -58.98)" fill="url(#linear-gradient)"/><path d="M379.86,179.63C378.8,183.71,374,183,374,183s-28,.52-28.55,0-.15-2.08-.05-2.67l.05-.21h8s3.78-2-2.41-10.87c-5.21-7.49,14.43-7.83,20.85-7.74,1.22,0,2,0,2,0S380.91,175.55,379.86,179.63Z" transform="translate(-1.36 -58.98)" fill="#6777ef"/><path d="M376.53,176.77c-1,4.07-5.89,3.31-5.89,3.31s-17.75.35-25.27.21l.05-.21h8s3.78-2-2.41-10.87c-5.21-7.49,14.43-7.83,20.85-7.74C373.86,165.78,377.3,173.84,376.53,176.77Z" transform="translate(-1.36 -58.98)" fill="#6777ef"/><path d="M377.68,177.37c-1.05,4.07-7,2.71-7,2.71s-17.75.35-25.27.21l.05-.21h8s3.78-2-2.41-10.87c-5.21-7.49,14.43-7.83,20.85-7.74C373.86,165.78,378.44,174.44,377.68,177.37Z" transform="translate(-1.36 -58.98)" fill="url(#linear-gradient-2)"/><rect x="322.81" y="62.2" width="71.14" height="47.74" rx="5.63" fill="#6777ef"/><rect x="322.81" y="62.2" width="71.14" height="47.74" rx="5.63" fill="url(#linear-gradient-3)"/><rect x="321.3" y="62.2" width="71.14" height="47.74" rx="5.63" fill="#6777ef"/><rect x="321.3" y="62.2" width="71.14" height="47.74" rx="5.63" fill="url(#linear-gradient-4)"/><path d="M393.75,158.54l.05,4.74a5.63,5.63,0,0,1-5.64,5.63H328.29a5.63,5.63,0,0,1-5.63-5.63l0-4.74Z" transform="translate(-1.36 -58.98)" fill="#6777ef"/><rect x="344.06" y="121.33" width="27.92" height="2.65" fill="url(#linear-gradient-5)"/><path d="M377.68,177.37l.26,4.75a5.91,5.91,0,0,1-4.6.84V180.3S377.3,181.44,377.68,177.37Z" transform="translate(-1.36 -58.98)" fill="url(#linear-gradient-6)"/><path d="M44.77,149.66c.81,3.09,4.47,2.53,4.47,2.53s21.24.39,21.64,0,.11-1.58,0-2a.61.61,0,0,0,0-.15H64.81s-2.86-1.49,1.83-8.24c4-5.68-10.94-5.94-15.8-5.87-.93,0-1.49,0-1.49,0S44,146.57,44.77,149.66Z" transform="translate(-1.36 -58.98)" fill="#6777ef"/><path d="M47.3,147.49c.79,3.09,4.46,2.52,4.46,2.52s13.46.26,19.15.15a.61.61,0,0,0,0-.15H64.81s-2.86-1.49,1.83-8.24c4-5.68-10.94-5.94-15.8-5.87C49.32,139.16,46.72,145.27,47.3,147.49Z" transform="translate(-1.36 -58.98)" fill="#6777ef"/><path d="M46.43,148c.79,3.09,5.33,2.06,5.33,2.06s13.46.26,19.15.15a.61.61,0,0,0,0-.15H64.81s-2.86-1.49,1.83-8.24c4-5.68-10.94-5.94-15.8-5.87C49.32,139.16,45.85,145.73,46.43,148Z" transform="translate(-1.36 -58.98)" fill="url(#linear-gradient-7)"/><rect x="31.71" y="46.38" width="53.92" height="36.18" rx="4.27" fill="#6777ef"/><rect x="31.71" y="46.38" width="53.92" height="36.18" rx="4.27" fill="url(#linear-gradient-8)"/><rect x="32.85" y="46.38" width="53.92" height="36.18" rx="4.27" fill="#6777ef"/><rect x="32.85" y="46.38" width="53.92" height="36.18" rx="4.27" fill="url(#linear-gradient-9)"/><path d="M34.24,133.67l0,3.6a4.27,4.27,0,0,0,4.27,4.27H83.86a4.27,4.27,0,0,0,4.27-4.27l0-3.6Z" transform="translate(-1.36 -58.98)" fill="#6777ef"/><rect x="49.72" y="150.17" width="21.16" height="2.01" transform="translate(119.24 243.38) rotate(-180)" fill="url(#linear-gradient-10)"/><path d="M46.43,148l-.2,3.6a4.49,4.49,0,0,0,3.49.64v-2S46.71,151,46.43,148Z" transform="translate(-1.36 -58.98)" fill="url(#linear-gradient-11)"/><path d="M270.37,126.88l-27.67-4.13a2,2,0,0,1-1.7-1.82l-2-22.49a2,2,0,0,1,2.3-2.17L269,100.41a2,2,0,0,1,1.72,1.83l1.95,22.46A2,2,0,0,1,270.37,126.88Z" transform="translate(-1.36 -58.98)" fill="#6777ef"/><path d="M269.05,124.32l-25-3.73a1.81,1.81,0,0,1-1.55-1.59l-1.88-19.52a1.77,1.77,0,0,1,2.07-1.87l25,3.73a1.8,1.8,0,0,1,1.55,1.59l1.88,19.53A1.76,1.76,0,0,1,269.05,124.32Z" transform="translate(-1.36 -58.98)" fill="url(#linear-gradient-12)"/><path d="M242.82,124.65h36.5a1.23,1.23,0,0,1,1.23,1.23v0a1.23,1.23,0,0,1-1.23,1.23h-36.5a1.22,1.22,0,0,1-1.22-1.22v0A1.22,1.22,0,0,1,242.82,124.65Z" transform="translate(20.12 -96.19) rotate(8.5)" fill="#6777ef"/><rect x="257.55" y="126.48" width="31.57" height="2.47" rx="1.11" transform="translate(20.53 -97.99) rotate(8.5)" fill="#6777ef"/><rect x="257.55" y="126.48" width="31.57" height="2.47" rx="1.11" transform="translate(20.53 -97.99) rotate(8.5)" fill="url(#linear-gradient-13)"/><path d="M127,164.2l-24.18,9.15a1.84,1.84,0,0,1-2.19-.69L88.88,155.41a1.86,1.86,0,0,1,.88-2.79l24.18-9.16a1.89,1.89,0,0,1,2.21.7l11.71,17.23A1.88,1.88,0,0,1,127,164.2Z" transform="translate(-1.36 -58.98)" fill="#6777ef"/><path d="M124.76,162.73,102.94,171a1.64,1.64,0,0,1-2-.58L90.65,155.52a1.62,1.62,0,0,1,.82-2.44l21.82-8.27a1.67,1.67,0,0,1,2,.58l10.33,14.9A1.63,1.63,0,0,1,124.76,162.73Z" transform="translate(-1.36 -58.98)" fill="url(#linear-gradient-14)"/><path d="M102.16,166.45h33.72a1.14,1.14,0,0,1,1.14,1.14v0a1.14,1.14,0,0,1-1.14,1.14H102.16A1.13,1.13,0,0,1,101,167.6v0A1.13,1.13,0,0,1,102.16,166.45Z" transform="translate(-53 -5.95) rotate(-20.75)" fill="#6777ef"/><rect x="115.16" y="162.39" width="29.17" height="2.28" rx="1.03" transform="translate(-50.87 -2.42) rotate(-20.75)" fill="#6777ef"/><rect x="115.16" y="162.39" width="29.17" height="2.28" rx="1.03" transform="translate(-50.87 -2.42) rotate(-20.75)" fill="url(#linear-gradient-15)"/><rect x="123.09" y="176.02" width="37.06" height="73.8" rx="6.53" transform="translate(-20.68 -44.78) rotate(-5.37)" fill="#6777ef"/><rect x="123.09" y="176.02" width="37.06" height="73.8" rx="6.53" transform="translate(-20.68 -44.78) rotate(-5.37)" fill="url(#linear-gradient-16)"/><rect x="123.01" y="175.95" width="37.06" height="72.23" rx="6.46" transform="translate(-20.6 -44.79) rotate(-5.37)" fill="#6777ef"/><rect x="124.78" y="177.61" width="33.33" height="64.84" rx="5.8" transform="translate(-20.41 -44.81) rotate(-5.37)" fill="#fff"/><path d="M185.79,106.85a3.05,3.05,0,0,1-2-5.4c4.68-3.89,16.32-9.09,26.93-1a3.06,3.06,0,1,1-3.71,4.86c-9.36-7.15-18.91.51-19.32.84A3.07,3.07,0,0,1,185.79,106.85Z" transform="translate(-1.36 -58.98)" fill="#6777ef"/><path d="M178.54,97a3,3,0,0,1-2.16-.89,3.06,3.06,0,0,1,0-4.31c.18-.17,17.81-17.53,40.37-1.39a3.05,3.05,0,0,1-3.55,5c-18.26-13.05-31.91.16-32.48.73A3,3,0,0,1,178.54,97Z" transform="translate(-1.36 -58.98)" fill="#6777ef"/><path d="M224.2,85.54a3.11,3.11,0,0,1-1.8-.58c-27.16-19.83-50.27-.95-51.24-.13a3.06,3.06,0,0,1-3.94-4.68c.27-.23,27.67-22.84,58.79-.13a3.06,3.06,0,0,1-1.81,5.52Z" transform="translate(-1.36 -58.98)" fill="#6777ef"/></svg>