<?xml version="1.0" encoding="UTF-8"?>
<svg width="256px" height="368px" viewBox="0 0 256 368" version="1.1" xmlns="http://www.w3.org/2000/svg" xmlns:xlink="http://www.w3.org/1999/xlink">
    <!-- Generator: Sketch 51.2 (57519) - http://www.bohemiancoding.com/sketch -->
    <title>waiting_notifications</title>
    <desc>Created with Sketch.</desc>
    <defs>
        <linearGradient x1="-148.473646%" y1="50.791641%" x2="187.804413%" y2="49.2083291%" id="linearGradient-1">
            <stop stop-color="#000000" offset="1%"></stop>
            <stop stop-color="#000000" stop-opacity="0.69" offset="13%"></stop>
            <stop stop-color="#000000" stop-opacity="0" offset="100%"></stop>
        </linearGradient>
        <linearGradient x1="140.912473%" y1="-77.2472203%" x2="-14.8697723%" y2="162.81416%" id="linearGradient-2">
            <stop stop-color="#000000" offset="1%"></stop>
            <stop stop-color="#000000" stop-opacity="0.69" offset="13%"></stop>
            <stop stop-color="#000000" stop-opacity="0" offset="100%"></stop>
        </linearGradient>
        <linearGradient x1="126.314862%" y1="-0.431482466%" x2="-2.64091247%" y2="83.306316%" id="linearGradient-3">
            <stop stop-color="#000000" offset="1%"></stop>
            <stop stop-color="#000000" stop-opacity="0.69" offset="13%"></stop>
            <stop stop-color="#000000" stop-opacity="0" offset="100%"></stop>
        </linearGradient>
        <linearGradient x1="-78.4732872%" y1="7.83943358%" x2="357.626929%" y2="162.764401%" id="linearGradient-4">
            <stop stop-color="#000000" offset="1%"></stop>
            <stop stop-color="#000000" stop-opacity="0.69" offset="13%"></stop>
            <stop stop-color="#000000" stop-opacity="0" offset="100%"></stop>
        </linearGradient>
        <linearGradient x1="0.00191258545%" y1="49.967898%" x2="100.000304%" y2="49.967898%" id="linearGradient-5">
            <stop stop-color="#000000" offset="1%"></stop>
            <stop stop-color="#000000" stop-opacity="0.69" offset="13%"></stop>
            <stop stop-color="#000000" stop-opacity="0" offset="100%"></stop>
        </linearGradient>
        <linearGradient x1="118.004733%" y1="69.3616118%" x2="37.7788651%" y2="46.6267889%" id="linearGradient-6">
            <stop stop-color="#000000" offset="1%"></stop>
            <stop stop-color="#000000" stop-opacity="0.69" offset="13%"></stop>
            <stop stop-color="#000000" stop-opacity="0" offset="100%"></stop>
        </linearGradient>
        <linearGradient x1="-0.0291340246%" y1="49.9870561%" x2="100.193793%" y2="49.9870561%" id="linearGradient-7">
            <stop stop-color="#000000" offset="1%"></stop>
            <stop stop-color="#000000" stop-opacity="0.69" offset="13%"></stop>
            <stop stop-color="#000000" stop-opacity="0" offset="100%"></stop>
        </linearGradient>
        <linearGradient x1="-185.202492%" y1="-13.9476334%" x2="246.728972%" y2="102.215509%" id="linearGradient-8">
            <stop stop-color="#000000" offset="1%"></stop>
            <stop stop-color="#000000" stop-opacity="0.69" offset="13%"></stop>
            <stop stop-color="#000000" stop-opacity="0" offset="100%"></stop>
        </linearGradient>
        <linearGradient x1="242.767386%" y1="27.9816514%" x2="-182.739745%" y2="74.5412844%" id="linearGradient-9">
            <stop stop-color="#000000" offset="1%"></stop>
            <stop stop-color="#000000" stop-opacity="0.69" offset="13%"></stop>
            <stop stop-color="#000000" stop-opacity="0" offset="100%"></stop>
        </linearGradient>
        <linearGradient x1="-105.420279%" y1="51.5147257%" x2="179.541831%" y2="48.5818799%" id="linearGradient-10">
            <stop stop-color="#000000" offset="1%"></stop>
            <stop stop-color="#000000" stop-opacity="0.69" offset="13%"></stop>
            <stop stop-color="#000000" stop-opacity="0" offset="100%"></stop>
        </linearGradient>
        <linearGradient x1="31.9069546%" y1="54.9722968%" x2="106.410611%" y2="31.2095833%" id="linearGradient-11">
            <stop stop-color="#000000" offset="1%"></stop>
            <stop stop-color="#000000" stop-opacity="0.69" offset="13%"></stop>
            <stop stop-color="#000000" stop-opacity="0" offset="100%"></stop>
        </linearGradient>
    </defs>
    <g id="Page-1" stroke="none" stroke-width="1" fill="none" fill-rule="evenodd">
        <g id="waiting_notifications" transform="translate(-44.000000, -18.000000)">
            <path d="M244.95,128.48 C244.664454,129.083155 244.275209,129.631482 243.8,130.1 C239.988726,134.125899 235.055265,136.913166 229.64,138.1 C227.727998,138.540458 225.772079,138.761883 223.81,138.76 C222.66,131.34 221.49,123.91 220.59,116.46 C219.88,110.64 219.35,104.83 219.1,98.99 C218.93,95.33 211,82.57 212.62,79.15 C214.41,75.39 227.3,88.26 228.75,90.71 C236.8,104.21 239.69,114.65 245.21,126.26 C245.41898,127.005371 245.325554,127.803088 244.95,128.48 Z" id="Shape" fill="#6777EF" fill-rule="nonzero"></path>
            <path d="M230.94,136.74 C230.553919,137.242328 230.118404,137.704644 229.64,138.12 C227.727998,138.560458 225.772079,138.781883 223.81,138.78 C222.66,131.36 221.49,123.93 220.59,116.48 C220.93,110.626667 221.546667,104.796667 222.44,98.99 C222.06,101.42 225.05,106.72 225.86,109.1 L229.37,119.47 C231.2,124.88 235.11,131.46 230.94,136.74 Z" id="Shape" fill="url(#linearGradient-1)" fill-rule="nonzero"></path>
            <path d="M226.63,149.43 C227.43,154.31 228.45,159.25 230.86,163.57 C232.1,165.79 233.95,167.97 236.46,168.36 C237.855907,168.491969 239.262972,168.282625 240.56,167.75 C243.248013,166.825394 245.782694,165.504124 248.08,163.83 C250.275017,162.146835 252.343879,160.305247 254.27,158.32 C257.135039,155.615794 259.786303,152.69372 262.2,149.58 C263.31,148.08 264.32,146.5 265.53,145.07 C270.53,139.12 278.53,136.45 284.2,131.14 C285.73,129.72 288.83,123.22 288.6,121.14 C286.52,119.94 282.25,124.77 279.95,125.47 C277.65,126.17 275.5,127.31 273.19,127.96 C270.424079,128.731266 267.505017,128.769176 264.72,128.07 C263.78,127.83 262.66,113 261.72,113.34 C261.246853,113.538344 260.823413,113.838849 260.48,114.22 C258.54,116.22 257.48,133.29 255.87,135.51 C253.66,138.51 250.6,140.79 247.57,142.97 C247.3,143.16 246.96,143.36 246.66,143.21 C246.460215,143.061303 246.330104,142.837222 246.3,142.59 C245.51,139.66 244.62,136.75 243.65,133.88 C242.97,131.88 242.01,129.68 240,129.08 C238.21,128.55 236.35,129.56 234.75,130.53 C232.69,131.79 230.61,133.03 228.56,134.3 C227.42,135 226.04,135.68 225.5,136.97 C224.84,138.52 225.4,140.66 225.59,142.25 C225.89,144.66 226.24,147.05 226.63,149.43 Z" id="Shape" fill="#F5BCBA" fill-rule="nonzero"></path>
            <path d="M244.88,285.44 C244.88,288.5 244.73,291.51 244.46,294.5 C239.614719,347.640535 193.977106,387.663397 140.658773,385.530664 C87.3404404,383.39793 45.0453488,339.85776 44.46,286.5 C44.46,286.16 44.46,285.83 44.46,285.5 C44.0999633,249.458094 63.1217014,215.998866 94.2762846,197.873179 C125.430868,179.747491 163.919132,179.747491 195.073715,197.873179 C226.228299,215.998866 245.250037,249.458094 244.89,285.5 L244.88,285.44 Z" id="Shape" fill="#6777EF" fill-rule="nonzero"></path>
            <path d="M244.88,285.44 C244.88,288.5 244.73,291.51 244.46,294.5 C221.4,310.19 187.46,320.09 149.61,320.09 C105.61,320.09 66.95,306.72 44.46,286.45 C44.46,286.11 44.46,285.78 44.46,285.45 C44.0999633,249.408094 63.1217014,215.948866 94.2762846,197.823179 C125.430868,179.697491 163.919132,179.697491 195.073715,197.823179 C226.228299,215.948866 245.250037,249.408094 244.89,285.45 L244.88,285.44 Z" id="Shape" fill="url(#linearGradient-2)" fill-rule="nonzero"></path>
            <path d="M190.62,246.26 C194.62,247.7 198.97,248.73 202.25,251.46 C205.16,253.87 206.93,257.36 208.36,260.85 C213.127864,272.562299 214.848134,285.292296 213.36,297.85 C212.96,301.19 212.36,304.63 213.23,307.85 C214.1,311.07 217.07,314.09 220.41,313.69 C225.04,304.49 225.14,293.75 225.15,283.45 C225.15,275.93 225.15,268.25 222.63,261.16 C220.57,255.32 216.93,250.16 213.17,245.25 C199.46,227.25 182.87,210.46 161.75,202.37 C160.874247,201.922013 159.868317,201.798043 158.91,202.02 C154.56,203.61 155.27,211.35 156.96,214.46 C159.359876,218.756281 162.031993,222.894723 164.96,226.85 C171.383413,235.736972 180.320479,242.497239 190.62,246.26 Z" id="Shape" fill="url(#linearGradient-3)" fill-rule="nonzero"></path>
            <path d="M151.07,223.66 C151.129396,222.314316 151.303359,220.976142 151.59,219.66 C151.903731,218.328742 152.933554,217.283491 154.26,216.95 C154.809318,216.935228 155.357117,216.885124 155.9,216.8 C157.01,216.46 157.48,215.17 157.8,214.06 L161.35,201.66 C162.03,199.26 162.72,196.74 162.2,194.31 C161.38,190.51 157.89,187.94 154.49,186.08 C152.02,184.72 149.24,183.51 146.49,184.02 C142.23,184.81 139.76,189.21 138.17,193.24 C136.319534,197.558083 135.181433,202.147632 134.8,206.83 C134.52,212.24 134.06,225.49 137.41,230.22 C142.05,236.86 150.33,229.66 151.07,223.66 Z" id="Shape" fill="url(#linearGradient-4)" fill-rule="nonzero"></path>
            <path d="M205.01,208.01 C214.08,211.08 223.75,212.37 232.49,216.28 C233.059309,216.452259 233.530657,216.854718 233.79,217.39 C233.866384,217.823054 233.810632,218.269073 233.63,218.67 C226.248987,240.621155 222.085782,263.525518 221.27,286.67 C226.499528,287.611115 231.844006,287.729207 237.11,287.02 C237.701743,286.98315 238.275302,286.801123 238.78,286.49 C239.265372,286.065047 239.630855,285.52027 239.84,284.91 C248.3,265.916667 255.893333,246.566667 262.62,226.86 C263.81,223.37 264.99,219.72 264.51,216.06 C263.82,210.73 259.81,206.53 256,202.74 L226.31,173.12 C225.554897,172.268564 224.627845,171.586908 223.59,171.12 C222.395705,170.764659 221.133273,170.70291 219.91,170.94 C208.2,172.39 192.21,172.84 170.69,171.94 C167.9,171.82 181.69,187.71 182.84,190.76 C183.76,193.18 186.67,196.3 188.45,198.18 C192.91,202.86 198.93,205.95 205.01,208.01 Z" id="Shape" fill="#525263" fill-rule="nonzero"></path>
            <path d="M205.01,208.01 C214.08,211.08 223.75,212.37 232.49,216.28 C233.059309,216.452259 233.530657,216.854718 233.79,217.39 C233.866384,217.823054 233.810632,218.269073 233.63,218.67 C226.248987,240.621155 222.085782,263.525518 221.27,286.67 C226.499528,287.611115 231.844006,287.729207 237.11,287.02 C237.701743,286.98315 238.275302,286.801123 238.78,286.49 C239.265372,286.065047 239.630855,285.52027 239.84,284.91 C248.3,265.916667 255.893333,246.566667 262.62,226.86 C263.81,223.37 264.99,219.72 264.51,216.06 C263.82,210.73 259.81,206.53 256,202.74 L226.31,173.12 C225.554897,172.268564 224.627845,171.586908 223.59,171.12 C222.395705,170.764659 221.133273,170.70291 219.91,170.94 C208.2,172.39 192.21,172.84 170.69,171.94 C167.9,171.82 181.69,187.71 182.84,190.76 C183.76,193.18 186.67,196.3 188.45,198.18 C192.91,202.86 198.93,205.95 205.01,208.01 Z" id="Shape" fill="url(#linearGradient-5)" fill-rule="nonzero"></path>
            <path d="M219.75,299.8 C219.021502,300.933556 218.528394,302.202034 218.3,303.53 C217.766769,305.854433 217.372735,308.208618 217.12,310.58 C216.92,312.42 216.85,314.42 217.9,315.93 C218.95,317.44 220.68,317.99 222.3,318.62 C226.378199,320.298277 230.340275,322.245907 234.16,324.45 C236.74,325.87 239.43,327.34 242.37,327.45 C245.31,327.56 248.56,325.95 249.23,323.09 C249.46209,321.713121 249.345192,320.300023 248.89,318.98 C247.284849,313.24217 244.137459,308.054163 239.79,303.98 C239.028031,303.236475 238.17846,302.588384 237.26,302.05 C236.378834,301.594826 235.458446,301.219977 234.51,300.93 C231.83935,299.952926 229.102404,299.1676 226.32,298.58 C223.89,298.19 221.43,297.47 219.75,299.8 Z" id="Shape" fill="#2E2E3F" fill-rule="nonzero"></path>
            <path d="M219.75,299.8 C219.021502,300.933556 218.528394,302.202034 218.3,303.53 C217.766769,305.854433 217.372735,308.208618 217.12,310.58 C216.92,312.42 216.85,314.42 217.9,315.93 C218.95,317.44 220.68,317.99 222.3,318.62 C226.378199,320.298277 230.340275,322.245907 234.16,324.45 C236.74,325.87 239.43,327.34 242.37,327.45 C245.31,327.56 248.56,325.95 249.23,323.09 C249.46209,321.713121 249.345192,320.300023 248.89,318.98 C247.284849,313.24217 244.137459,308.054163 239.79,303.98 C239.028031,303.236475 238.17846,302.588384 237.26,302.05 C236.378834,301.594826 235.458446,301.219977 234.51,300.93 C231.83935,299.952926 229.102404,299.1676 226.32,298.58 C223.89,298.19 221.43,297.47 219.75,299.8 Z" id="Shape" fill="url(#linearGradient-6)" fill-rule="nonzero"></path>
            <path d="M222.72,287.42 C221.961944,291.375703 221.566968,295.392406 221.54,299.42 C221.54,301.19 221.66,303.15 222.93,304.42 C224.132049,305.375459 225.664405,305.814302 227.19,305.64 C229.029382,305.572111 230.844442,305.196932 232.56,304.53 C232.940515,304.411474 233.284634,304.19812 233.56,303.91 C233.762739,303.626132 233.902523,303.302244 233.97,302.96 C235.495988,297.235573 236.30551,291.343863 236.38,285.42 C236.477256,284.491332 236.285159,283.555299 235.83,282.74 C234.88,281.41 232.91,281.47 231.31,281.79 C229.26167,282.228543 227.254416,282.840755 225.31,283.62 C223.47,284.26 223.09,285.52 222.72,287.42 Z" id="Shape" fill="#F5BCBA" fill-rule="nonzero"></path>
            <path d="M242.44,306.22 C243.162916,307.996651 243.751241,309.825137 244.2,311.69 C244.51,313.14 244.69,314.69 245.62,315.85 C246.8,317.3 248.85,317.67 250.72,317.7 C252.261254,317.787169 253.80243,317.527459 255.23,316.94 C255.972762,316.648739 256.593723,316.112454 256.99,315.42 C257.268039,314.736193 257.364496,313.992099 257.27,313.26 C257.123888,308.179464 255.857025,303.193968 253.56,298.66 C252.242771,296.316603 250.758955,294.070827 249.12,291.94 C248.602325,290.981527 247.730139,290.263679 246.69,289.94 C245.609874,289.901662 244.560203,290.302052 243.78,291.05 C242.13,292.29 238.5,294.36 238.88,296.71 C239.36,299.84 241.32,303.25 242.44,306.22 Z" id="Shape" fill="#F5BCBA" fill-rule="nonzero"></path>
            <path d="M254.56,309.91 C253.428505,310.543029 252.330382,311.233945 251.27,311.98 C249.62,312.89 247.68,313.07 245.87,313.59 C245.392202,313.681605 244.953106,313.915093 244.61,314.26 C244.360588,314.596598 244.205271,314.993521 244.16,315.41 C243.820128,318.139625 243.931616,320.906569 244.49,323.6 C245.41,329.426667 246.483333,335.23 247.71,341.01 C248.22,343.39 248.83,345.9 250.56,347.61 C252.29,349.32 254.92,349.91 257.38,349.98 C259.681617,350.112221 261.980897,349.683251 264.08,348.73 C267.462293,346.919455 269.833557,343.66449 270.52,339.89 C271.171241,336.143716 270.7124,332.288754 269.2,328.8 C268.173008,326.414227 266.97662,324.104997 265.62,321.89 C263.82,318.796667 262.026667,315.703333 260.24,312.61 C258.88,310.25 257.64,308.6 254.56,309.91 Z" id="Shape" fill="#2E2E3F" fill-rule="nonzero"></path>
            <path d="M254.56,309.91 C253.428505,310.543029 252.330382,311.233945 251.27,311.98 C249.62,312.89 247.68,313.07 245.87,313.59 C245.392202,313.681605 244.953106,313.915093 244.61,314.26 C244.360588,314.596598 244.205271,314.993521 244.16,315.41 C243.820128,318.139625 243.931616,320.906569 244.49,323.6 C245.41,329.426667 246.483333,335.23 247.71,341.01 C248.22,343.39 248.83,345.9 250.56,347.61 C252.29,349.32 254.92,349.91 257.38,349.98 C259.681617,350.112221 261.980897,349.683251 264.08,348.73 C267.462293,346.919455 269.833557,343.66449 270.52,339.89 C271.171241,336.143716 270.7124,332.288754 269.2,328.8 C268.173008,326.414227 266.97662,324.104997 265.62,321.89 C263.82,318.796667 262.026667,315.703333 260.24,312.61 C258.88,310.25 257.64,308.6 254.56,309.91 Z" id="Shape" fill="url(#linearGradient-7)" fill-rule="nonzero"></path>
            <path d="M133.4,126.87 C132.525021,129.071553 131.940114,131.377563 131.66,133.73 C130.708738,139.820993 130.10111,145.960705 129.84,152.12 C129.34,163.88 130.1,175.66 129.77,187.42 C129.43,199.65 127.99,212.33 132.39,223.74 C133.075172,225.810516 134.232293,227.693405 135.77,229.24 C137.352003,230.78715 139.620971,231.407334 141.77,230.88 C143.708863,230.133305 145.188178,228.52455 145.77,226.53 C146.321249,224.559251 146.564124,222.51505 146.49,220.47 L146.65,209.29 C146.65,209.06 146.65,208.79 146.88,208.69 C147.076,208.622103 147.293339,208.664046 147.45,208.8 C148.310421,209.543478 149.128377,210.334726 149.9,211.17 C150.79,211.89 152.21,212.24 153,211.41 C153.442371,210.821362 153.613284,210.072258 153.47,209.35 C152.99,204.51 148.77,201.02 146.26,196.85 C142.64,190.85 142.64,183.29 143.55,176.31 C144.68,167.57 147.04,159.04 149.39,150.54 L151.39,143.35 C152.9,137.89 154.39,131.93 152.19,126.7 C150.398419,122.62563 146.767716,119.65269 142.42,118.7 C138.24,117.93 134.91,123.47 133.4,126.87 Z" id="Shape" fill="#F5BCBA" fill-rule="nonzero"></path>
            <path d="M226.24,172.34 C224.95,175.81 217.67,171.76 213.51,173.84 C205.57,177.84 196.51,173.73 187.66,173.84 C178.24,174.01 171.74,183.29 162.39,184.47 C161.710482,184.610123 161.009518,184.610123 160.33,184.47 C159.04,184.09 158.28,182.8 157.73,181.59 C156.923072,179.723352 156.345522,177.765725 156.01,175.76 C154.85,169.12 156.01,162 157.25,155.25 C158.29,149.53 159.326667,143.806667 160.36,138.08 C161.56,131.413333 162.77,124.706667 163.99,117.96 C164.701494,113.50923 165.703638,109.10982 166.99,104.79 C167.23,104.04 167.48,103.31 167.75,102.59 C170.076128,96.7254528 172.88232,91.0628979 176.14,85.66 C178.14,82.19 180.14,78.66 183.23,76.03 C186.68,73.12 191.13,71.67 195.6,70.97 C199.620009,70.212302 203.764534,70.4526639 207.67,71.67 C209.9,72.45 210.74,74.81 212.51,76.26 C214.753706,77.9223224 216.756103,79.8877002 218.46,82.1 C220.190689,84.771011 221.427025,87.7314426 222.11,90.84 C228.38,115.22 219.31,141.52 225.27,165.97 C225.95,168.84 227.27,169.6 226.24,172.34 Z" id="Shape" fill="#6777EF" fill-rule="nonzero"></path>
            <polygon id="Shape" fill="url(#linearGradient-8)" fill-rule="nonzero" points="217.72 86.7 218.5 91.81 215.5 90.14 215.5 103.68 212.08 88.64 215.39 83.82"></polygon>
            <path d="M192.32,86.37 L194.21,87.37 L197.21,89.98 L189.21,111.44 C189.21,111.44 200.83,93.56 201.21,84.44 C201.445226,78.8301659 200.74568,73.2202753 199.14,67.84 L192.32,86.37 Z" id="Shape" fill="url(#linearGradient-9)" fill-rule="nonzero"></path>
            <path d="M166.7,147.88 C166.065012,152.7929 166.065012,157.7671 166.7,162.68 C167.11,165.77 167.77,168.85 167.56,171.95 C167.569599,172.555734 167.375959,173.147217 167.01,173.63 C166.540349,174.011908 165.963939,174.238978 165.36,174.28 C162.233333,174.773333 159.103333,175.276667 155.97,175.79 C154.81,169.15 155.97,162.03 157.21,155.28 C158.25,149.56 159.286667,143.836667 160.32,138.11 C161.52,131.443333 162.73,124.736667 163.95,117.99 C164.661494,113.53923 165.663638,109.13982 166.95,104.82 C167.19,104.07 167.44,103.34 167.71,102.62 C170.81,100.9 175.12,99.62 177.04,102.4 C179.04,105.4 176.41,112.4 175.63,115.4 C172.79,126.27 168.13,136.66 166.7,147.88 Z" id="Shape" fill="url(#linearGradient-10)" fill-rule="nonzero"></path>
            <path d="M238.63,61.18 C238.733898,62.4235089 238.696998,63.6747749 238.52,64.91 C238.311953,66.1783844 237.253053,67.1334704 235.97,67.21 C232.85,66.98 230.6,69.97 228.12,71.89 C224.1532,74.8624299 218.857619,75.3680575 214.4,73.2 C213.497764,72.875559 212.499571,73.3152917 212.13,74.2 C211.818066,75.0821736 211.748989,76.0319759 211.93,76.95 L213.08,87.89 C213.3,90 213.32,92.58 211.53,93.72 C209.74,94.86 207.62,93.87 206.14,92.58 C203.813499,90.3425755 202.13144,87.520723 201.27,84.41 C197.291564,71.5874656 200.374518,57.6172398 209.38,47.66 C211.041717,45.8025582 212.989616,44.2226329 215.15,42.98 C217.411476,41.8062507 219.83977,40.9867016 222.35,40.55 C224.596366,40.0197893 226.918816,39.8911404 229.21,40.17 C232.286918,40.7294302 235.084742,42.3115749 237.15,44.66 C238.67,46.32 240.15,51.27 241.75,52.08 C240.56,55.1 238.68,57.77 238.63,61.18 Z" id="Shape" fill="#F5BCBA" fill-rule="nonzero"></path>
            <path d="M214.83,18.24 C213.363822,17.8970413 211.833601,17.9418451 210.39,18.37 C207.57,19.37 205.99,22.32 204.97,25.13 C203.95,27.94 203.11,31.01 200.89,33 C198.98,34.72 196.27,35.41 194.55,37.31 C192.55,39.52 192.36,42.79 192.55,45.76 C192.550049,47.9882618 193.177301,50.1715153 194.36,52.06 C195.42,53.5 197.05,54.5 197.88,56.06 C198.82,57.85 199.14,60.62 201.16,60.74 C202.002274,60.6974397 202.797978,60.3406217 203.39,59.74 C205.431876,57.9751475 206.970584,55.7015852 207.85,53.15 C208.34,51.73 208.66,50.15 209.74,49.15 C210.82,48.15 213.02,48.09 213.51,49.51 C213.647629,50.4134587 213.508164,51.3374158 213.11,52.16 C212.85,53.04 212.96,54.23 213.82,54.53 C215.44,52.03 216.35,49.09 218.27,46.82 C220.477924,44.2328038 223.758501,42.8125046 227.155969,42.9728917 C230.553437,43.1332788 233.685624,44.8563106 235.64,47.64 C236.64,49.07 237.32,50.77 238.72,51.79 C240.038751,52.5935534 241.546114,53.0350693 243.09,53.07 C246.53,53.41 250.17,53.54 253.27,52.01 C256.37,50.48 258.66,46.77 257.47,43.52 C256.53,40.97 253.85,39.52 251.25,38.7 C248.65,37.88 245.87,37.47 243.58,36.01 C240.47,34.01 238.81,30.45 237,27.22 C235.19,23.99 232.74,20.67 229.12,19.91 C227.64223,19.6799927 226.13777,19.6799927 224.66,19.91 C223.217986,20.2158983 221.741918,20.330218 220.27,20.25 C218.47,19.88 216.73,18.66 214.83,18.24 Z" id="Shape" fill="#2E2E3F" fill-rule="nonzero"></path>
            <path d="M214.83,100.41 C217.113805,111.978452 217.786846,123.807158 216.83,135.56 C216.04,145.34 214.16,155.05 214.23,164.86 C214.37704,167.618819 214.293416,170.3851 213.98,173.13 C213.54,175.85 195.3,174.81 192.64,174.78 C188.16,174.72 193.84,180.78 190.47,177.86 C185.18,173.25 182.82,166.06 182.17,159.08 C181.24,149.13 183.28,139.17 185.5,129.42 C187.04,122.67 188.68,115.9 191.44,109.55 C194.86,101.7 200.27,91.71 202.01,83.32 C202.26,82.09 198.01,77.62 199.84,77.68 C201.03,77.68 200.47,79.53 200.68,80.45 C201.055194,81.8509161 201.773491,83.1362892 202.77,84.19 C204.164767,85.8186907 206.054297,86.9460869 208.15,87.4 C209.5,87.65 211.04,87.59 212.02,88.55 C213.21,89.71 213.02,91.97 213.36,93.55 C213.85,95.81 214.37,98.1 214.83,100.41 Z" id="Shape" fill="#F2F2F2" fill-rule="nonzero"></path>
            <path d="M174.34,70.66 C169.5,72.88 165.34,76.32 161.41,79.92 C158.157032,82.8512487 155.084732,85.9769804 152.21,89.28 C149.67,92.28 147.35,95.39 144.67,98.22 C140.97,102.11 136.35,105.87 135.62,111.22 C135.396602,114.009792 135.8852,116.81063 137.04,119.36 C137.991693,121.962966 139.396709,124.376884 141.19,126.49 C143.465518,129.007166 146.467427,130.754494 149.78,131.49 C150.818235,131.76061 151.902001,131.808323 152.96,131.63 C154.449945,131.2059 155.819858,130.438748 156.96,129.39 C159.566801,127.417351 162.035876,125.269022 164.35,122.96 C166.71,120.51 168.71,117.72 171.01,115.21 C173.01,113.05 175.14,111.1 177.14,108.98 C179.53,106.44 181.66,103.67 183.79,100.9 C186.80385,97.1428451 189.566517,93.1909282 192.06,89.07 C194.142623,85.4332344 195.796981,81.5674729 196.99,77.55 C197.76,74.93 198.99,71.61 196.33,69.72 C190.68,65.74 179.97,68.03 174.34,70.66 Z" id="Shape" fill="#6777EF" fill-rule="nonzero"></path>
            <path d="M174.34,70.66 C169.5,72.88 165.34,76.32 161.41,79.92 C158.157032,82.8512487 155.084732,85.9769804 152.21,89.28 C149.67,92.28 147.35,95.39 144.67,98.22 C140.97,102.11 136.35,105.87 135.62,111.22 C135.396602,114.009792 135.8852,116.81063 137.04,119.36 C137.991693,121.962966 139.396709,124.376884 141.19,126.49 C143.465518,129.007166 146.467427,130.754494 149.78,131.49 C150.818235,131.76061 151.902001,131.808323 152.96,131.63 C154.449945,131.2059 155.819858,130.438748 156.96,129.39 C159.566801,127.417351 162.035876,125.269022 164.35,122.96 C166.71,120.51 168.71,117.72 171.01,115.21 C173.01,113.05 175.14,111.1 177.14,108.98 C179.53,106.44 181.66,103.67 183.79,100.9 C186.80385,97.1428451 189.566517,93.1909282 192.06,89.07 C194.142623,85.4332344 195.796981,81.5674729 196.99,77.55 C197.76,74.93 198.99,71.61 196.33,69.72 C190.68,65.74 179.97,68.03 174.34,70.66 Z" id="Shape" fill="#6777EF" fill-rule="nonzero"></path>
            <path d="M258.17,116.32 C255.921654,117.740084 255.208607,120.689708 256.56,122.98 C258.238836,125.900474 260.490575,128.451539 263.18,130.48 C264.78,132.2 268.38,132.48 271.58,130.6 C274.78,128.72 290.05,120.41 297.68,114.98 C298.811223,114.20241 299.573003,112.99394 299.786705,111.637974 C300.000407,110.282009 299.647232,108.897821 298.81,107.81 L292.42,99.81 C290.851895,97.8494628 288.059192,97.3840123 285.94,98.73 L258.17,116.32 Z" id="Shape" fill="#3D3D54" fill-rule="nonzero"></path>
            <path d="M158.06,184.66 L157.83,184.43" id="Shape"></path>
            <path d="M156.68,202.51 C157.808133,206.652294 159.809611,210.505223 162.55,213.81 C165.55,217.31 169.63,219.81 173.55,222.19 L190.06,232.24 C192.481198,233.632377 194.79737,235.199888 196.99,236.93 C202.4,241.39 205.99,247.61 209.48,253.69 L233.56,295.66 C234.78,297.81 236.49,300.24 238.96,300.16 C240.289832,299.987285 241.540675,299.431355 242.56,298.56 C245.65,296.39 248.97,293.92 249.89,290.25 C250.53,287.69 249.89,285 249.12,282.46 C245.42,269.95 239.62,258.17 233.8,246.46 C224.553333,227.926667 215.17,209.43 205.65,190.97 C203.12,186.07 200.05,178.44 195.87,174.84 C195.87,174.84 157.03,172.48 156.05,176.33 C153.867279,184.950678 154.085146,194.004291 156.68,202.51 Z" id="Shape" fill="#525263" fill-rule="nonzero"></path>
            <path d="M156.68,202.51 C157.808133,206.652294 159.809611,210.505223 162.55,213.81 C165.55,217.31 169.63,219.81 173.55,222.19 L190.06,232.24 C192.481198,233.632377 194.79737,235.199888 196.99,236.93 C202.4,241.39 205.99,247.61 209.48,253.69 L233.56,295.66 C234.78,297.81 236.49,300.24 238.96,300.16 C240.289832,299.987285 241.540675,299.431355 242.56,298.56 C245.65,296.39 248.97,293.92 249.89,290.25 C250.53,287.69 249.89,285 249.12,282.46 C245.42,269.95 239.62,258.17 233.8,246.46 C224.553333,227.926667 215.17,209.43 205.65,190.97 C203.12,186.07 200.05,178.44 195.87,174.84 C195.87,174.84 157.03,172.48 156.05,176.33 C153.867279,184.950678 154.085146,194.004291 156.68,202.51 Z" id="Shape" fill="url(#linearGradient-11)" fill-rule="nonzero"></path>
            <polygon id="Shape" fill="#6777EF" fill-rule="nonzero" points="200.36 65.18 194.87 67.35 191.54 85.98 202.61 85.48"></polygon>
            <path d="M211.98,85.03 C211.98,85.87 211.98,86.71 211.98,87.55 C211.979774,87.9141648 211.999805,88.2780602 212.04,88.64 C212.099808,89.0074869 212.179931,89.3713779 212.28,89.73 L213.66,95.17 L214.23,86.33 C215.86,87.12 217.53,87.84 219.23,88.47 C219.101743,87.1451875 218.764219,85.8490932 218.23,84.63 C217.23,82.07 216.31,79.5 215.23,76.99 C214.977583,76.319556 214.612313,75.6972438 214.15,75.15 C213.677378,74.5998411 212.973805,74.3035997 212.25,74.35 C211.25,74.77 211.88,78.52 211.89,79.35 L211.98,85.03 Z" id="Shape" fill="#6777EF" fill-rule="nonzero"></path>
            <path d="M292.88,111.94 L272.56,124.79 C271.826398,125.18594 270.916269,125.019707 270.37,124.39 L263.91,117.11 C263.640925,116.858768 263.502054,116.497932 263.533271,116.131129 C263.564488,115.764327 263.76234,115.432148 264.07,115.23 L284.43,102.39 C285.163602,101.99406 286.073731,102.160293 286.62,102.79 L293.08,110.06 C293.345158,110.316923 293.477283,110.681606 293.438226,111.048747 C293.399168,111.415889 293.193276,111.744612 292.88,111.94 Z" id="Shape" fill="#6777EF" fill-rule="nonzero"></path>
        </g>
    </g>
</svg>