<svg xmlns="http://www.w3.org/2000/svg" viewBox="0 0 48 48">
<path style="fill:none;stroke:#000000;stroke-width:3;stroke-linecap:round;stroke-linejoin:round;stroke-miterlimit:10;" d="
	M43,24.8c-1-1-2.4-1.6-3.8-1.6c-1.3,0-2.6,0.4-3.6,1.3v-5c0-3.3-2.7-6-6-6h-5.3c0.8-1,1.3-2.2,1.3-3.5c0-1.5-0.6-2.9-1.6-3.9
	c-1-1-2.4-1.6-3.9-1.6c0,0-0.1,0-0.1,0c-1.4,0-2.8,0.6-3.8,1.6c-1,1-1.6,2.4-1.6,3.8c0,1.3,0.4,2.6,1.3,3.6h-5.3c-3.3,0-6,2.7-6,6
	l0,5.5c1-1,2.3-1.6,3.9-1.6c3,0,5.4,2.4,5.4,5.4S11.5,34,8.6,34c-1.5,0-2.9-0.6-3.9-1.6l0,5.4c0,3.3,2.7,6,6,6h19c3.3,0,6-2.7,6-6
	v-4.9c1,0.8,2.2,1.3,3.5,1.3c1.5,0,2.9-0.6,3.9-1.6c1-1.1,1.6-2.5,1.6-3.9C44.6,27.1,44,25.8,43,24.8z"/>
</svg>
