<svg xmlns="http://www.w3.org/2000/svg" viewBox="0 0 48 48">
<polygon style="fill:#000000;" points="25.5,45.4 24.6,44.7 23.9,45.2 23.1,44.8 22.5,45.1 22.5,32.2 25.5,32.2 "/>
<path style="fill:#231815;" d="M37,14h-5V5.1C32,4.6,31.6,4,31.1,4h-2.3C28.4,4,28,4.6,28,5.1V14h-8V5.1C20,4.6,19.6,4,19.1,4h-2.3
	C16.4,4,16,4.6,16,5.1V14h-5c-1.1,0-2,0.9-2,2v2.6c0,8.1,6.2,15,14.3,15.4C31.9,34.4,39,27.5,39,19v-3C39,14.9,38.1,14,37,14z
	 M36,19c0,8.9-9.8,15.6-19.3,9.8c-2.6-1.6-4.7-5.5-4.7-8.6v-2.4c0-0.4,0.3-0.8,0.8-0.8h22.4c0.4,0,0.8,0.3,0.8,0.8V19z"/>
</svg>
