<svg viewBox="0 0 1024 1024" xmlns="http://www.w3.org/2000/svg"><path d="M833.428 197.76c-142.697 0-276.982-117.931-278.3-119.123-12.241-11.112-27.686-16.637-43.13-16.637-15.413 0-30.825 5.526-43.067 16.542-2.009 1.789-134.911 119.217-278.362 119.217-35.501 0-64.286 28.784-64.286 64.286v194.395c0 176.032 104.369 323.783 348.988 494.039 11.048 7.69 23.888 11.52 36.727 11.52s25.677-3.83 36.727-11.52c244.618-170.256 348.988-318.007 348.988-494.039v-194.395c0-35.501-28.784-64.286-64.286-64.286zM833.428 456.441c0 129.607-64.286 262.29-321.428 441.274-257.142-178.983-321.428-311.667-321.428-441.274 0-77.155 0-194.395 0-194.395 171.45 0 321.428-135.76 321.428-135.76s149.978 135.76 321.428 135.76c0 0 0 117.239 0 194.395zM463.786 319.142v96.428h-96.428v96.428h96.428v96.428h96.428v-96.428h96.428v-96.428h-96.428v-96.428z"  /></svg>