<svg fill="#FFF" xmlns="http://www.w3.org/2000/svg" viewBox="0 0 1740.9 492.8">
<path d="M614.1,246.7c-6.2-16.6-15.2-31.1-27-43.4c-11.8-12.4-27-22.2-43.7-29.4c-16.7-7.2-35.4-10.9-56.1-10.9
	c-20.7,0-39.3,3.5-55.8,10.6c-16.6,7.1-30.7,16.8-42.5,29.1c-11.8,12.4-20.8,26.9-27.2,43.7c-6.4,16.8-9.6,34.7-9.6,53.8
	c0,19.4,3.2,37.4,9.6,54c6.4,16.6,15.5,31.1,27.2,43.4c11.8,12.4,25.9,22.1,42.5,29.1c16.6,7.1,35.2,10.6,55.8,10.6
	c41.3,0,74.1-13.2,98.3-39.7c24.6-26.5,37.9-59,37.9-97.5C623.4,281.1,620.3,263.3,614.1,246.7z M542.1,353.2
	c-13.5,14.8-31.8,22.2-54.8,22.2c-11.5,0-21.9-2-31.1-5.9c-9.2-3.9-17.1-9.4-23.7-16.2c-6.6-6.9-10.6-15-14.2-24.2
	c-3.6-9.3-4.4-19.3-4.4-30.1c0-10.6,0.8-20.6,4.4-30c3.6-9.4,7.6-17.5,14.2-24.4c6.6-6.9,14.4-12.3,23.7-16.2
	c9.2-3.9,19.6-5.9,31.1-5.9c11.5,0,21.9,2,31.3,6.1c9.3,4,17.3,9.5,23.8,16.4c6.6,6.9,10.6,15,14,24.2c3.5,9.3,5.2,19.2,5.2,29.8
	C561.7,320.3,555.8,338.4,542.1,353.2z"/>
<path d="M658.1,364.5c6.6,3.2,22.2,11.3,29.5,13.8c7.3,2.5,14.9,4.6,22.8,6.2c7.9,1.6,15.4,2.4,22.5,2.4c15,0,27.3-3.2,33.7-8.6
	c7.1-5.9,11.1-11.7,11.1-19.9c0-7.9-4.7-14.9-9.4-19c-4.5-3.9-11.5-7.7-19.5-10.7c-8-3-17.8-6.3-29.2-9.7
	c-11.5-3.4-24.3-7.7-38.6-14.8c-10.7-6.1-18.8-12.5-24.1-21.3c-5.4-8.8-8.6-21-9.7-36.8c0-11.1,1.9-21.7,5.6-31.9
	c3.8-10.2,9.6-19.2,17.4-27.1c7.9-7.9,18-14.2,30.3-19c12.3-4.8,27.3-8.2,44.8-8.2c16.4,0,32.2,2,48.6,6.9
	c15.2,4.6,31.9,12,39.7,17.4l-21,44.5c-5.6-3.6-14.7-8.5-21.2-11.2c-6.4-2.7-13.2-4.8-20.4-6.4c-7.2-1.6-14.1-2.4-20.9-2.4
	c-12.9,0-23.5,2.4-31.9,7.2c-8.4,4.8-12.6,12.3-12.6,22.3c0,8.6,2.8,15,8.3,19.3c5.5,4.3,13,8.2,22.3,11.8l9.1,2.7
	c2.1,0.7,5.6,1.7,10.5,3c4.8,1.3,8.5,2.2,11,3c11.1,3.2,21.2,7,30.3,11.3c9.1,4.3,16.9,8.7,23.3,15.1c6.4,6.4,12.4,14.1,15.8,23.1
	c3.4,8.9,6.1,18.5,6.1,30.7c0,52.6-43.3,77.9-105.2,77.9c-40.8,0-79.3-18.9-99-32.1L658.1,364.5z"/>
<path d="M1103.8,424.4l-68.5,23V29l68.5-27v263.8l106.2-120.7l47.6,36.1l-92.6,112.4l89.9,120.9l-45.9,31.6L1103.8,318V424.4z"/>
<path d="M876.6,114.1l66.5-23v70h57l-20,49.7h-37v129.3c0,10.4,0.4,16.4,1.1,22.1c0.7,5.7,2.4,12,5.1,14.9c2.7,2.9,9.7,7.6,15.1,8.1
	c5.4,0.5,9.9,0.8,19.5,0.8h18.2l-17.9,44.7c0,0-21.3,4.2-37.9,4.9c-10.8,0.5-20-0.8-28.9-4.5c-8.9-3.8-16.5-8.8-22.5-15
	c-6.1-6.3-10.6-13.7-13.7-22.3c-3-8.6-4.6-17.7-4.6-27.4V114.1z"/>
<path d="M1488.1,353.5l15,35.3c-19.7,17.3-32.3,31-75,43.1c-28.8,8.1-63.6,2.3-81.7-4.9c-18.1-7.2-33.3-16.9-45.6-29.2
	s-21.6-27-27.9-44c-6.3-17-9.4-35.3-9.4-55c0-19.3,3-37.4,8.9-54.2c5.9-16.8,14.4-31.6,25.5-44.3c11.1-12.7,24.6-22.6,40.5-29.8
	c15.9-7.2,33.9-10.7,53.9-10.7c16.8,0,32.5,2.8,46.9,8.3c14.5,5.5,27,13.4,37.6,23.6c10.5,10.2,18.8,22.4,24.7,36.8
	c5.9,14.3,8.9,30.2,8.9,47.8c0,10-1.4,22.2-4.3,36.5h-173.8c3.6,23.3,13,40.8,28.3,52.6c15.2,11.8,31.6,17.7,50.9,17.7
	c6.1,0,13.5-0.3,32-5.7C1462.7,371.8,1488.1,353.5,1488.1,353.5z M1333.8,267.7h108.9c0-13.9-4-26.3-11.9-37
	c-7.9-10.7-20.1-16.1-36.7-16.1c-16.5,0-29.8,4.8-39.9,14.5C1344.2,238.7,1337.4,251.6,1333.8,267.7z"/>
<path d="M1581.6,185.7c31.6-26,71.7-25.9,98.5-25.9h27.7l-30.9,62.8h-16.7c-10.7,0-21.6,2.5-30.5,7.5c-8.9,5-20.3,22-20.3,35.3v184
	l-63.5,19c0,0,0-148.5,0-173.2C1545.9,262.8,1546.8,214.5,1581.6,185.7z"/>
<path d="M314.1,398.4l-67.2,23V282.3c0-25.7-4.3-34.7-12.9-47c-8.6-12.3-22.5-18.4-41.6-18.4c-20.9,0-37.2,7.9-50.7,23.7v211.8
	l-74.2,26V69.6L141.6,39v143.5c19.1-12.5,43.2-22.7,62.2-22.7c78.2,0,110.2,34.9,110.2,122.5V398.4z"/>
</svg>
