<svg fill="#FFF" xmlns="http://www.w3.org/2000/svg" viewBox="0 0 100 84">
	<path d="M49.8,71.8c-0.5-1.7-1-3.3-1.5-5c-3.4-12.4-6.3-25-8-37.8c-0.8-6-1.2-12-1.7-18c0-0.4,0-0.8,0.1-1.1
		c0.9-2.4,2.2-4.6,4.2-6.3c4.6-3.9,11.5-3.3,15.4,1.5C59,5.8,59.5,6.7,60,7.5c0.9,1.5,1.2,3.2,1.1,5c-1,18.6-4.8,36.7-9.7,54.5
		c-0.4,1.3-0.7,2.6-1.1,3.9c-0.1,0.3-0.2,0.6-0.3,0.9C49.9,71.8,49.8,71.8,49.8,71.8z"/>
	<path d="M53.8,72.7c0.2-0.8,0.5-1.7,0.7-2.5c3-10.5,5.4-21.1,7-31.9c1.3-8.5,2.2-17.1,3.4-25.7
		c0-0.3,0.3-0.8,0.5-0.9c2.6-1.1,5.3-1.8,8.2-1.2c2.3,0.5,4.1,1.7,5.3,3.6c2.8,4.4,3.9,9.2,2.7,14.3c-1,4.2-2.9,7.9-5,11.6
		c-5,9-10.8,17.3-17,25.5c-1.8,2.4-3.7,4.9-5.6,7.3C53.9,72.8,53.9,72.8,53.8,72.7z"/>
	<path d="M45.8,72.8c-1.5-1.9-2.9-3.7-4.4-5.6c-6.1-8.1-12-16.3-17.1-25.1c-2.3-4-4.5-8.1-5.9-12.6
		c-1.6-5.2-0.7-10,1.9-14.6c2.1-3.7,5.6-5.2,10-4.3c1.3,0.2,2.5,0.7,3.7,1.1c0.6,0.2,0.8,0.5,0.8,1.1c1.2,12.7,3,25.3,5.5,37.9
		c1.5,7.2,3.2,14.4,5.3,21.5c0.1,0.2,0.1,0.5,0.2,0.7C46,72.7,45.9,72.8,45.8,72.8z"/>
	<path d="M57.8,73.8c0.2-0.2,0.4-0.5,0.6-0.7C68.9,60.4,77.6,46.7,84,31.5c0.2-0.5,0.4-0.7,1-0.6
		c2.8,0.7,5.4,1.7,7.7,3.5c3.5,2.8,4.5,6.6,3.9,10.9c-0.1,0.4-0.1,0.8-0.2,1.1c-0.6,3-2,5.3-4.4,7.3c-6.9,5.3-14.2,10-21.8,14.1
		c-3.7,2-7.5,3.9-11.3,5.8c-0.3,0.1-0.6,0.3-0.9,0.4C57.9,73.9,57.8,73.9,57.8,73.8z"/>
	<path d="M42.2,74c-0.4-0.1-0.6-0.2-0.8-0.3c-10.5-5-20.7-10.6-30.1-17.5c-1.8-1.3-3.5-2.8-5.3-4.3
		c-0.3-0.2-0.5-0.4-0.7-0.7c-1.7-3.3-2.6-6.7-1.9-10.4c0.6-3.7,2.8-6.2,6-7.8c1.7-0.9,3.6-1.4,5.3-2c0.6-0.2,0.9,0,1.2,0.6
		c6.4,15.1,15.1,28.9,25.6,41.5C41.6,73.3,41.8,73.6,42.2,74z"/>
	<path d="M60.1,76.8c0.7-0.3,1.5-0.6,2.2-1c4.6-2.5,9.2-4.9,13.7-7.7c5.8-3.6,11.6-7.4,17.3-11.2
		c0.7-0.4,1.2-0.5,1.7,0.2c0.9,1.2,2,2.4,2.8,3.7c1.3,2.4,1.1,4.9-0.7,7.1c-2.3,2.8-5.2,4.6-8.8,5.2c-5,0.9-10.1,1.6-15.2,2.3
		c-4.1,0.6-8.3,0.9-12.4,1.4c-0.2,0-0.4,0-0.6,0C60.1,76.9,60.1,76.9,60.1,76.8z"/>
	<path d="M39.6,77c-5.4-0.6-10.7-1.2-16.1-1.9c-4-0.5-8-1.2-12-1.9c-3.4-0.6-6.2-2.3-8.4-4.8C1,66,0.8,63.1,2.4,60.4
		c0.7-1.2,1.8-2.3,2.7-3.4c0.4-0.5,0.8-0.5,1.3-0.1c3.7,2.4,7.3,4.9,11,7.2c5.8,3.5,11.6,7,17.5,10.4c1.5,0.9,3.2,1.5,4.8,2.3
		C39.7,76.9,39.6,76.9,39.6,77z"/>
	<path d="M38.1,79.3c-3.5,2.6-7.3,4.2-11.8,4c-0.7,0-1.4-0.1-2.1-0.3c-1.9-0.6-2.9-2.3-2.5-4.3
		c0.1-0.5,0.3-0.7,0.8-0.7C27.7,78.5,32.9,78.9,38.1,79.3C38.1,79.3,38.1,79.4,38.1,79.3z"/>
	<path d="M61.7,79.3c5.2-0.4,10.4-0.8,15.6-1.3c0.6,0,0.8,0.2,0.8,0.7c0.4,2.3-0.8,4-3.1,4.4
		c-2.9,0.5-5.8,0.1-8.5-1.1c-1.7-0.7-3.2-1.7-4.9-2.6C61.6,79.4,61.6,79.4,61.7,79.3z"/>
</svg>
