<svg width="516" height="471" viewBox="0 0 516 471" fill="none" xmlns="http://www.w3.org/2000/svg">
<circle cx="285.5" cy="273.5" r="194.5" fill="white" fill-opacity="0.03"/>
<circle cx="192" cy="216" r="154" fill="white" fill-opacity="0.06"/>
<path opacity="0.2" d="M251.066 410.202L450.88 322.925L249.857 212.24C249.857 212.24 41.9343 301.44 57.281 305.585C72.6277 309.73 251.066 410.202 251.066 410.202Z" fill="#110FAB"/>
<path d="M395.184 143.27L221.99 44.0542C218.778 42.1743 214.992 41.5244 211.337 42.2251C206.431 43.3555 201.831 44.902 201.839 49.1959L201.58 210.184L216.817 219.18C211.832 221.613 59.8165 295.607 59.5496 295.788L59.165 301.997C59.1619 303.316 59.5073 304.613 60.1662 305.756C60.8251 306.898 61.7741 307.847 62.9173 308.505C88.8223 323.491 240.39 411.128 240.39 411.128C242.841 412.543 245.622 413.288 248.452 413.288C251.282 413.288 254.063 412.543 256.514 411.128L400.64 327.84C401.379 327.414 401.994 326.801 402.421 326.062C402.848 325.323 403.073 324.485 403.074 323.632L403.325 157.212C403.316 154.377 402.559 151.595 401.129 149.147C399.7 146.698 397.649 144.671 395.184 143.27V143.27Z" fill="#110FAB"/>
<path d="M398.183 323.082L201.423 210.827L201.022 50.2007C201.021 49.1431 201.297 48.1036 201.824 47.1865C202.351 46.2693 203.109 45.5066 204.024 44.9748C204.938 44.443 205.976 44.1607 207.033 44.1562C208.091 44.1516 209.131 44.4251 210.05 44.9491L391.487 148.883C393.424 149.993 395.035 151.593 396.159 153.521C397.284 155.45 397.881 157.641 397.893 159.873L398.183 323.082Z" fill="#92CDF9"/>
<path d="M232.611 133.348L232.446 133.411L232.273 133.167L232.257 138.898L232.595 139.094L232.611 133.348Z" fill="#0553DD"/>
<path d="M343.563 243.601L343.555 245.36L371.705 261.609L371.713 259.851L343.563 243.601Z" fill="#0262CD"/>
<path d="M343.547 248.876L343.539 250.635L371.689 266.884L371.697 265.126L343.547 248.876Z" fill="#0262CD"/>
<path d="M389.1 306.244L208.417 201.643V55.7978L389.517 160.36L389.1 306.244Z" fill="#0553DD"/>
<path d="M398.073 323.075L201.415 209.666L62.3443 290.042C61.4282 290.571 60.6675 291.332 60.1386 292.248C59.6097 293.165 59.3313 294.204 59.3313 295.262C59.3313 296.32 59.6097 297.359 60.1386 298.276C60.6675 299.192 61.4282 299.953 62.3443 300.482L243.389 405.107C245.326 406.225 247.523 406.814 249.759 406.814C251.996 406.814 254.193 406.225 256.129 405.107L398.073 323.075Z" fill="#FFF9FF"/>
<path d="M343.641 326.56L353.43 332.181C357.394 329.943 359.373 328.829 363.329 326.584L353.54 320.963L343.641 326.56Z" fill="#92CDF9"/>
<path d="M329.205 318.263L338.994 323.883L348.893 318.286L339.104 312.665L329.205 318.263Z" fill="#92CDF9"/>
<path d="M314.737 309.965L324.495 315.57L334.394 309.973L324.605 304.352C320.68 306.605 318.694 307.72 314.737 309.965Z" fill="#92CDF9"/>
<path d="M300.286 301.66L310.075 307.288L319.973 301.691L310.184 296.071L300.286 301.66Z" fill="#92CDF9"/>
<path d="M285.834 293.362L295.623 298.983L305.522 293.394L295.733 287.765L285.834 293.362Z" fill="#92CDF9"/>
<path d="M271.374 285.065L281.171 290.685L291.07 285.088L281.273 279.46L271.374 285.065Z" fill="#92CDF9"/>
<path d="M256.922 276.767L266.719 282.388L276.61 276.791L266.813 271.17L256.922 276.767Z" fill="#92CDF9"/>
<path d="M242.47 268.47L252.275 274.091L262.158 268.47L252.369 262.842C248.413 265.11 246.427 266.225 242.47 268.47Z" fill="#92CDF9"/>
<path d="M228.018 260.165L237.807 265.785C241.772 263.548 243.75 262.433 247.706 260.188L237.917 254.568L228.018 260.165Z" fill="#92CDF9"/>
<path d="M213.567 251.867L223.356 257.48L233.254 251.883L223.465 246.262L213.567 251.867Z" fill="#92CDF9"/>
<path d="M199.115 243.57L208.904 249.19L218.803 243.593L209.014 237.973C205.049 240.21 203.071 241.325 199.115 243.57Z" fill="#92CDF9"/>
<path d="M184.663 235.265L194.452 240.893L204.39 235.296L194.601 229.675L184.663 235.265Z" fill="#92CDF9"/>
<path d="M329.747 334.41L339.536 340.031L349.434 334.41C345.509 332.157 343.563 331.034 339.645 328.789L329.747 334.41Z" fill="#92CDF9"/>
<path d="M315.295 326.113L325.084 331.741L334.983 326.144L325.194 320.515C321.237 322.761 319.259 323.875 315.295 326.113Z" fill="#92CDF9"/>
<path d="M300.843 317.815L310.632 323.42L320.57 317.846L310.781 312.218L300.843 317.815Z" fill="#92CDF9"/>
<path d="M286.391 309.518L296.18 315.138L306.079 309.541L296.29 303.921L286.391 309.518Z" fill="#92CDF9"/>
<path d="M271.939 301.22L281.728 306.841L291.627 301.244L281.838 295.623L271.939 301.22Z" fill="#92CDF9"/>
<path d="M257.48 292.915L267.276 298.543L277.175 292.946L267.386 287.31L257.48 292.915Z" fill="#92CDF9"/>
<path d="M243.028 284.617L252.825 290.238L262.723 284.641L252.927 279.02L243.028 284.617Z" fill="#92CDF9"/>
<path d="M228.576 276.32L238.365 281.941L248.271 276.32L238.475 270.699L228.576 276.32Z" fill="#92CDF9"/>
<path d="M214.124 268.023L223.913 273.643L233.812 268.046L224.015 262.425C220.09 264.663 218.08 265.777 214.124 268.023Z" fill="#92CDF9"/>
<path d="M199.68 259.717L209.461 265.33L219.36 259.733L209.571 254.104C205.615 256.365 203.605 257.48 199.68 259.717Z" fill="#92CDF9"/>
<path d="M185.22 251.42L195.009 257.04C198.934 254.803 200.952 253.688 204.908 251.443L195.119 245.823L185.22 251.42Z" fill="#92CDF9"/>
<path d="M170.768 243.122L187.183 252.542L197.082 246.945L180.667 237.525L170.768 243.122Z" fill="#92CDF9"/>
<path d="M309.384 338.555L325.641 347.888C329.605 345.651 331.584 344.537 335.54 342.291L319.283 332.958L309.384 338.555Z" fill="#92CDF9"/>
<path d="M301.4 333.97L311.189 339.591L321.088 333.994L311.299 328.373L301.4 333.97Z" fill="#92CDF9"/>
<path d="M286.948 325.673L296.737 331.27L306.636 325.673L296.847 320.052L286.948 325.673Z" fill="#92CDF9"/>
<path d="M272.497 317.368L282.286 322.996L292.184 317.399L282.395 311.778L272.497 317.368Z" fill="#92CDF9"/>
<path d="M258.045 309.07L267.834 314.699C271.759 312.454 273.776 311.339 277.733 309.102L267.975 303.473L258.045 309.07Z" fill="#92CDF9"/>
<path d="M243.585 300.773L253.382 306.393C257.307 304.156 259.324 303.041 263.281 300.796L253.492 295.16L243.585 300.773Z" fill="#92CDF9"/>
<path d="M229.133 292.475L238.93 298.096L248.829 292.499L239.032 286.878L229.133 292.475Z" fill="#92CDF9"/>
<path d="M214.681 284.17L224.47 289.798L234.377 284.17L224.58 278.542C220.624 280.818 218.646 281.933 214.681 284.17Z" fill="#92CDF9"/>
<path d="M200.229 275.873L210.018 281.493L219.917 275.904L210.128 270.276L200.229 275.873Z" fill="#92CDF9"/>
<path d="M185.778 267.575L195.567 273.18L205.465 267.583L195.676 261.962L185.778 267.575Z" fill="#92CDF9"/>
<path d="M171.326 259.278L181.115 264.898L191.045 259.301L181.256 253.681L171.326 259.278Z" fill="#92CDF9"/>
<path d="M156.874 250.98L166.663 256.601L176.562 251.004L166.773 245.383C162.785 247.62 160.83 248.735 156.874 250.98Z" fill="#92CDF9"/>
<path d="M301.958 350.11L311.747 355.731L321.645 350.134L311.856 344.513L301.958 350.11Z" fill="#92CDF9"/>
<path d="M287.506 341.828L297.295 347.449L307.225 341.852C303.3 339.599 301.353 338.476 297.436 336.231C293.448 338.468 291.462 339.583 287.506 341.828Z" fill="#92CDF9"/>
<path d="M273.054 333.523L282.843 339.12L292.742 333.523L282.953 327.895C278.965 330.171 277.01 331.27 273.054 333.523Z" fill="#92CDF9"/>
<path d="M258.602 325.225L268.391 330.846C272.355 328.609 274.333 327.494 278.29 325.249L268.501 319.628L258.602 325.225Z" fill="#92CDF9"/>
<path d="M244.15 316.928L253.939 322.549L263.838 316.952L254.049 311.331L244.15 316.928Z" fill="#92CDF9"/>
<path d="M229.691 308.631L239.487 314.251L249.386 308.654L239.597 303.01L229.691 308.631Z" fill="#92CDF9"/>
<path d="M215.239 300.325L225.035 305.954C228.96 303.709 230.97 302.594 234.934 300.357L225.138 294.728C221.181 296.973 219.203 298.088 215.239 300.325Z" fill="#92CDF9"/>
<path d="M200.787 292.02L210.576 297.641L220.482 292.02L210.67 286.431L200.787 292.02Z" fill="#92CDF9"/>
<path d="M186.335 283.73L196.124 289.351L206.023 283.754L196.234 278.133L186.335 283.73Z" fill="#92CDF9"/>
<path d="M171.883 275.433L181.672 281.03L191.571 275.433L181.782 269.812C177.818 272.073 175.84 273.18 171.883 275.433Z" fill="#92CDF9"/>
<path d="M151.183 263.548L167.22 272.756C171.145 270.511 173.163 269.396 177.119 267.159L161.082 257.951L151.183 263.548Z" fill="#92CDF9"/>
<path d="M142.979 258.83L152.768 264.451C156.693 262.214 158.711 261.099 162.667 258.854L152.878 253.233L142.979 258.83Z" fill="#92CDF9"/>
<path d="M286.14 359.067L295.937 364.687L305.836 359.09L296.039 353.47L286.14 359.067Z" fill="#92CDF9"/>
<path d="M271.688 350.762L281.485 356.39C285.41 354.145 287.419 353.03 291.384 350.793L281.587 345.172L271.688 350.762Z" fill="#92CDF9"/>
<path d="M257.236 342.464L267.033 348.085L276.932 342.495L267.135 336.867L257.236 342.464Z" fill="#92CDF9"/>
<path d="M170.517 292.672L252.581 339.772L262.48 334.19L180.416 287.09L170.517 292.672Z" fill="#92CDF9"/>
<path d="M156.065 284.366L165.862 289.995C169.787 287.75 171.797 286.635 175.761 284.398L165.964 278.769C162 281.03 160.03 282.129 156.065 284.366Z" fill="#92CDF9"/>
<path d="M141.59 276.069L151.379 281.689L161.278 276.1L151.489 270.472L141.59 276.069Z" fill="#92CDF9"/>
<path d="M127.162 267.771L136.951 273.392C140.876 271.155 142.893 270.04 146.849 267.795L137.061 262.19L127.162 267.771Z" fill="#92CDF9"/>
<path d="M237.572 343.822L170.093 304.863L131.534 328.617L198.989 367.584L237.572 343.822Z" fill="#92CDF9"/>
<path d="M208.417 55.7978L239.77 73.8999V220.098L208.417 201.643V55.7978Z" fill="white"/>
<path d="M234.393 116.007L213.684 104.232V95.4246L234.393 107.2V116.007Z" fill="#F5F9FF"/>
<path d="M326.717 191.006L323.577 193.361L254.143 152.094L251.003 96.3745L253.358 95.5895L326.717 137.642V191.006Z" fill="#93C1F9"/>
<path d="M323.577 193.361L251.003 152.094V96.3745L323.577 137.642V193.361Z" fill="#FAFCFF"/>
<path d="M234.393 86.2558L213.684 74.4808V65.6731L234.393 77.4481V86.2558Z" fill="#F5F9FF"/>
<path d="M234.393 131.024L213.684 119.249V110.442L234.393 122.217V131.024Z" fill="#F5F9FF"/>
<path d="M266.907 153.577L256.404 147.297V138.482L266.907 144.762V153.577Z" fill="#E6F0FC"/>
<path d="M290.512 162.267L272.167 152.062V147.965L290.512 158.17V162.267Z" fill="#E6F0FC"/>
<path d="M234.393 146.426L213.684 134.651V125.843L234.393 137.618V146.426Z" fill="#F5F9FF"/>
<path d="M326.717 205.607L249.072 165.305L249.135 124.634C249.135 124.634 265.793 116.784 270.832 119.139C274.593 120.906 271.617 132.406 274.538 135.35C276.327 137.147 282.662 133.78 284.672 135.35C285.881 136.268 283.793 140.484 285.002 141.402C287.435 143.255 294.422 137.022 296.926 138.757C298.323 139.722 296.502 144.518 297.899 145.484C301.667 148.059 311.762 139.086 315.695 141.402C316.441 141.85 315.915 144.283 316.653 144.754C318.129 145.696 323.577 146.018 323.577 146.018" stroke="#0553DD" stroke-width="4" stroke-miterlimit="10"/>
<path opacity="0.2" d="M210.05 44.9412L391.487 148.883C393.424 149.993 395.035 151.593 396.159 153.521C397.284 155.45 397.881 157.641 397.893 159.873L398.183 323.059L392.264 319.683C356.978 267.559 224.015 71.0111 206.596 44.1641C207.799 44.0707 209.003 44.3414 210.05 44.9412V44.9412Z" fill="#FFF9FF"/>
<path d="M233.647 124.815L231.488 126.071C232.564 125.443 234.055 125.537 235.696 126.487L237.855 125.231C236.206 124.313 234.722 124.226 233.647 124.815Z" fill="#CE9006"/>
<path d="M241.717 138.223L243.875 136.967L243.883 134.094L241.725 135.35L241.717 138.223Z" fill="#FCBD25"/>
<path d="M258.83 148.098L260.989 146.85L243.876 136.967L241.717 138.223L258.83 148.098Z" fill="#FCBD25"/>
<path d="M258.838 145.225L260.996 143.977L243.883 134.094L241.725 135.35L258.838 145.225Z" fill="#F9FBFC"/>
<path d="M258.83 148.098L260.989 146.85L260.996 143.977L258.838 145.225L258.83 148.098Z" fill="#F9FBFC"/>
<path d="M269.05 157.353L271.209 156.097C272.269 155.477 272.928 154.166 272.936 152.306C272.831 150.261 272.242 148.269 271.219 146.496C270.196 144.722 268.767 143.216 267.049 142.101L264.898 143.349C266.614 144.465 268.041 145.972 269.063 147.745C270.085 149.519 270.672 151.51 270.777 153.554C270.77 155.43 270.11 156.733 269.05 157.353Z" fill="#CE9006"/>
<path d="M264.898 143.372C266.614 144.489 268.041 145.995 269.063 147.769C270.085 149.543 270.672 151.533 270.777 153.577C270.777 157.322 268.116 158.837 264.859 156.953L235.657 140.099C233.94 138.983 232.512 137.476 231.489 135.703C230.465 133.929 229.876 131.939 229.769 129.894C229.769 126.142 232.43 124.642 235.696 126.526L264.898 143.372ZM241.717 138.223L258.83 148.098V145.225L241.717 135.35V138.223Z" fill="#FCBD25"/>
<path d="M241.725 135.35L241.717 138.223L258.83 148.098L258.838 145.225L241.725 135.35Z" fill="#F9FBFC"/>
<path d="M264.898 143.372L267.049 142.116L237.855 125.262L235.696 126.518L264.898 143.372Z" fill="#CE9006"/>
<path d="M317.297 243.397L319.455 241.811L319.463 240.053L317.304 241.639L317.297 243.397Z" fill="#F9FBFC"/>
<path d="M345.462 250.038L347.621 248.453L319.471 236.536L317.312 238.122L345.462 250.038Z" fill="#F9FBFC"/>
<path d="M345.47 248.28L347.629 246.694L319.479 234.778L317.32 236.364L345.47 248.28Z" fill="#0262CD"/>
<path d="M317.312 238.122L319.471 236.536L319.479 234.778L317.32 236.364L317.312 238.122Z" fill="#F9FBFC"/>
<path d="M328.687 229.683C328.641 229.051 328.745 228.416 328.992 227.832C329.239 227.248 329.622 226.731 330.108 226.323L327.949 227.893C327.465 228.301 327.084 228.817 326.837 229.399C326.59 229.982 326.484 230.614 326.528 231.245C326.528 234.385 328.703 237.808 331.411 238.954C331.956 239.232 332.565 239.361 333.176 239.326C333.787 239.292 334.378 239.096 334.888 238.758L337.039 237.188C336.529 237.526 335.938 237.722 335.327 237.756C334.716 237.791 334.107 237.662 333.562 237.384C330.853 236.238 328.671 232.784 328.687 229.683Z" fill="#F9FBFC"/>
<path d="M345.455 255.321L347.605 253.736L319.455 241.811L317.297 243.397L345.455 255.321Z" fill="#F9FBFC"/>
<path d="M317.304 241.639L317.297 243.397L345.454 255.321V253.563L317.304 241.639Z" fill="#0262CD"/>
<path d="M345.455 253.563L347.613 251.977L319.463 240.053L317.304 241.639L345.455 253.563Z" fill="#0262CD"/>
<path d="M345.454 255.321L347.605 253.736L347.613 251.977L345.454 253.563V255.321Z" fill="#0262CD"/>
<path d="M330.108 226.323L327.949 227.893C328.462 227.555 329.056 227.358 329.669 227.324C330.283 227.289 330.895 227.418 331.442 227.697L333.593 226.127C333.047 225.847 332.437 225.717 331.824 225.751C331.211 225.786 330.619 225.983 330.108 226.323V226.323Z" fill="#0262CD"/>
<path d="M317.32 236.363L317.312 238.122L345.462 250.038L345.47 248.28L317.32 236.363Z" fill="#0262CD"/>
<path d="M345.462 250.038L347.621 248.453L347.629 246.694L345.47 248.28L345.462 250.038Z" fill="#0262CD"/>
<path d="M334.888 238.773L337.039 237.203C337.526 236.796 337.909 236.279 338.157 235.695C338.405 235.111 338.512 234.477 338.468 233.844C338.468 230.704 336.301 227.289 333.593 226.151L331.442 227.721C334.143 228.867 336.325 232.313 336.317 235.421C336.358 236.053 336.25 236.685 336.002 237.268C335.754 237.85 335.372 238.366 334.888 238.773Z" fill="#0262CD"/>
<path d="M331.442 227.713C328.734 226.567 326.536 228.16 326.528 231.261C326.52 234.362 328.703 237.824 331.411 238.97C334.119 240.116 336.309 238.514 336.317 235.414C336.325 232.313 334.143 228.859 331.442 227.713Z" fill="#0262CD"/>
<path d="M351.711 269.938L310.977 252.668L311.087 212.923L351.821 230.193L351.711 269.938ZM331.442 227.713C328.734 226.567 326.536 228.16 326.528 231.261C326.52 234.362 328.703 237.824 331.411 238.97C334.119 240.116 336.309 238.514 336.317 235.414C336.325 232.313 334.143 228.859 331.442 227.713V227.713ZM317.312 243.413L345.47 255.337V253.555L317.32 241.631V243.389L317.312 243.413ZM317.32 238.114L345.478 250.03V248.272L317.32 236.364V238.122" fill="#F9FBFC"/>
<path d="M351.711 269.938L353.862 268.352L353.98 228.608L351.821 230.193L351.711 269.938Z" fill="#92CDF9"/>
<path d="M351.821 230.193L353.98 228.608L313.246 211.361L311.087 212.947L351.821 230.193Z" fill="#92CDF9"/>
<path d="M151.669 85.7927L154.103 87.2056C152.886 86.4991 151.214 86.6012 149.393 87.6688L146.959 86.2558C148.781 85.1882 150.46 85.0862 151.669 85.7927Z" fill="#CE9006"/>
<path d="M142.579 100.857L140.146 99.4438L140.138 96.2096L142.571 97.6226L142.579 100.857Z" fill="#FCBD25"/>
<path d="M123.292 111.988L120.866 110.583L140.146 99.4438L142.579 100.857L123.292 111.988Z" fill="#FCBD25"/>
<path d="M123.284 108.754L120.858 107.341L140.138 96.2096L142.571 97.6226L123.284 108.754Z" fill="#F9FBFC"/>
<path d="M123.292 111.988L120.866 110.583L120.858 107.341L123.284 108.754L123.292 111.988Z" fill="#F9FBFC"/>
<path d="M111.76 122.413L109.326 121C108.133 120.309 107.395 118.833 107.388 116.729C107.388 112.506 110.347 107.372 114.013 105.253L116.446 106.666C112.773 108.785 109.805 113.919 109.821 118.142C109.837 120.238 110.582 121.722 111.76 122.413Z" fill="#CE9006"/>
<path d="M149.361 87.6688C153.035 85.5493 156.026 87.2449 156.034 91.4682C156.042 95.6915 153.082 100.833 149.401 102.953L116.47 121.95C112.804 124.069 109.813 122.366 109.805 118.143C109.797 113.919 112.757 108.785 116.431 106.666L149.361 87.6688ZM142.579 100.857V97.6226L123.292 108.754V111.988L142.579 100.857Z" fill="#FCBD25"/>
<path d="M142.571 97.6226L142.579 100.857L123.292 111.988L123.284 108.754L142.571 97.6226Z" fill="#F9FBFC"/>
<path d="M116.462 106.666L114.029 105.253L146.928 86.2558L149.361 87.6688L116.462 106.666Z" fill="#CE9006"/>
<path d="M157.926 96.7198L160.092 103.785L159.818 109.437C159.818 109.437 159.033 110.818 158.687 110.442C158.342 110.065 155.398 106.046 155.335 105.842C155.273 105.637 155.021 97.4342 155.021 97.4342L157.926 96.7198Z" fill="#A04A58"/>
<path d="M121.07 116.227C121.196 116.863 121.855 124.595 121.855 124.595L121.447 130.624L118.872 133.615L116.391 129.36C116.391 129.36 115.709 127.539 116.148 126.566C116.588 125.592 118.668 116.227 118.668 116.227H121.07Z" fill="#A04A58"/>
<path opacity="0.2" d="M126.958 253.257C148.08 253.257 165.203 244.351 165.203 233.365C165.203 222.379 148.08 213.473 126.958 213.473C105.835 213.473 88.7124 222.379 88.7124 233.365C88.7124 244.351 105.835 253.257 126.958 253.257Z" fill="#110FAB"/>
<path d="M145.955 166.616C145.955 166.616 150.869 187.089 152.925 198.056C154.982 209.022 151.748 237.447 151.748 237.447C151.364 237.993 150.85 238.435 150.252 238.734C149.655 239.033 148.993 239.178 148.325 239.158C145.923 239.158 143.333 205.246 143.333 205.246C143.333 205.246 140.13 180.315 138.419 180.66C138.034 180.738 134.91 181.908 133.504 181.633C128.645 180.707 121.729 176.452 121.973 171.428C122.318 164.921 127.468 164.575 127.468 164.575C127.468 164.575 136.378 163.892 137.406 164.23C138.434 164.567 145.955 166.616 145.955 166.616Z" fill="#110FAB"/>
<path d="M156.018 99.9619C157.631 99.9619 158.939 98.6545 158.939 97.0417C158.939 95.4289 157.631 94.1215 156.018 94.1215C154.406 94.1215 153.098 95.4289 153.098 97.0417C153.098 98.6545 154.406 99.9619 156.018 99.9619Z" fill="#A04A58"/>
<path d="M119.563 119.006C121.176 119.006 122.483 117.699 122.483 116.086C122.483 114.473 121.176 113.166 119.563 113.166C117.95 113.166 116.643 114.473 116.643 116.086C116.643 117.699 117.95 119.006 119.563 119.006Z" fill="#A04A58"/>
<path d="M134.525 173.995C134.525 173.995 136.173 196.399 133.779 200.858C131.385 205.317 118.04 218.85 118.04 218.85C118.04 218.85 114.115 219.368 115.143 216.629C116.172 213.889 125.435 197.404 125.435 197.404L121.965 171.413L129.501 162.157L134.525 173.995Z" fill="#110FAB"/>
<path d="M118.307 218.434C118.307 218.434 117.263 222.657 117.6 223.458C117.938 224.259 119.131 228.168 117.059 228.529C114.986 228.89 113.683 226.959 113.471 224.942C113.259 222.924 115.041 216.676 115.041 216.676L118.307 218.434Z" fill="#110FAB"/>
<path d="M149.063 230.641C150.115 230.476 151.3 230.146 152.486 229.926C152.093 234.401 151.748 237.447 151.748 237.447C151.473 240.249 150.594 240.014 148.263 239.284C147.525 239.056 146.747 235.602 146.025 230.798C147.04 230.812 148.055 230.76 149.063 230.641Z" fill="#A04A58"/>
<path d="M153.153 230.68C153.153 230.68 150.798 233.035 145.994 232.47C145.421 232.344 144.856 231.12 144.809 230.052C144.804 229.54 144.859 229.029 144.973 228.529C145.007 228.382 145.074 228.245 145.171 228.129C145.267 228.013 145.39 227.922 145.528 227.862C145.667 227.802 145.817 227.776 145.968 227.786C146.118 227.795 146.264 227.84 146.394 227.917C147.542 228.683 148.901 229.07 150.28 229.024C152.572 228.733 152.792 226.245 152.792 226.245H153.255C153.543 226.739 153.72 227.29 153.773 227.859C153.826 228.429 153.754 229.003 153.561 229.542C153.506 229.761 153.435 229.976 153.349 230.186L153.153 230.68Z" fill="#FBFEFF"/>
<path d="M115.128 216.66C115.379 215.985 116.132 214.478 117.114 212.594C117.718 213.5 118.399 214.353 119.147 215.145C119.64 215.534 120.198 215.831 120.795 216.024C119.147 217.743 118.024 218.882 118.024 218.882C118.024 218.882 114.115 219.368 115.128 216.66Z" fill="#A04A58"/>
<path d="M122.993 214.595L121.549 216.77C121.549 216.77 117.294 218.748 116.227 213.387L117.585 210.631L118.064 210.733C118.064 210.733 117.828 213.387 119.806 213.818C120.73 214.091 121.703 214.158 122.656 214.015L122.993 214.595Z" fill="#FBFEFF"/>
<path d="M147.815 242.91C147.705 241.44 147.593 239.972 147.478 238.507C147.443 238.28 147.464 238.048 147.54 237.831C147.853 238.088 148.251 238.22 148.655 238.2C149.708 238.257 150.764 238.175 151.795 237.957C151.866 239.527 153.004 240.807 154.087 241.968C155.273 243.036 156.282 244.283 157.078 245.666C157.152 245.788 157.199 245.925 157.215 246.068C157.231 246.21 157.217 246.354 157.172 246.49C157.015 246.812 156.599 246.883 156.238 246.89C154.663 246.876 153.117 246.46 151.748 245.681C150.357 244.877 149.041 243.95 147.815 242.91V242.91Z" fill="#110FAB"/>
<path d="M142.187 169.113C143.799 169.113 145.107 167.805 145.107 166.192C145.107 164.58 143.799 163.272 142.187 163.272C140.574 163.272 139.266 164.58 139.266 166.192C139.266 167.805 140.574 169.113 142.187 169.113Z" fill="#A04A58"/>
<path d="M121.737 138.945C123.103 137.579 143.262 130.035 146.347 130.035C149.432 130.035 151.481 133.803 151.481 133.803L147.87 135.648L145.962 166.616C145.962 166.616 142.532 174.466 138.426 175.181C134.321 175.895 123.009 174.49 121.941 171.413C121.722 170.651 120.395 140.311 121.737 138.945Z" fill="#FBFEFF"/>
<path d="M140.373 131.558C144.808 131.558 148.404 127.963 148.404 123.528C148.404 119.092 144.808 115.497 140.373 115.497C135.938 115.497 132.343 119.092 132.343 123.528C132.343 127.963 135.938 131.558 140.373 131.558Z" fill="#A04A58"/>
<path d="M143.034 125.993L140.295 134.235C139.507 134.902 138.537 135.316 137.51 135.423C136.483 135.529 135.448 135.323 134.541 134.832L133.661 134.361L135.946 125.38L143.034 125.993Z" fill="#A04A58"/>
<path d="M131.385 123.849C131.385 125.569 132.115 126.989 133.018 126.989C133.921 126.989 134.658 125.592 134.658 123.849C134.658 122.107 133.928 120.709 133.018 120.709C132.107 120.709 131.385 122.13 131.385 123.849Z" fill="#A04A58"/>
<path d="M140.373 115.497C141.987 115.496 143.563 115.982 144.896 116.891C146.229 117.8 147.258 119.089 147.846 120.592C146.248 121.361 144.494 121.75 142.72 121.73C142.085 121.73 136.338 120.945 136.59 119.94C136.276 121.186 135.799 122.385 135.169 123.504C135.151 122.892 134.929 122.304 134.537 121.833C134.146 121.362 133.608 121.035 133.01 120.906H132.798C133.343 119.329 134.365 117.961 135.722 116.992C137.08 116.023 138.705 115.5 140.373 115.497V115.497Z" fill="#471821"/>
<path d="M144.4 130.632C147.729 128.614 152.07 127.947 154.386 124.815C155.956 122.735 156.199 119.979 156.113 117.389C156.026 114.798 154.919 108.44 155.328 105.881C155.721 106.401 156.274 106.779 156.901 106.956C157.529 107.133 158.198 107.1 158.805 106.862C159.344 106.59 159.769 106.135 160.004 105.578C160.238 105.022 160.267 104.4 160.085 103.824C160.783 107.027 162.44 114.029 163.107 117.208C163.892 120.89 164.716 124.627 164.551 128.395C164.588 130.144 164.053 131.858 163.028 133.277C162.199 134.151 161.203 134.85 160.1 135.334C154.074 138.387 147.618 140.505 140.954 141.614C140.585 137.603 140.931 132.736 144.4 130.632Z" fill="#FBFEFF"/>
<path d="M121.855 124.595C121.855 124.595 121.777 129.423 119.932 129.635C117.388 129.925 116.745 123.677 116.745 123.677C116.745 123.677 111.25 142.619 111.25 144.958C111.25 147.297 111.038 150.28 112.31 150.916C113.581 151.552 130.616 149.001 130.364 147.509C130.113 146.018 132.876 134.392 129.47 135.46C126.063 136.527 121.62 140.586 121.737 138.937C121.855 137.289 121.855 124.595 121.855 124.595Z" fill="#FBFEFF"/>
<path opacity="0.2" d="M124.092 411.262C145.215 411.262 162.338 402.356 162.338 391.37C162.338 380.384 145.215 371.478 124.092 371.478C102.97 371.478 85.8471 380.384 85.8471 391.37C85.8471 402.356 102.97 411.262 124.092 411.262Z" fill="#110FAB"/>
<path d="M124.108 383.229C124.108 383.229 125.262 385.992 125.207 387.594C125.231 388.001 125.168 388.408 125.022 388.788C124.876 389.169 124.65 389.514 124.359 389.8C123.068 390.156 121.757 390.439 120.434 390.647C119.532 390.702 116.572 393.057 114.421 393.206C112.27 393.356 109.507 393.991 109.209 392.304C108.91 390.616 119.846 383.865 119.846 383.865L124.108 383.229Z" fill="#110FAB"/>
<path d="M111.666 293.064L109.389 295.623C109.389 295.623 103.431 317.219 103.612 319.048C103.792 320.877 106.179 321.246 107.639 320.696C109.099 320.147 113.134 306.786 113.134 306.786L111.666 293.064Z" fill="#0B0B82"/>
<path d="M123.645 378.032L124.085 383.904C124.085 383.904 124.21 385.302 122.318 385.388C121.793 385.421 121.271 385.287 120.826 385.005C120.382 384.723 120.039 384.307 119.846 383.818L118.519 375.049L123.645 378.032Z" fill="#EEBCC5"/>
<path d="M136.417 383.292L137.524 388.567C137.524 388.567 137.186 390.435 135.483 390.176C133.779 389.917 133.277 387.633 133.277 387.633L132.256 382.02L136.417 383.292Z" fill="#EEBCC5"/>
<path d="M137.351 387.711C137.351 387.711 137.186 389.281 135.82 389.156C134.454 389.03 133.277 387.633 133.277 387.633L133.614 393.073C133.614 393.073 134.399 401.229 136.754 402.077C139.109 402.925 139.643 398.427 139.643 398.427L137.351 387.711Z" fill="#110FAB"/>
<path d="M132.822 326.898C132.822 326.898 132.374 335.438 131.927 337.016C131.479 338.594 132.822 359.483 132.822 359.483C132.822 359.483 137.532 384.203 137.32 385.553C137.108 386.903 133.277 386.228 132.374 384.878C131.471 383.527 125.859 363.078 124.964 357.238C124.069 351.397 121.361 337.911 121.361 337.911C121.361 337.911 121.141 354.318 121.141 355.668C121.141 357.018 124.061 381.51 124.061 381.51C124.061 381.51 123.951 382.224 121.706 382.562C121.224 382.634 120.731 382.578 120.278 382.399C119.824 382.219 119.426 381.924 119.123 381.541C117.789 379.343 117.341 374.539 117.341 374.539C117.341 374.539 110.826 346.68 111.273 343.751C111.721 340.823 110.378 321.285 110.378 321.285L113.974 319.935L132.822 326.898Z" fill="#F0C53B"/>
<path d="M124.265 293.755C124.265 293.755 116.8 291.345 113.746 292.114C110.692 292.883 109.664 294.917 109.405 295.937C109.146 296.958 110.425 321.693 110.425 321.693C110.425 321.693 123.684 332.683 129.265 329.849C133.316 327.824 133.646 325.532 133.512 324.417C133.423 323.743 133.381 323.064 133.387 322.384L134.109 300.529L124.265 293.755Z" fill="#110FAB"/>
<path d="M111.76 312.336L127.232 315.429L130.427 299.085L130.781 298.245L134.14 300.553L133.418 322.407C133.413 323.087 133.455 323.767 133.544 324.44C133.654 325.375 133.434 327.125 131 328.86C125.859 326.222 115.52 320.523 111.375 316.3C108.997 313.835 111.76 312.336 111.76 312.336Z" fill="#0B0B82"/>
<path d="M126.746 307.924C126.746 307.924 122.483 294.516 124.265 293.755C124.265 293.755 134.651 297.209 135.93 300.035C137.21 302.861 136.927 305.326 138.073 309.659C138.073 309.659 140.75 318.969 140.373 321.387C139.996 323.805 137.437 325.084 131.448 322.666C125.458 320.249 110.535 314.377 110.535 314.377L110.661 311.7L128.245 313.6L126.746 307.924Z" fill="#110FAB"/>
<path d="M122.075 293.739C122.075 293.739 124.807 294.524 125.058 295.136C125.309 295.749 123.284 298.7 121.133 300.286C120.05 301.133 118.849 301.818 117.569 302.319C116.018 300.272 115.172 297.776 115.159 295.207C115.214 291.078 122.075 293.739 122.075 293.739Z" fill="#F7F7FB"/>
<path d="M109.342 288.197C109.817 289.591 110.694 290.812 111.864 291.706C113.033 292.6 114.442 293.127 115.911 293.219C117.38 293.312 118.844 292.967 120.117 292.226C121.389 291.486 122.413 290.385 123.059 289.062C123.705 287.74 123.944 286.255 123.745 284.796C123.546 283.337 122.919 281.971 121.942 280.869C120.966 279.768 119.684 278.981 118.26 278.608C116.836 278.236 115.333 278.294 113.942 278.777C112.085 279.419 110.558 280.771 109.696 282.537C108.834 284.302 108.707 286.338 109.342 288.197Z" fill="#EEBCC5"/>
<path d="M114.751 287.773L117.279 295.427C118.01 296.041 118.909 296.422 119.859 296.52C120.809 296.618 121.767 296.429 122.609 295.976C122.84 295.852 123.023 295.654 123.13 295.414C123.236 295.174 123.26 294.905 123.197 294.65L121.306 287.231L114.751 287.773Z" fill="#EEBCC5"/>
<path d="M110.088 286.101C109.694 286.124 109.303 286.019 108.973 285.803V285.803C108.996 284.061 109.63 282.383 110.764 281.061C111.898 279.74 113.46 278.858 115.178 278.57C116.896 278.282 118.66 278.606 120.163 279.486C121.666 280.366 122.812 281.746 123.402 283.385C123.504 283.699 123.582 284.013 123.653 284.327C123.356 284.488 123.031 284.59 122.695 284.625C121.91 284.696 119.429 283.675 119.665 282.647C119.547 283.149 119.437 283.652 119.327 284.162C119.05 284.049 118.804 283.869 118.614 283.637C118.423 283.405 118.294 283.13 118.236 282.835C117.175 283.911 115.904 284.755 114.502 285.317C113.1 285.879 111.598 286.146 110.088 286.101V286.101Z" fill="#110FAB"/>
<path d="M105.692 323.161C106.669 323.163 107.608 322.779 108.303 322.092C108.999 321.406 109.395 320.472 109.405 319.495V319.495C109.403 318.515 109.013 317.576 108.32 316.883C107.627 316.19 106.688 315.8 105.708 315.798V315.798C104.728 315.8 103.788 316.19 103.096 316.883C102.403 317.576 102.012 318.515 102.01 319.495V319.495C102.021 320.467 102.412 321.396 103.101 322.081C103.79 322.767 104.72 323.155 105.692 323.161V323.161Z" fill="#0B0B82"/>
<path d="M120.466 284.617C120.611 285.042 120.88 285.414 121.237 285.686C121.594 285.958 122.024 286.118 122.472 286.145C122.92 286.173 123.366 286.067 123.754 285.841C124.142 285.615 124.454 285.279 124.65 284.875C124.847 284.472 124.92 284.019 124.859 283.574C124.799 283.13 124.607 282.713 124.31 282.377C124.012 282.041 123.622 281.801 123.187 281.687C122.753 281.573 122.295 281.59 121.871 281.736C121.303 281.933 120.836 282.346 120.572 282.886C120.309 283.426 120.271 284.049 120.466 284.617V284.617Z" fill="#EEBCC5"/>
<path d="M100.621 320.186C100.621 320.73 100.782 321.261 101.084 321.713C101.387 322.165 101.816 322.517 102.319 322.725C102.821 322.933 103.374 322.987 103.907 322.88C104.44 322.773 104.93 322.511 105.314 322.126C105.698 321.741 105.959 321.25 106.064 320.717C106.169 320.184 106.114 319.631 105.904 319.129C105.695 318.627 105.342 318.199 104.889 317.898C104.436 317.597 103.904 317.437 103.361 317.438C102.633 317.44 101.936 317.731 101.423 318.246C100.909 318.761 100.621 319.459 100.621 320.186V320.186Z" fill="#EEBCC5"/>
<path d="M105.99 312.642C105.99 313.185 106.151 313.717 106.453 314.168C106.755 314.62 107.184 314.972 107.686 315.18C108.188 315.388 108.741 315.443 109.274 315.337C109.807 315.231 110.296 314.969 110.681 314.585C111.065 314.2 111.326 313.711 111.432 313.178C111.538 312.645 111.484 312.093 111.276 311.591C111.068 311.088 110.716 310.659 110.264 310.357C109.812 310.056 109.281 309.894 108.738 309.894C108.009 309.894 107.31 310.184 106.795 310.699C106.28 311.214 105.99 311.913 105.99 312.642V312.642Z" fill="#EEBCC5"/>
<path d="M104.326 315.099L106.304 312.077C106.347 311.968 106.413 311.87 106.498 311.791C106.583 311.711 106.685 311.651 106.796 311.615C106.907 311.58 107.025 311.569 107.14 311.585C107.256 311.601 107.366 311.642 107.464 311.706C107.562 311.769 107.644 311.854 107.705 311.953C107.766 312.053 107.804 312.165 107.816 312.281C107.828 312.397 107.814 312.514 107.776 312.624C107.737 312.734 107.674 312.834 107.592 312.917L105.613 315.947C105.569 316.054 105.502 316.15 105.417 316.228C105.331 316.305 105.229 316.364 105.119 316.398C105.008 316.432 104.891 316.441 104.777 316.424C104.662 316.408 104.553 316.367 104.456 316.303C104.359 316.239 104.278 316.155 104.218 316.056C104.158 315.958 104.12 315.847 104.107 315.732C104.095 315.617 104.108 315.5 104.146 315.391C104.184 315.281 104.245 315.182 104.326 315.099V315.099Z" fill="#EEBCC5"/>
<path d="M99.2314 313.6L108.196 319.055L110.535 321.803L101.469 316.496L99.2314 313.6Z" fill="#E0E4ED"/>
<path d="M99.2314 313.6L98.8232 314.126L100.951 317.124L110.261 322.352L110.535 321.803L101.469 316.496L99.2314 313.6Z" fill="#110FAB"/>
<path d="M65.0604 234.935C74.3479 234.935 83.2551 238.624 89.8224 245.192C96.3897 251.759 100.079 260.666 100.079 269.954C100.079 274.552 99.1734 279.105 97.4134 283.354C95.6534 287.602 93.0738 291.462 89.8219 294.713C86.57 297.964 82.7095 300.543 78.4609 302.302C74.2123 304.061 69.6587 304.966 65.0604 304.965V304.965C60.462 304.966 55.9084 304.061 51.6598 302.302C47.4112 300.543 43.5507 297.964 40.2988 294.713C37.0469 291.462 34.4673 287.602 32.7073 283.354C30.9473 279.105 30.0415 274.552 30.0415 269.954V269.954C30.0415 260.666 33.731 251.759 40.2983 245.192C46.8656 238.624 55.7728 234.935 65.0604 234.935V234.935Z" fill="#110FAB"/>
<path d="M82.7244 295.557L82.0504 296.192L97.7683 312.866L98.4423 312.23L82.7244 295.557Z" fill="#110FAB"/>
<path d="M65.0604 237.415C69.336 237.411 73.5705 238.25 77.5218 239.883C81.4732 241.517 85.0639 243.913 88.0887 246.935C91.1135 249.956 93.513 253.545 95.1502 257.495C96.7873 261.444 97.63 265.678 97.63 269.954V269.954C97.63 278.583 94.2019 286.86 88.0998 292.962C81.9977 299.064 73.7214 302.492 65.0918 302.492C56.4621 302.492 48.1858 299.064 42.0837 292.962C35.9816 286.86 32.5535 278.583 32.5535 269.954V269.954C32.5535 261.329 35.9773 253.058 42.0726 246.957C48.1679 240.855 56.4361 237.424 65.0604 237.415V237.415Z" fill="#FFF9FF"/>
<path d="M52.8222 292.585H78.0913C78.8717 292.585 79.5043 291.953 79.5043 291.172V247.997C79.5043 247.217 78.8717 246.584 78.0913 246.584H52.8222C52.0418 246.584 51.4092 247.217 51.4092 247.997L51.4092 291.172C51.4092 291.953 52.0418 292.585 52.8222 292.585Z" fill="#110FAB"/>
<path d="M77.0316 290.12V249.057H53.8741V290.12H77.0316Z" fill="#FFF9FF"/>
<path d="M77.0316 290.12V273.784H53.8741V290.12H77.0316Z" fill="#0262CD"/>
<path d="M71.9998 255.376C71.9998 255.714 71.8663 256.161 72.1254 256.35C72.3844 256.538 72.5179 256.467 72.6749 256.601C72.8319 256.734 72.7612 257.252 72.5414 257.519C72.3216 257.786 72.0626 258.108 72.196 258.422C72.2667 258.587 72.4237 258.689 72.5179 258.83C72.6122 259 72.6516 259.194 72.6305 259.387C72.6094 259.579 72.5289 259.761 72.4001 259.906C72.0629 260.271 71.6059 260.504 71.112 260.561C70.618 260.619 70.1198 260.498 69.7075 260.22C69.3914 260.048 69.1466 259.77 69.0168 259.435C68.9581 259.262 68.9612 259.075 69.0257 258.904C69.0901 258.734 69.2118 258.591 69.37 258.501C69.4956 258.438 69.6683 258.406 69.7311 258.273C69.7939 258.139 69.5349 257.865 69.3464 257.692C69.2654 257.609 69.2024 257.51 69.1614 257.402C69.1204 257.294 69.1023 257.178 69.1082 257.062C69.1141 256.946 69.1439 256.833 69.1957 256.729C69.2475 256.626 69.3202 256.534 69.4093 256.46C69.5663 256.342 69.7861 256.263 69.8567 256.083C69.8842 255.943 69.8842 255.799 69.8567 255.659C69.8567 254.56 71.882 254.277 71.9998 255.376Z" fill="#5BB59B"/>
<path d="M70.9871 256.051H70.9321V260.479H70.9871V256.051Z" fill="#0553DD"/>
<path d="M70.9636 257.794L71.8977 257.009L71.8663 256.97L70.9557 257.731L69.8332 256.93L69.8018 256.978L70.9636 257.794Z" fill="#0553DD"/>
<path d="M70.9636 259.678L71.8977 258.893L71.8663 258.846L70.9557 259.607L69.8332 258.807L69.8018 258.854L70.9636 259.678Z" fill="#0553DD"/>
<path d="M62.5641 254.159C62.5641 254.599 62.3835 255.141 62.721 255.431C62.9251 255.604 63.2391 255.58 63.4432 255.753C63.7808 256.043 63.561 256.601 63.2784 256.954C62.9958 257.307 62.6425 257.739 62.8153 258.139C62.9095 258.351 63.1135 258.485 63.247 258.665C63.3677 258.889 63.4174 259.144 63.3893 259.396C63.3613 259.649 63.2569 259.887 63.09 260.078C62.6469 260.557 62.0471 260.861 61.3993 260.936C60.7514 261.011 60.0981 260.851 59.5575 260.487C59.1406 260.253 58.8226 259.877 58.6626 259.427C58.5884 259.202 58.5931 258.96 58.6759 258.738C58.7587 258.517 58.9146 258.331 59.1179 258.21C59.2906 258.124 59.5104 258.084 59.5889 257.912C59.7302 257.613 59.3377 257.37 59.0943 257.127C58.9874 257.018 58.904 256.889 58.8496 256.747C58.7952 256.605 58.7709 256.453 58.7783 256.301C58.7857 256.149 58.8246 256 58.8925 255.864C58.9604 255.728 59.0559 255.607 59.1728 255.51C59.3769 255.353 59.6595 255.258 59.7616 255.015C59.8011 254.834 59.8011 254.647 59.7616 254.466C59.7537 253.092 62.4149 252.715 62.5641 254.159Z" fill="#5BB59B"/>
<path d="M61.2374 255.031H61.1668V260.816H61.2374V255.031Z" fill="#0553DD"/>
<path d="M61.206 257.323L62.4306 256.287L62.3835 256.232L61.1981 257.229L59.7302 256.185L59.6909 256.24L61.206 257.323Z" fill="#0553DD"/>
<path d="M61.206 259.78L62.4306 258.744L62.3835 258.689L61.1981 259.686L59.7302 258.642L59.6909 258.705L61.206 259.78Z" fill="#0553DD"/>
<path d="M68.3809 251.922C68.4358 252.503 68.1533 253.21 68.585 253.586C68.8519 253.806 69.2601 253.783 69.527 254.002C69.9744 254.379 69.6761 255.109 69.3072 255.572C68.9382 256.036 68.5222 256.577 68.7184 257.142C68.8283 257.417 69.0953 257.59 69.268 257.833C69.425 258.122 69.4903 258.452 69.4552 258.778C69.4202 259.105 69.2864 259.413 69.0717 259.662C68.0434 261.012 65.9317 261.099 64.4716 260.196C63.9285 259.897 63.5148 259.408 63.3098 258.822C63.2208 258.532 63.2304 258.221 63.3369 257.937C63.4434 257.653 63.6409 257.412 63.8985 257.252C64.1183 257.142 64.4088 257.087 64.5108 256.868C64.6914 256.483 64.1811 256.169 63.8671 255.879C63.7262 255.739 63.6161 255.571 63.5439 255.387C63.4717 255.202 63.439 255.004 63.4479 254.806C63.4567 254.608 63.507 254.413 63.5954 254.236C63.6839 254.058 63.8085 253.901 63.9614 253.775C64.2361 253.571 64.6051 253.445 64.7464 253.131C64.7976 252.896 64.7976 252.652 64.7464 252.417C64.7307 250.533 68.1846 250.046 68.3809 251.922Z" fill="#5BB59B"/>
<path d="M66.6618 253.068H66.5676V260.604H66.6618V253.068Z" fill="#0553DD"/>
<path d="M66.6146 256.043L68.2082 254.701L68.1454 254.63L66.6068 255.926L64.6914 254.568L64.6365 254.638L66.6146 256.043Z" fill="#0553DD"/>
<path d="M66.6146 259.246L68.2082 257.904L68.1454 257.825L66.6068 259.121L64.6914 257.763L64.6365 257.841L66.6146 259.246Z" fill="#0553DD"/>
<path d="M57.7128 263.54H73.7189V261.954H57.7128V263.54Z" fill="#92CDF9"/>
<path d="M57.7128 266.578H73.7189V264.992H57.7128V266.578Z" fill="#92CDF9"/>
<path d="M62.5405 268.596H68.8833C69.1299 268.579 69.3772 268.614 69.6099 268.697C69.8426 268.78 70.0558 268.91 70.2362 269.079C70.4166 269.248 70.5604 269.452 70.6587 269.679C70.7571 269.906 70.8078 270.15 70.8078 270.397C70.8078 270.644 70.7571 270.889 70.6587 271.116C70.5604 271.342 70.4166 271.546 70.2362 271.715C70.0558 271.884 69.8426 272.014 69.6099 272.097C69.3772 272.181 69.1299 272.215 68.8833 272.199H62.5405C62.2939 272.215 62.0466 272.181 61.8139 272.097C61.5812 272.014 61.368 271.884 61.1876 271.715C61.0072 271.546 60.8634 271.342 60.7651 271.116C60.6667 270.889 60.616 270.644 60.616 270.397C60.616 270.15 60.6667 269.906 60.7651 269.679C60.8634 269.452 61.0072 269.248 61.1876 269.079C61.368 268.91 61.5812 268.78 61.8139 268.697C62.0466 268.614 62.2939 268.579 62.5405 268.596Z" fill="#F0C53B"/>
<path d="M58.3015 287.875H73.1223V276.508H58.3015V287.875Z" fill="#FFF9FF"/>
<path d="M65.7119 282.781C66.9822 282.781 68.0119 281.751 68.0119 280.48C68.0119 279.21 66.9822 278.18 65.7119 278.18C64.4416 278.18 63.4119 279.21 63.4119 280.48C63.4119 281.751 64.4416 282.781 65.7119 282.781Z" fill="#92CDF9"/>
<path d="M59.534 286.227H71.882V284.641H59.534V286.227Z" fill="#92CDF9"/>
<path opacity="0.2" d="M226.723 284.115C243.866 284.115 257.762 276.889 257.762 267.975C257.762 259.062 243.866 251.836 226.723 251.836C209.581 251.836 195.684 259.062 195.684 267.975C195.684 276.889 209.581 284.115 226.723 284.115Z" fill="#110FAB"/>
<path opacity="0.2" d="M302.931 330.775C320.073 330.775 333.97 323.55 333.97 314.636C333.97 305.722 320.073 298.496 302.931 298.496C285.789 298.496 271.892 305.722 271.892 314.636C271.892 323.55 285.789 330.775 302.931 330.775Z" fill="#110FAB"/>
<path opacity="0.2" d="M402.312 429.654C427.466 429.654 447.858 421.289 447.858 410.971C447.858 400.653 427.466 392.288 402.312 392.288C377.158 392.288 356.766 400.653 356.766 410.971C356.766 421.289 377.158 429.654 402.312 429.654Z" fill="#110FAB"/>
<path d="M377.6 337.189L419.645 351.319V404.228C419.645 414.935 405.397 423.617 387.813 423.617C370.229 423.617 355.981 414.935 355.981 404.228V351.319L377.6 337.189Z" fill="#DCDEEF"/>
<path d="M387.813 370.701C405.393 370.701 419.645 362.02 419.645 351.311C419.645 340.603 405.393 331.922 387.813 331.922C370.233 331.922 355.981 340.603 355.981 351.311C355.981 362.02 370.233 370.701 387.813 370.701Z" fill="#DCDEEF"/>
<path d="M414.911 361.485C409.306 367.019 399.266 370.701 387.813 370.701C376.36 370.701 366.32 367.019 360.715 361.485C360.324 360.364 360.122 359.186 360.118 357.999C360.118 348.689 372.521 341.13 387.813 341.13C403.105 341.13 415.508 348.689 415.508 357.999C415.508 359.186 415.306 360.365 414.911 361.485V361.485Z" fill="#471821"/>
<path d="M371.768 347.151C370.472 348.619 369.193 350.974 370.637 352.292C371.352 352.944 372.419 352.952 373.353 353.211C374.288 353.47 375.253 354.357 374.923 355.26C374.704 355.825 374.06 356.092 373.707 356.578C373.086 357.426 373.542 358.714 374.382 359.342C375.284 359.894 376.315 360.199 377.373 360.229L387.295 361.39C388.677 361.555 390.317 361.916 390.78 363.22C391.377 364.915 389.493 366.36 387.962 367.309C386.423 368.254 384.97 369.334 383.621 370.536C385.003 370.646 386.408 370.701 387.837 370.701C393.453 370.741 399.034 369.792 404.322 367.898C404.21 367.783 404.11 367.657 404.023 367.521C403.034 365.873 404.227 363.777 405.593 362.38C406.959 360.982 408.49 359.53 408.49 357.583C408.443 355.385 406.237 353.909 404.188 353.093C398.034 350.636 391.228 350.581 384.681 349.529C383.778 349.388 382.718 349.097 382.42 348.234C384.602 344.937 389.203 344.639 392.947 343.375C393.904 343.107 394.759 342.56 395.404 341.805C392.91 341.375 390.383 341.159 387.852 341.161C380.175 341.161 373.22 343.069 368.227 346.146C369.35 346.515 370.551 346.868 371.768 347.151ZM392.609 353.847C393.065 353.14 395.067 352.865 395.859 352.85C397.775 352.81 401.237 353.195 402.642 354.569C402.713 354.624 402.77 354.696 402.808 354.778C402.846 354.86 402.865 354.95 402.862 355.04C402.862 355.283 402.548 355.409 402.312 355.472C400.063 355.952 397.74 355.973 395.483 355.534C394.737 355.424 391.84 355.04 392.609 353.847V353.847Z" fill="#A04A58"/>
<path d="M387.813 334.151C403.858 334.151 417.415 342.001 417.415 351.311C417.415 360.621 403.858 368.471 387.813 368.471C371.768 368.471 358.25 360.613 358.25 351.311C358.25 342.009 371.807 334.151 387.852 334.151H387.813ZM387.852 331.922C370.276 331.922 356.021 340.604 356.021 351.311C356.021 362.018 370.276 370.701 387.852 370.701C405.428 370.701 419.684 362.018 419.684 351.311C419.684 340.604 405.436 331.922 387.852 331.922Z" fill="#FFF9FF"/>
<path d="M360.66 372.694L361.822 372.019V377.404C359.147 379.209 356.956 381.642 355.439 384.49C353.923 387.338 353.128 390.514 353.124 393.74C353.116 395.763 353.819 397.725 355.11 399.282C355.511 399.339 355.914 399.368 356.319 399.369V399.369H356.374H356.429H356.554H356.609H356.743H356.798H356.853H356.978H357.033H357.088H357.214H357.269H357.324H357.394H362.96H363.015H363.148H363.203H363.258H363.384H363.439H363.494H363.619H363.674H363.808H363.863H363.91H364.043H364.098H364.153H364.279H364.334H364.389H364.53H364.663H364.718H364.773H364.899H364.954H365.009H365.134H365.189H365.315H365.393H365.441H365.496H365.629H365.684H365.739H365.865H365.919H365.974H366.1H366.233H366.288H366.343H366.469H366.524H366.579H366.704H366.759H366.814H366.885H366.94H366.995H367.128H367.183H367.238H367.309V403.985C364.97 403.976 362.674 403.354 360.652 402.179H355.157C353.124 401.02 351.436 399.342 350.267 397.315C349.097 395.289 348.487 392.987 348.5 390.647C349.001 386.919 350.36 383.357 352.47 380.242C354.58 377.127 357.383 374.543 360.66 372.694V372.694Z" fill="#DCDEEF"/>
<path opacity="0.2" d="M366.163 375.78L367.325 375.104V380.49C364.65 382.294 362.458 384.727 360.942 387.575C359.426 390.423 358.631 393.599 358.627 396.825C358.62 398.354 359.019 399.857 359.783 401.181C360.547 402.505 361.649 403.603 362.976 404.361C364.297 405.128 365.796 405.537 367.325 405.547V410.163C363.785 410.163 360.391 408.757 357.888 406.254C355.386 403.751 353.98 400.357 353.98 396.818C353.988 392.551 355.117 388.361 357.256 384.668C359.394 380.976 362.466 377.91 366.163 375.78V375.78Z" fill="#110FAB"/>
<path d="M310.294 320.916L300.796 327.345C300.796 327.345 296.792 331.451 295.379 332.73C293.966 334.01 293.024 332.612 293.888 330.964C294.453 329.881 296.455 326.387 297.75 324.126C298.081 323.532 298.554 323.028 299.126 322.659C299.699 322.291 300.353 322.07 301.031 322.015L302.366 321.952L304.43 320.618C304.793 320.359 305.179 320.135 305.584 319.95C306.283 319.782 306.991 319.651 307.704 319.558C307.939 319.621 310.294 320.916 310.294 320.916Z" fill="#E2A1D0"/>
<path d="M302.075 325.335C301.602 326.236 300.984 327.052 300.246 327.753C299.524 328.538 298.81 329.253 298.095 330.006L296.078 332.126C295.752 332.506 295.368 332.832 294.94 333.091C294.748 333.214 294.524 333.28 294.296 333.28C294.068 333.28 293.844 333.214 293.652 333.091C293.521 332.948 293.429 332.772 293.388 332.581C293.347 332.391 293.357 332.193 293.417 332.008C293.536 331.595 293.713 331.202 293.943 330.838L297.64 324.338C297.891 323.846 298.211 323.391 298.59 322.988C299.242 322.36 301.126 321.56 301.848 321.976C302.711 322.478 302.468 324.456 302.075 325.335Z" fill="#110FAB"/>
<path d="M288.652 309.4L284.656 311.833L279.161 314.11C279.161 314.11 275.158 317.485 273.745 318.506C272.332 319.526 271.39 317.956 272.253 316.465C272.818 315.484 274.82 312.359 276.115 310.342C276.462 309.804 276.955 309.375 277.536 309.107C278.117 308.839 278.762 308.741 279.397 308.827L280.731 309.007L282.788 308.058C283.158 307.862 283.547 307.707 283.95 307.594C284.653 307.559 285.358 307.559 286.061 307.594C286.297 307.673 288.652 309.4 288.652 309.4Z" fill="#E2A1D0"/>
<path d="M310.247 284.076L304.446 279.617L301.306 299.187L281.54 308.607C281.54 308.607 283.675 307.508 284.641 309.29C285.849 311.512 284.641 311.818 284.641 311.818L306.887 304.87C307.363 304.719 307.792 304.449 308.133 304.085C308.474 303.72 308.715 303.275 308.834 302.79L313.073 285.74L310.247 284.076Z" fill="#3636BF"/>
<path d="M322.14 279.46C322.415 285.473 323.938 303.716 323.6 305.506C323.145 307.924 312.901 319.417 307.115 323.451L306.99 323.263C306.564 322.544 305.899 321.998 305.111 321.72C304.323 321.441 303.463 321.449 302.68 321.74H302.625C305.883 314.495 308.983 311.048 314.573 305.404C313.874 302.633 314.109 291.761 313.411 288.99C310.553 288.558 304.054 284.484 304.054 284.484C304.054 284.484 303.324 280.559 304.493 277.898L314.086 276.139C316.975 275.637 320.264 277.183 322.14 279.46Z" fill="#110FAB"/>
<path d="M322.14 243.397C322.142 244.848 321.713 246.266 320.908 247.473C320.103 248.679 318.959 249.62 317.619 250.176C316.28 250.733 314.805 250.879 313.383 250.597C311.96 250.315 310.653 249.617 309.626 248.592C308.6 247.567 307.901 246.261 307.618 244.838C307.334 243.416 307.479 241.941 308.034 240.601C308.588 239.261 309.528 238.115 310.734 237.309C311.94 236.503 313.358 236.073 314.808 236.073C316.751 236.073 318.615 236.844 319.99 238.218C321.365 239.591 322.138 241.454 322.14 243.397V243.397Z" fill="#E2A1D0"/>
<path d="M303.3 260.102C303.3 260.102 300.16 251.852 303.504 249.536C306.048 249.253 309.156 250.729 309.156 250.729C309.156 250.729 315.75 254.968 320.146 257.166C322.36 258.273 320.806 263.595 320.735 268.941C320.778 272.468 321.25 275.976 322.14 279.389C322.14 279.389 315.311 282.317 311.645 282.074C307.979 281.831 303.59 280.119 304.077 278.416C304.564 276.713 306.762 270.354 305.788 268.156C304.808 265.52 303.978 262.831 303.3 260.102V260.102Z" fill="#FBFEFF"/>
<path d="M320.17 257.166C318.992 256.577 317.658 255.847 316.339 255.086C315.248 255.518 314.376 255.871 314.376 255.871L313.638 263.234C313.638 263.234 314.047 274.946 314.847 281.721C317.331 281.139 319.763 280.351 322.116 279.366C321.209 275.811 320.726 272.162 320.68 268.494C320.758 263.179 322.391 258.265 320.17 257.166Z" fill="#D7DAFF"/>
<path d="M341.82 259.945C341.82 260.566 341.636 261.173 341.291 261.689C340.946 262.206 340.455 262.608 339.882 262.846C339.308 263.084 338.676 263.146 338.067 263.025C337.458 262.903 336.899 262.604 336.46 262.165C336.021 261.726 335.721 261.167 335.6 260.557C335.479 259.948 335.541 259.317 335.779 258.743C336.017 258.17 336.419 257.679 336.935 257.334C337.452 256.989 338.059 256.805 338.68 256.805C339.513 256.805 340.311 257.136 340.9 257.725C341.489 258.313 341.82 259.112 341.82 259.945Z" fill="#E2A1D0"/>
<path d="M312.375 252.88L320.17 257.166C320.17 257.166 322.368 257.951 324.566 263.297C326.764 268.643 329.935 273.777 331.403 274.287C332.871 274.797 337.283 263.297 338.264 262.512C339.245 261.727 340.925 260.157 340.682 263.297C340.438 266.437 338.484 280.614 335.312 281.831C332.141 283.047 311.276 266.555 311.032 262.19C310.984 259.035 311.438 255.893 312.375 252.88V252.88Z" fill="#FBFEFF"/>
<path d="M338.138 261.915C337.165 262.645 332.871 274.75 331.403 274.263L331.136 274.13L331.058 274.083L330.83 273.91L330.751 273.847C330.649 273.761 330.547 273.659 330.437 273.549L330.335 273.439C330.257 273.361 330.178 273.274 330.1 273.18L329.959 273.007C329.88 272.921 329.802 272.819 329.723 272.717C329.645 272.615 329.558 272.505 329.472 272.395L329.26 272.105C329.181 272.003 329.111 271.893 329.032 271.783L328.891 271.571C328.601 271.139 328.302 270.676 327.996 270.166C327.992 270.145 327.992 270.124 327.996 270.103C327.549 269.318 327.086 268.533 326.638 267.669C325.181 269.861 323.415 271.831 321.394 273.518C327.235 278.283 333.695 282.467 335.352 281.831C338.492 280.614 340.478 266.445 340.721 263.297C340.964 260.149 339.12 261.177 338.138 261.915Z" fill="#E2A1D0"/>
<path d="M310.098 245.258L308.999 253.108C309.382 253.973 310.016 254.704 310.82 255.204C311.624 255.704 312.559 255.95 313.505 255.91H314.408L316.166 247.644L310.098 245.258Z" fill="#E2A1D0"/>
<path d="M319.612 245.532C319.585 245.271 319.493 245.021 319.344 244.804C319.195 244.588 318.995 244.412 318.76 244.293C318.526 244.175 318.265 244.117 318.003 244.125C317.74 244.133 317.484 244.206 317.257 244.339C316.972 244.602 316.77 244.943 316.677 245.32C316.583 245.697 316.602 246.093 316.731 246.459C317.002 247.185 317.416 247.85 317.948 248.413C315.628 249.967 313.126 251.23 310.498 252.173C309.399 250.603 308.306 249.02 307.217 247.424C306.684 246.737 306.27 245.965 305.993 245.14C305.585 242.762 306.132 240.319 307.515 238.342C308.393 237.343 309.467 236.535 310.67 235.969C311.874 235.403 313.181 235.091 314.51 235.053C316.661 234.88 319.259 236.356 320.648 238.028C322.517 240.21 320.468 243.162 319.612 245.532Z" fill="#110FAB"/>
<path d="M303.229 249.12C303.159 249.335 303.135 249.562 303.159 249.787C303.223 250.02 303.344 250.233 303.512 250.407C304.261 251.334 305.111 252.174 306.047 252.911C306.814 253.531 307.662 254.044 308.567 254.434C311.574 255.706 315.004 255.258 318.239 254.787C318.016 252.663 317.943 250.525 318.019 248.39C317.341 248.127 316.753 247.674 316.327 247.085C315.901 246.495 315.654 245.795 315.617 245.069C315.617 244.064 315.962 243.06 315.766 242.07C315.193 239.252 311.221 238.656 308.889 239.009C306.558 239.362 305.859 241.364 305.113 243.303C304.383 245.207 303.754 247.149 303.229 249.12V249.12Z" fill="#110FAB"/>
<path d="M318.804 247.338C318.804 247.493 318.758 247.645 318.671 247.774C318.585 247.903 318.463 248.004 318.319 248.063C318.176 248.122 318.018 248.138 317.866 248.108C317.713 248.077 317.573 248.003 317.464 247.893C317.354 247.783 317.279 247.643 317.249 247.491C317.219 247.339 317.234 247.181 317.293 247.037C317.353 246.894 317.454 246.771 317.583 246.685C317.712 246.599 317.863 246.553 318.019 246.553C318.227 246.553 318.427 246.636 318.574 246.783C318.721 246.93 318.804 247.13 318.804 247.338Z" fill="#E0E4FF"/>
<path d="M280.441 312.32C279.975 313.128 279.35 313.833 278.604 314.392L276.453 316.261L274.443 318.003C274.114 318.335 273.725 318.602 273.297 318.788C273.102 318.887 272.881 318.924 272.664 318.896C272.447 318.867 272.244 318.774 272.081 318.628C271.917 318.483 271.802 318.292 271.748 318.079C271.695 317.867 271.707 317.644 271.782 317.438C271.891 317.051 272.07 316.687 272.308 316.363L276.006 310.538C276.251 310.095 276.572 309.699 276.955 309.369C277.607 308.858 279.491 308.395 280.213 308.945C281.069 309.58 280.825 311.512 280.441 312.32Z" fill="#110FAB"/>
<path d="M245.21 146.638C245.052 147.09 244.764 147.485 244.381 147.772C243.999 148.06 243.539 148.228 243.062 148.254C242.584 148.281 242.109 148.165 241.697 147.921C241.285 147.678 240.955 147.317 240.748 146.886C240.541 146.454 240.466 145.971 240.534 145.497C240.602 145.023 240.809 144.58 241.129 144.224C241.449 143.868 241.867 143.615 242.331 143.497C242.795 143.379 243.283 143.401 243.734 143.561C244.034 143.665 244.31 143.827 244.547 144.038C244.784 144.25 244.976 144.506 245.114 144.792C245.251 145.078 245.33 145.388 245.347 145.705C245.363 146.022 245.317 146.339 245.21 146.638Z" fill="#E9A4D7"/>
<path d="M241.725 146.897C241.725 146.897 235.099 160.619 234.487 163.044C234.016 164.913 237.478 167.55 238.844 166.106C240.21 164.662 243.821 147.494 243.821 147.494L241.725 146.897Z" fill="#E9A4D7"/>
<path d="M228.843 170.926C231.559 167.637 233.239 163.641 235.193 159.857C235.437 159.386 235.735 158.884 236.245 158.751C236.655 158.693 237.072 158.773 237.431 158.978C238.938 159.614 240.696 160.627 240.665 162.267C240.619 162.777 240.48 163.275 240.257 163.735C237.243 170.922 233.731 177.888 229.746 184.585C229.118 185.637 228.309 186.791 227.092 186.94C225.875 187.089 224.737 185.943 224.046 184.844C222.877 183.007 220.797 179.349 221.888 177.08C222.979 174.812 227.084 173.053 228.843 170.926Z" fill="#CE9006"/>
<path d="M261.915 155.092C261.756 155.542 261.467 155.934 261.085 156.219C260.703 156.504 260.245 156.669 259.769 156.694C259.293 156.719 258.821 156.602 258.411 156.358C258.002 156.115 257.673 155.755 257.468 155.325C257.263 154.895 257.19 154.413 257.258 153.942C257.327 153.47 257.533 153.029 257.852 152.675C258.171 152.321 258.587 152.069 259.049 151.952C259.511 151.834 259.998 151.856 260.447 152.015C260.746 152.12 261.021 152.283 261.257 152.494C261.493 152.706 261.685 152.962 261.821 153.248C261.958 153.534 262.036 153.845 262.052 154.161C262.068 154.478 262.022 154.794 261.915 155.092V155.092Z" fill="#E9A4D7"/>
<path d="M223.371 204.979C223.371 204.979 220.647 225.899 220.42 236.01C220.192 246.121 216.196 246.38 213.355 252.919C211.533 257.218 209.979 261.625 208.7 266.115L210.215 266.971C210.215 266.971 223.638 250.486 225.247 248.916C226.857 247.346 232.14 219.737 232.14 219.737L223.371 204.979Z" fill="#3636BF"/>
<path d="M210.215 266.971C210.215 266.971 209.587 268.847 209.069 270.307C208.55 271.767 209.069 275.017 208.236 276.344C207.404 277.67 205.097 276.555 205.214 275.409C205.423 273.295 205.771 271.197 206.258 269.129C206.984 268.046 207.801 267.027 208.7 266.084L210.215 266.971Z" fill="#110FAB"/>
<path d="M241.191 169.67C241.189 171.118 240.758 172.533 239.953 173.737C239.147 174.94 238.003 175.878 236.664 176.431C235.326 176.984 233.853 177.128 232.433 176.844C231.013 176.561 229.709 175.863 228.685 174.838C227.662 173.814 226.965 172.509 226.683 171.088C226.401 169.667 226.546 168.195 227.101 166.857C227.656 165.52 228.594 164.376 229.799 163.572C231.003 162.767 232.419 162.338 233.867 162.338C234.829 162.338 235.782 162.528 236.671 162.896C237.56 163.265 238.368 163.805 239.048 164.486C239.729 165.167 240.268 165.975 240.636 166.865C241.003 167.754 241.192 168.707 241.191 169.67V169.67Z" fill="#E9A4D7"/>
<path d="M236.952 268.392C236.952 268.392 237.085 271.398 237.125 271.673C237.164 271.948 238.428 272.583 240.265 272.207C242.101 271.83 247.33 270.095 248.279 269.192C249.229 268.289 246.293 268.486 244.527 268.651C242.788 268.695 241.048 268.608 239.323 268.392H236.952Z" fill="#110FAB"/>
<path d="M222.445 212.523L230.515 219.156C230.515 219.156 235.225 235.382 235.727 239.26C236.23 243.138 236.944 264.019 236.936 268.391C236.936 271.1 238.875 269.781 239.605 269.302C240.335 268.823 243.475 242.432 243.475 235.547C243.475 228.663 240.421 204.524 240.421 204.524L223.356 204.595L222.445 212.523Z" fill="#110FAB"/>
<path d="M224.839 194.421C223.879 191.783 223.064 189.094 222.398 186.367C220.749 181.414 221.26 178.666 221.998 177.222C224.596 175.919 229.063 178.007 229.063 178.007C229.063 178.007 235.468 180.291 239.268 183.407C240.602 184.514 239.723 190.221 239.44 196.203C239.252 200.183 241.207 205.623 241.207 205.623C241.207 205.623 234.377 208.559 230.719 208.308C227.061 208.056 222.657 206.361 223.144 204.65C223.63 202.938 225.821 196.619 224.839 194.421Z" fill="#F0C53B"/>
<path d="M258.437 155.352C258.437 155.352 251.812 169.081 251.2 171.507C250.729 173.375 254.183 176.013 255.556 174.568C256.93 173.124 260.525 155.956 260.525 155.956L258.437 155.352Z" fill="#E9A4D7"/>
<path d="M239.197 183.525C238.114 182.787 238.341 184.985 237.022 184.224C236.519 184.472 235.957 184.58 235.398 184.538L234.613 189.648C234.613 189.648 233.113 201.243 233.922 208.017C236.403 207.436 238.832 206.648 241.183 205.662C240.926 203.863 240.543 202.085 240.037 200.34C238.326 194.39 240.845 184.632 239.197 183.525Z" fill="#CE9006"/>
<path d="M229.18 171.523L228.081 179.373C228.46 180.233 229.088 180.961 229.884 181.462C230.68 181.963 231.608 182.214 232.548 182.183H233.451L235.209 173.917L229.18 171.523Z" fill="#E9A4D7"/>
<path d="M238.695 171.797C238.679 171.531 238.594 171.273 238.447 171.049C238.3 170.826 238.097 170.645 237.859 170.525C237.62 170.405 237.354 170.35 237.088 170.365C236.821 170.38 236.563 170.466 236.34 170.612C236.053 170.872 235.849 171.212 235.754 171.587C235.659 171.963 235.677 172.358 235.806 172.724C236.082 173.449 236.498 174.113 237.03 174.678C234.708 176.232 232.203 177.495 229.573 178.438L226.292 173.689C225.762 173 225.351 172.228 225.075 171.405C224.669 169.03 225.213 166.591 226.59 164.615C227.467 163.612 228.542 162.802 229.747 162.235C230.952 161.668 232.261 161.355 233.592 161.318C235.735 161.145 238.341 162.628 239.731 164.301C241.591 166.506 239.55 169.434 238.695 171.797Z" fill="#110FAB"/>
<path d="M233.984 163.908C233.984 164.995 233.662 166.057 233.058 166.961C232.455 167.865 231.596 168.569 230.592 168.985C229.588 169.401 228.483 169.509 227.417 169.297C226.352 169.085 225.372 168.562 224.604 167.794C223.835 167.025 223.312 166.046 223.1 164.98C222.888 163.914 222.997 162.809 223.413 161.805C223.829 160.801 224.533 159.943 225.437 159.339C226.34 158.735 227.403 158.413 228.49 158.413C229.947 158.413 231.345 158.992 232.375 160.022C233.406 161.053 233.984 162.451 233.984 163.908V163.908Z" fill="#F0C53B"/>
<path d="M233.435 162.974C233.435 164.146 233.087 165.293 232.436 166.267C231.784 167.242 230.858 168.002 229.775 168.45C228.691 168.899 227.499 169.015 226.349 168.786C225.199 168.557 224.143 167.992 223.315 167.162C222.486 166.332 221.922 165.275 221.694 164.125C221.467 162.975 221.585 161.783 222.035 160.7C222.485 159.618 223.246 158.692 224.221 158.042C225.197 157.392 226.344 157.046 227.516 157.047C229.087 157.049 230.592 157.675 231.702 158.786C232.812 159.897 233.435 161.403 233.435 162.974V162.974Z" fill="#110FAB"/>
<path d="M238.019 182.968L235.853 184.475C235.075 184.95 234.382 185.552 233.804 186.257C233.518 186.613 233.325 187.035 233.241 187.484C233.158 187.933 233.186 188.396 233.325 188.832C233.773 189.986 235.123 190.472 236.34 190.739C238.088 191.12 239.872 191.317 241.662 191.328C243.445 190.702 245.154 189.881 246.756 188.879C250.03 186.736 252.134 183.235 253.821 179.718C254.693 177.912 255.494 176.068 256.176 174.223C255.077 174.253 253.985 174.036 252.981 173.587C252.424 173.425 251.931 173.091 251.573 172.633C251.215 172.175 251.01 171.616 250.988 171.036C249.692 173.587 248.46 176.044 247.165 178.595C246.74 179.515 246.213 180.384 245.595 181.186C244.111 183.038 240.414 183.36 238.019 182.968Z" fill="#F0C53B"/>
<path d="M401.056 117.104C401.157 117.221 401.208 117.344 401.208 117.472C401.208 117.627 401.147 117.763 401.024 117.88C400.907 117.992 400.771 118.048 400.616 118.048C400.456 118.048 400.32 117.981 400.208 117.848L398.704 116.008L397.184 117.848C397.067 117.981 396.931 118.048 396.776 118.048C396.627 118.048 396.491 117.992 396.368 117.88C396.251 117.763 396.192 117.627 396.192 117.472C396.192 117.339 396.24 117.216 396.336 117.104L397.976 115.152L396.392 113.256C396.291 113.139 396.24 113.016 396.24 112.888C396.24 112.733 396.299 112.6 396.416 112.488C396.539 112.371 396.675 112.312 396.824 112.312C396.984 112.312 397.123 112.381 397.24 112.52L398.704 114.288L400.152 112.52C400.269 112.381 400.408 112.312 400.568 112.312C400.717 112.312 400.851 112.371 400.968 112.488C401.091 112.6 401.152 112.733 401.152 112.888C401.152 113.021 401.104 113.144 401.008 113.256L399.424 115.152L401.056 117.104Z" fill="#8A7FE3"/>
<rect x="436" y="306" width="43" height="4" rx="2" fill="#C4C4C4" fill-opacity="0.23"/>
<rect x="436" y="196" width="72" height="4" rx="2" fill="#C4C4C4" fill-opacity="0.23"/>
<rect x="482" y="246" width="34" height="4" rx="2" fill="#C4C4C4" fill-opacity="0.23"/>
<circle cx="21.5" cy="159.5" r="2.5" fill="#C4C4C4" fill-opacity="0.17"/>
<circle cx="436.5" cy="155.5" r="5.5" fill="#C4C4C4" fill-opacity="0.17"/>
<circle cx="5.5" cy="220.5" r="5.5" fill="#C4C4C4" fill-opacity="0.17"/>
<circle r="3.5" transform="matrix(-1 0 0 1 481.5 166.5)" fill="#C4C4C4" fill-opacity="0.17"/>
<rect x="64" y="69" width="93" height="4" rx="2" fill="#C4C4C4" fill-opacity="0.23"/>
<rect x="31" y="107" width="43" height="4" rx="2" fill="#C4C4C4" fill-opacity="0.23"/>
<rect x="19" y="202" width="65" height="4" rx="2" fill="#C4C4C4" fill-opacity="0.23"/>
<rect x="19" y="107" width="8" height="4" rx="2" fill="#C4C4C4" fill-opacity="0.23"/>
<rect x="485" y="306" width="8" height="4" rx="2" fill="#C4C4C4" fill-opacity="0.23"/>
<path d="M54.888 70.268C55.0933 70.268 55.266 70.338 55.406 70.478C55.546 70.6087 55.616 70.7767 55.616 70.982C55.616 71.1873 55.546 71.36 55.406 71.5C55.266 71.64 55.0933 71.71 54.888 71.71H52.928V73.684C52.928 73.8893 52.858 74.062 52.718 74.202C52.578 74.3327 52.4053 74.398 52.2 74.398C51.9947 74.398 51.822 74.3327 51.682 74.202C51.542 74.062 51.472 73.8893 51.472 73.684V71.71H49.512C49.3067 71.71 49.134 71.64 48.994 71.5C48.854 71.36 48.784 71.1873 48.784 70.982C48.784 70.7767 48.854 70.6087 48.994 70.478C49.134 70.338 49.3067 70.268 49.512 70.268H51.472V68.294C51.472 68.0887 51.542 67.916 51.682 67.776C51.822 67.636 51.9947 67.566 52.2 67.566C52.4053 67.566 52.578 67.636 52.718 67.776C52.858 67.916 52.928 68.0887 52.928 68.294V70.268H54.888Z" fill="#7A6FD3"/>
<path d="M101.584 49.656C101.736 49.832 101.812 50.016 101.812 50.208C101.812 50.44 101.72 50.644 101.536 50.82C101.36 50.988 101.156 51.072 100.924 51.072C100.684 51.072 100.48 50.972 100.312 50.772L98.056 48.012L95.776 50.772C95.6 50.972 95.396 51.072 95.164 51.072C94.94 51.072 94.736 50.988 94.552 50.82C94.376 50.644 94.288 50.44 94.288 50.208C94.288 50.008 94.36 49.824 94.504 49.656L96.964 46.728L94.588 43.884C94.436 43.708 94.36 43.524 94.36 43.332C94.36 43.1 94.448 42.9 94.624 42.732C94.808 42.556 95.012 42.468 95.236 42.468C95.476 42.468 95.684 42.572 95.86 42.78L98.056 45.432L100.228 42.78C100.404 42.572 100.612 42.468 100.852 42.468C101.076 42.468 101.276 42.556 101.452 42.732C101.636 42.9 101.728 43.1 101.728 43.332C101.728 43.532 101.656 43.716 101.512 43.884L99.136 46.728L101.584 49.656Z" fill="#7A6FD3"/>
<path d="M461.848 250.432C462.025 250.637 462.114 250.852 462.114 251.076C462.114 251.347 462.007 251.585 461.792 251.79C461.587 251.986 461.349 252.084 461.078 252.084C460.798 252.084 460.56 251.967 460.364 251.734L457.732 248.514L455.072 251.734C454.867 251.967 454.629 252.084 454.358 252.084C454.097 252.084 453.859 251.986 453.644 251.79C453.439 251.585 453.336 251.347 453.336 251.076C453.336 250.843 453.42 250.628 453.588 250.432L456.458 247.016L453.686 243.698C453.509 243.493 453.42 243.278 453.42 243.054C453.42 242.783 453.523 242.55 453.728 242.354C453.943 242.149 454.181 242.046 454.442 242.046C454.722 242.046 454.965 242.167 455.17 242.41L457.732 245.504L460.266 242.41C460.471 242.167 460.714 242.046 460.994 242.046C461.255 242.046 461.489 242.149 461.694 242.354C461.909 242.55 462.016 242.783 462.016 243.054C462.016 243.287 461.932 243.502 461.764 243.698L458.992 247.016L461.848 250.432Z" fill="#7A6FD3"/>
<path d="M68.056 132.104C68.1573 132.221 68.208 132.344 68.208 132.472C68.208 132.627 68.1467 132.763 68.024 132.88C67.9067 132.992 67.7707 133.048 67.616 133.048C67.456 133.048 67.32 132.981 67.208 132.848L65.704 131.008L64.184 132.848C64.0667 132.981 63.9307 133.048 63.776 133.048C63.6267 133.048 63.4907 132.992 63.368 132.88C63.2507 132.763 63.192 132.627 63.192 132.472C63.192 132.339 63.24 132.216 63.336 132.104L64.976 130.152L63.392 128.256C63.2907 128.139 63.24 128.016 63.24 127.888C63.24 127.733 63.2987 127.6 63.416 127.488C63.5387 127.371 63.6747 127.312 63.824 127.312C63.984 127.312 64.1227 127.381 64.24 127.52L65.704 129.288L67.152 127.52C67.2693 127.381 67.408 127.312 67.568 127.312C67.7173 127.312 67.8507 127.371 67.968 127.488C68.0907 127.6 68.152 127.733 68.152 127.888C68.152 128.021 68.104 128.144 68.008 128.256L66.424 130.152L68.056 132.104Z" fill="#8A7FE3"/>
</svg>
